<svg viewBox="0 0 1378 400" xmlns="http://www.w3.org/2000/svg"><g><g><g><g><g><line x1="40" y1="377" x2="35" y2="377" style="visibility: inherit;" fill="rgb(0, 0, 0)" stroke="rgb(204, 204, 204)" stroke-width="1px"></line><line x1="40" y1="351.8666666666667" x2="35" y2="351.8666666666667" style="visibility: inherit;" fill="rgb(0, 0, 0)" stroke="rgb(204, 204, 204)" stroke-width="1px"></line><line x1="40" y1="326.7333333333333" x2="35" y2="326.7333333333333" style="visibility: inherit;" fill="rgb(0, 0, 0)" stroke="rgb(204, 204, 204)" stroke-width="1px"></line><line x1="40" y1="301.6" x2="35" y2="301.6" style="visibility: inherit;" fill="rgb(0, 0, 0)" stroke="rgb(204, 204, 204)" stroke-width="1px"></line><line x1="40" y1="276.4666666666667" x2="35" y2="276.4666666666667" style="visibility: inherit;" fill="rgb(0, 0, 0)" stroke="rgb(204, 204, 204)" stroke-width="1px"></line><line x1="40" y1="251.33333333333337" x2="35" y2="251.33333333333337" style="visibility: inherit;" fill="rgb(0, 0, 0)" stroke="rgb(204, 204, 204)" stroke-width="1px"></line><line x1="40" y1="226.20000000000005" x2="35" y2="226.20000000000005" style="visibility: inherit;" fill="rgb(0, 0, 0)" stroke="rgb(204, 204, 204)" stroke-width="1px"></line><line x1="40" y1="201.06666666666663" x2="35" y2="201.06666666666663" style="visibility: inherit;" fill="rgb(0, 0, 0)" stroke="rgb(204, 204, 204)" stroke-width="1px"></line><line x1="40" y1="175.93333333333334" x2="35" y2="175.93333333333334" style="visibility: inherit;" fill="rgb(0, 0, 0)" stroke="rgb(204, 204, 204)" stroke-width="1px"></line><line x1="40" y1="150.8" x2="35" y2="150.8" style="visibility: inherit;" fill="rgb(0, 0, 0)" stroke="rgb(204, 204, 204)" stroke-width="1px"></line><line x1="40" y1="125.66666666666669" x2="35" y2="125.66666666666669" style="visibility: inherit;" fill="rgb(0, 0, 0)" stroke="rgb(204, 204, 204)" stroke-width="1px"></line><line x1="40" y1="100.53333333333332" x2="35" y2="100.53333333333332" style="visibility: inherit;" fill="rgb(0, 0, 0)" stroke="rgb(204, 204, 204)" stroke-width="1px"></line><line x1="40" y1="75.39999999999993" x2="35" y2="75.39999999999993" style="visibility: inherit;" fill="rgb(0, 0, 0)" stroke="rgb(204, 204, 204)" stroke-width="1px"></line><line x1="40" y1="50.266666666666616" x2="35" y2="50.266666666666616" style="visibility: inherit;" fill="rgb(0, 0, 0)" stroke="rgb(204, 204, 204)" stroke-width="1px"></line><line x1="40" y1="25.13333333333337" x2="35" y2="25.13333333333337" style="visibility: inherit;" fill="rgb(0, 0, 0)" stroke="rgb(204, 204, 204)" stroke-width="1px"></line><line x1="40" y1="0" x2="35" y2="0" style="visibility: inherit;" fill="rgb(0, 0, 0)" stroke="rgb(204, 204, 204)" stroke-width="1px"></line></g><g transform="translate(30, 0)"><text x="0" y="377" dx="0em" dy="0.3em" style="text-anchor: end; visibility: hidden; font-family: Roboto, sans-serif; font-size: 12px; font-weight: 200;" fill="rgb(255, 255, 255)" stroke="none" stroke-width="1px">1.8</text><text x="0" y="351.8666666666667" dx="0em" dy="0.3em" style="text-anchor: end; visibility: inherit; font-family: Roboto, sans-serif; font-size: 12px; font-weight: 200;" fill="rgb(255, 255, 255)" stroke="none" stroke-width="1px">2</text><text x="0" y="326.7333333333333" dx="0em" dy="0.3em" style="text-anchor: end; visibility: inherit; font-family: Roboto, sans-serif; font-size: 12px; font-weight: 200;" fill="rgb(255, 255, 255)" stroke="none" stroke-width="1px">2.2</text><text x="0" y="301.6" dx="0em" dy="0.3em" style="text-anchor: end; visibility: inherit; font-family: Roboto, sans-serif; font-size: 12px; font-weight: 200;" fill="rgb(255, 255, 255)" stroke="none" stroke-width="1px">2.4</text><text x="0" y="276.4666666666667" dx="0em" dy="0.3em" style="text-anchor: end; visibility: inherit; font-family: Roboto, sans-serif; font-size: 12px; font-weight: 200;" fill="rgb(255, 255, 255)" stroke="none" stroke-width="1px">2.6</text><text x="0" y="251.33333333333337" dx="0em" dy="0.3em" style="text-anchor: end; visibility: inherit; font-family: Roboto, sans-serif; font-size: 12px; font-weight: 200;" fill="rgb(255, 255, 255)" stroke="none" stroke-width="1px">2.8</text><text x="0" y="226.20000000000005" dx="0em" dy="0.3em" style="text-anchor: end; visibility: inherit; font-family: Roboto, sans-serif; font-size: 12px; font-weight: 200;" fill="rgb(255, 255, 255)" stroke="none" stroke-width="1px">3</text><text x="0" y="201.06666666666663" dx="0em" dy="0.3em" style="text-anchor: end; visibility: inherit; font-family: Roboto, sans-serif; font-size: 12px; font-weight: 200;" fill="rgb(255, 255, 255)" stroke="none" stroke-width="1px">3.2</text><text x="0" y="175.93333333333334" dx="0em" dy="0.3em" style="text-anchor: end; visibility: inherit; font-family: Roboto, sans-serif; font-size: 12px; font-weight: 200;" fill="rgb(255, 255, 255)" stroke="none" stroke-width="1px">3.4</text><text x="0" y="150.8" dx="0em" dy="0.3em" style="text-anchor: end; visibility: inherit; font-family: Roboto, sans-serif; font-size: 12px; font-weight: 200;" fill="rgb(255, 255, 255)" stroke="none" stroke-width="1px">3.6</text><text x="0" y="125.66666666666669" dx="0em" dy="0.3em" style="text-anchor: end; visibility: inherit; font-family: Roboto, sans-serif; font-size: 12px; font-weight: 200;" fill="rgb(255, 255, 255)" stroke="none" stroke-width="1px">3.8</text><text x="0" y="100.53333333333332" dx="0em" dy="0.3em" style="text-anchor: end; visibility: inherit; font-family: Roboto, sans-serif; font-size: 12px; font-weight: 200;" fill="rgb(255, 255, 255)" stroke="none" stroke-width="1px">4</text><text x="0" y="75.39999999999993" dx="0em" dy="0.3em" style="text-anchor: end; visibility: inherit; font-family: Roboto, sans-serif; font-size: 12px; font-weight: 200;" fill="rgb(255, 255, 255)" stroke="none" stroke-width="1px">4.2</text><text x="0" y="50.266666666666616" dx="0em" dy="0.3em" style="text-anchor: end; visibility: inherit; font-family: Roboto, sans-serif; font-size: 12px; font-weight: 200;" fill="rgb(255, 255, 255)" stroke="none" stroke-width="1px">4.4</text><text x="0" y="25.13333333333337" dx="0em" dy="0.3em" style="text-anchor: end; visibility: inherit; font-family: Roboto, sans-serif; font-size: 12px; font-weight: 200;" fill="rgb(255, 255, 255)" stroke="none" stroke-width="1px">4.6</text><text x="0" y="0" dx="0em" dy="0.3em" style="text-anchor: end; visibility: hidden; font-family: Roboto, sans-serif; font-size: 12px; font-weight: 200;" fill="rgb(255, 255, 255)" stroke="none" stroke-width="1px">4.8</text></g><line x1="40" y1="0" x2="40" y2="377" fill="rgb(0, 0, 0)" stroke="rgb(204, 204, 204)" stroke-width="1px"></line></g></g><g transform="translate(40, 0)" clip-path="url(#clip_0)"><clipPath id="clip_0"><rect width="1338" height="377"></rect></clipPath><g><g><g><line x1="0" y1="0" x2="0" y2="377" fill="rgb(0, 0, 0)" stroke="rgb(189, 189, 189)" stroke-width="1px" opacity="0.25"></line><line x1="102.92307692307693" y1="0" x2="102.92307692307693" y2="377" fill="rgb(0, 0, 0)" stroke="rgb(189, 189, 189)" stroke-width="1px" opacity="0.25"></line><line x1="205.84615384615387" y1="0" x2="205.84615384615387" y2="377" fill="rgb(0, 0, 0)" stroke="rgb(189, 189, 189)" stroke-width="1px" opacity="0.25"></line><line x1="308.7692307692308" y1="0" x2="308.7692307692308" y2="377" fill="rgb(0, 0, 0)" stroke="rgb(189, 189, 189)" stroke-width="1px" opacity="0.25"></line><line x1="411.69230769230774" y1="0" x2="411.69230769230774" y2="377" fill="rgb(0, 0, 0)" stroke="rgb(189, 189, 189)" stroke-width="1px" opacity="0.25"></line><line x1="514.6153846153846" y1="0" x2="514.6153846153846" y2="377" fill="rgb(0, 0, 0)" stroke="rgb(189, 189, 189)" stroke-width="1px" opacity="0.25"></line><line x1="617.5384615384615" y1="0" x2="617.5384615384615" y2="377" fill="rgb(0, 0, 0)" stroke="rgb(189, 189, 189)" stroke-width="1px" opacity="0.25"></line><line x1="720.4615384615385" y1="0" x2="720.4615384615385" y2="377" fill="rgb(0, 0, 0)" stroke="rgb(189, 189, 189)" stroke-width="1px" opacity="0.25"></line><line x1="823.3846153846155" y1="0" x2="823.3846153846155" y2="377" fill="rgb(0, 0, 0)" stroke="rgb(189, 189, 189)" stroke-width="1px" opacity="0.25"></line><line x1="926.3076923076923" y1="0" x2="926.3076923076923" y2="377" fill="rgb(0, 0, 0)" stroke="rgb(189, 189, 189)" stroke-width="1px" opacity="0.25"></line><line x1="1029.2307692307693" y1="0" x2="1029.2307692307693" y2="377" fill="rgb(0, 0, 0)" stroke="rgb(189, 189, 189)" stroke-width="1px" opacity="0.25"></line><line x1="1132.1538461538462" y1="0" x2="1132.1538461538462" y2="377" fill="rgb(0, 0, 0)" stroke="rgb(189, 189, 189)" stroke-width="1px" opacity="0.25"></line><line x1="1235.076923076923" y1="0" x2="1235.076923076923" y2="377" fill="rgb(0, 0, 0)" stroke="rgb(189, 189, 189)" stroke-width="1px" opacity="0.25"></line><line x1="1338" y1="0" x2="1338" y2="377" fill="rgb(0, 0, 0)" stroke="rgb(189, 189, 189)" stroke-width="1px" opacity="0.25"></line></g><g><line x1="0" y1="377" x2="1338" y2="377" fill="rgb(0, 0, 0)" stroke="rgb(189, 189, 189)" stroke-width="1px" opacity="0.25"></line><line x1="0" y1="351.8666666666667" x2="1338" y2="351.8666666666667" fill="rgb(0, 0, 0)" stroke="rgb(189, 189, 189)" stroke-width="1px" opacity="0.25"></line><line x1="0" y1="326.7333333333333" x2="1338" y2="326.7333333333333" fill="rgb(0, 0, 0)" stroke="rgb(189, 189, 189)" stroke-width="1px" opacity="0.25"></line><line x1="0" y1="301.6" x2="1338" y2="301.6" fill="rgb(0, 0, 0)" stroke="rgb(189, 189, 189)" stroke-width="1px" opacity="0.25"></line><line x1="0" y1="276.4666666666667" x2="1338" y2="276.4666666666667" fill="rgb(0, 0, 0)" stroke="rgb(189, 189, 189)" stroke-width="1px" opacity="0.25"></line><line x1="0" y1="251.33333333333337" x2="1338" y2="251.33333333333337" fill="rgb(0, 0, 0)" stroke="rgb(189, 189, 189)" stroke-width="1px" opacity="0.25"></line><line x1="0" y1="226.20000000000005" x2="1338" y2="226.20000000000005" fill="rgb(0, 0, 0)" stroke="rgb(189, 189, 189)" stroke-width="1px" opacity="0.25"></line><line x1="0" y1="201.06666666666663" x2="1338" y2="201.06666666666663" fill="rgb(0, 0, 0)" stroke="rgb(189, 189, 189)" stroke-width="1px" opacity="0.25"></line><line x1="0" y1="175.93333333333334" x2="1338" y2="175.93333333333334" fill="rgb(0, 0, 0)" stroke="rgb(189, 189, 189)" stroke-width="1px" opacity="0.25"></line><line x1="0" y1="150.8" x2="1338" y2="150.8" fill="rgb(0, 0, 0)" stroke="rgb(189, 189, 189)" stroke-width="1px" opacity="0.25"></line><line x1="0" y1="125.66666666666669" x2="1338" y2="125.66666666666669" fill="rgb(0, 0, 0)" stroke="rgb(189, 189, 189)" stroke-width="1px" opacity="0.25"></line><line x1="0" y1="100.53333333333332" x2="1338" y2="100.53333333333332" fill="rgb(0, 0, 0)" stroke="rgb(189, 189, 189)" stroke-width="1px" opacity="0.25"></line><line x1="0" y1="75.39999999999993" x2="1338" y2="75.39999999999993" fill="rgb(0, 0, 0)" stroke="rgb(189, 189, 189)" stroke-width="1px" opacity="0.25"></line><line x1="0" y1="50.266666666666616" x2="1338" y2="50.266666666666616" fill="rgb(0, 0, 0)" stroke="rgb(189, 189, 189)" stroke-width="1px" opacity="0.25"></line><line x1="0" y1="25.13333333333337" x2="1338" y2="25.13333333333337" fill="rgb(0, 0, 0)" stroke="rgb(189, 189, 189)" stroke-width="1px" opacity="0.25"></line><line x1="0" y1="0" x2="1338" y2="0" fill="rgb(0, 0, 0)" stroke="rgb(189, 189, 189)" stroke-width="1px" opacity="0.25"></line></g></g></g><g><g><line x1="0" y1="603.2" x2="1338" y2="603.2" fill="rgb(0, 0, 0)" stroke="rgb(153, 153, 153)" stroke-width="1.5px"></line></g></g><g><g><line x1="102.92307692307693" y1="0" x2="102.92307692307693" y2="377" fill="rgb(0, 0, 0)" stroke="rgb(153, 153, 153)" stroke-width="1.5px"></line></g></g><g><g><g><g><g><path stroke="rgb(255, 112, 67)" stroke-width="2px" d="M105.49615384615385,24.707835388183586L106.01076923076923,24.657200845082453L108.06923076923077,24.511277240312022L108.58384615384617,24.528796983933848L110.1276923076923,24.527337148755915L110.6423076923077,24.37058136996251L112.18615384615384,24.37201571916363L112.70076923076924,24.30500488406468L113.21538461538462,24.358891480305612L115.27384615384615,24.47327413599128L119.9053846153846,24.404170228612294L121.44923076923077,24.491887108483656L123.50769230769231,24.537386769336905L124.53692307692307,24.54267566746596L125.56615384615384,24.50637479577439L126.08076923076923,24.578422419993224L127.11,24.50416992965211L128.13923076923078,24.592931708110665L128.65384615384616,24.32155086050763L130.1976923076923,24.493927889747095L130.7123076923077,24.447684264020804L131.22692307692307,24.372958851088633L131.74153846153845,24.356144232021634L132.25615384615384,24.45904601524493L134.31461538461537,24.48512077816752L135.34384615384616,24.448824645484834L136.37307692307692,24.381194233859446L136.8876923076923,24.31111015623335L137.4023076923077,24.58245471707488L137.91692307692307,24.52134280676558L139.46076923076922,24.617847531373396L139.9753846153846,24.629418249257505L140.48999999999998,24.673153118390896L141.0046153846154,24.897665732040753L143.5776923076923,26.372984268358195L146.1507692307692,28.35442223174116L147.6946153846154,32.771168228438846L148.20923076923077,38.61153958688285L151.29692307692306,41.32303517021904L155.41384615384615,42.41288277707045L156.9576923076923,46.84277400929324L157.47230769230768,49.11715657636847L161.07461538461538,54.059401219078325L162.61846153846153,55.91917721044754L163.64769230769232,53.118649651783166L166.73538461538462,51.926917508077175L167.25,57.230737449624954L167.76461538461535,54.654210024953876L169.30846153846156,56.33109535093235L169.8230769230769,57.37320403724828L173.4253846153846,58.7695045070115L174.45461538461538,64.84520955542088L175.48384615384614,65.60301350231718L175.99846153846156,66.0953991302401L176.5130769230769,65.84083750060482L177.02769230769232,68.49714917547378L180.1153846153846,71.61864925666843L182.68846153846152,73.25641327328026L183.7176923076923,79.98523543294253L184.2323076923077,83.84647631734222L184.74692307692305,86.21518567138679L186.29076923076926,88.04517885685237L187.83461538461538,81.71709470017912L188.86384615384617,85.09759781080989L189.37846153846152,83.13647293717759L190.9223076923077,86.04574797434263L193.4953846153846,89.99921876598994L194.01,91.65884625440592L194.5246153846154,93.3234541276639L195.55384615384617,84.8016304218497L197.0976923076923,88.68631248416854L198.12692307692308,91.25120311702702L198.64153846153846,90.26481006856002L199.67076923076922,92.68341055183758L200.7,94.69022053561106L201.2146153846154,92.96538883178329L204.81692307692308,103.35920354443132L208.93384615384613,109.63548467268944L209.44846153846154,106.45068257556593L209.96307692307693,106.05215025528025L212.02153846153846,103.01189198524011L215.10923076923078,103.18911377924826L217.16769230769233,106.80950811587661L217.6823076923077,105.77767472197344L218.71153846153845,108.01581304190393L219.74076923076925,119.39542123705844L220.77,125.4095819264493L222.31384615384616,128.98391050993453L222.82846153846157,117.60166624207717L223.34307692307692,123.3949539968535L224.88692307692307,121.95634388859064L230.03307692307692,123.33764832457896L231.0623076923077,127.59760739430378L234.14999999999998,133.92982916131376L235.69384615384615,136.7561161094591L236.20846153846153,136.8777232519995L236.72307692307695,139.17941039595274L237.2376923076923,144.0171141063766L238.26692307692306,146.7223395138341L240.32538461538462,142.8198978489255L241.35461538461539,140.43438978586286L242.38384615384618,135.62078136042965L243.41307692307691,135.5928148347311L245.98615384615385,135.98942851214645L247.01538461538462,124.27910665664496L249.07384615384615,129.68947639938253L252.67615384615385,135.88278445209696L253.19076923076923,136.79748659177L255.76384615384615,147.89136793798235L256.27846153846156,148.12842314672085L256.7930769230769,144.50663414417673L257.8223076923077,154.2889336483815L258.3369230769231,150.8359606554392L258.85153846153844,146.130281780379L260.91,150.08893107307966L261.4246153846154,143.9532629076621L262.45384615384614,144.53404414876192L263.9976923076923,152.77984775517714L266.05615384615385,152.7953216843665L266.57076923076926,150.61237600800558L267.0853846153846,147.90962535633943L267.6,140.6151204464493L268.62923076923073,139.55026417003023L270.1730769230769,148.91065997576288L270.6876923076923,148.63551743524613L271.2023076923077,156.3260367184719L272.74615384615385,155.79275075295615L273.26076923076926,152.13309249380657L274.28999999999996,151.19082905788875L277.3776923076923,146.8749074701845L278.4069230769231,150.49319743977262L279.9507692307692,152.51800837119185L280.4653846153846,146.1360715874022L281.4946153846154,149.0057577010782L282.0092307692308,157.13234171450884L284.58230769230767,162.6621069152003L285.0969230769231,164.69191913518384L287.1553846153846,164.6949010144457L288.1846153846154,162.43989956761112L289.72846153846154,164.16221913408066L291.7869230769231,167.0937890381266L293.84538461538466,168.78476683998008L294.87461538461537,181.1717400719955L296.9330769230769,176.88151794176704L297.4476923076923,168.56847154081711L297.96230769230766,168.7848680324208L298.9915384615385,171.06005256892354L299.50615384615384,177.57925642920202L301.56461538461537,177.22187329645558L302.0792307692308,162.43596044053007L302.59384615384613,166.69261348050452L304.1376923076923,171.73481671374012L304.6523076923077,173.38979414201359L305.16692307692307,178.23451733527526L310.31307692307695,182.4847306216038L312.88615384615383,175.25373896067998L316.48846153846154,176.00032618585627L317.00307692307695,179.38040806299492L319.57615384615383,180.93765780675042L320.09076923076924,181.2652080822843L321.12,179.9852469552869L322.14923076923077,180.53223438278724L324.2076923076923,181.20226093937487L328.83923076923077,188.27462589905383L329.3538461538462,183.3155012983027L329.86846153846153,185.77552789079806L330.3830769230769,187.379106941388L331.92692307692306,178.08787324660975L335.01461538461535,171.92295597056926L338.6169230769231,180.66780710335794L339.13153846153847,185.63562257835994L339.6461538461538,182.28952270676533L340.1607692307692,182.601763773341L341.19,175.5012576518728L341.70461538461535,178.08461096395695L343.2484615384615,179.7473372418263L343.76307692307694,185.15606265139056L346.3361538461538,185.62491901122416L346.8507692307692,186.91357859891386L348.90923076923076,194.23882430626L352.51153846153846,193.1220331905269L354.05538461538464,185.54996095486382L354.57,197.78783212813474L355.59923076923076,191.96413548497L356.6284615384616,188.48101515277807L358.17230769230764,189.11730675402035L363.83307692307693,189.53200315616175L365.37692307692305,193.69035901217651L365.89153846153846,199.78891011708376L366.40615384615387,198.1632925436898L367.4353846153846,204.54053703820728L368.4646153846154,198.46963422701373L368.97923076923075,197.0553240339296L370.0084615384615,190.3865938051743L372.5815384615385,187.64534683689692L373.09615384615387,192.7567088154865L376.18384615384616,199.89263773130858L377.2130769230769,194.24147143145888L377.72769230769234,205.37871491301354L378.2423076923077,202.0134298971591L378.75692307692304,204.68639720984092L379.2715384615385,211.33487615371428L379.78615384615387,207.8167004000227L380.8153846153846,208.1193548614431L381.33,216.39222768076158L381.8446153846154,206.16401847160603L384.41769230769233,216.0321866477931L384.9323076923077,208.53898439519034L385.44692307692304,207.35769011882397L386.47615384615386,205.2475890901136L388.5346153846154,199.15648196536978L389.56384615384616,206.3721252949954L390.59307692307686,211.17676891199272L392.65153846153845,208.14988670018232L393.16615384615386,204.75620073119953L393.6807692307692,202.97664935692245L395.7392307692308,201.23529334925078L397.79769230769233,211.17350163973845L398.3123076923077,210.48009946177882L399.85615384615386,210.91421512979562L400.8853846153846,203.1004223884243L401.4,200.8604137902119L401.91461538461533,198.13270139404088L402.4292307692308,202.26741715575034L402.94384615384615,200.40792548520236L403.4584615384615,211.2899206836792L404.4876923076923,215.04586687325067L405.0023076923077,215.19913770817897L407.5753846153846,208.13334127384334L408.09,196.8929217552219L409.63384615384615,199.03248565048423L410.14846153846156,207.35986644496793L411.69230769230774,204.60073678058544L412.72153846153844,212.12094527778325L414.78,200.26029199221117L415.80923076923074,205.50249167278434L416.83846153846156,212.18254601634555L417.86769230769227,210.68278672184755L419.41153846153844,214.42885720741472L421.47,229.07952970352804L421.9846153846154,227.46383350026827L423.0138461538462,222.12123313187888L424.55769230769226,213.96489693784315L426.61615384615385,221.52218330023848L429.18923076923073,223.2389974648843L432.7915384615385,228.83572252601923L433.30615384615385,222.91447718626586L434.33538461538467,231.6879394957601L434.85,222.10122297937747L435.3646153846154,219.63564456821527L435.87923076923073,224.66726458542175L436.39384615384614,225.98091312213316L436.90846153846155,227.8837333247875L438.45230769230767,225.2977882825821L440.5107692307692,226.7412095397804L441.02538461538455,224.1473949756281L443.08384615384614,219.60819833791592L444.6276923076923,215.97129312028292L445.65692307692314,218.80618830325088L446.68615384615384,215.2675947225206L448.23,214.45970229046225L448.7446153846154,217.60388760886588L449.2592307692308,219.38349699530204L449.77384615384614,223.98034047496242L450.28846153846155,223.2424579394574L451.3176923076923,222.52818345304624L451.83230769230767,221.25272157237703L452.346923076923,209.78795202123592L453.37615384615384,210.81733105389756L453.8907692307692,208.6310152209311L454.4053846153846,222.99835281033367L454.92,227.1021421348595L455.4346153846154,234.19017186615122L455.9492307692308,229.75585184685343L456.9784615384615,221.6417697369573L457.49307692307696,222.3876426565359L461.0953846153846,225.18489683634306L462.6392307692308,223.89589733540768L463.15384615384613,232.15733001704874L463.6684615384615,234.17141784156874L464.6976923076923,227.15873825783842L466.2415384615385,227.28726904214608L467.27076923076925,226.5987332985074L468.29999999999995,220.55650078487022L470.35846153846154,211.48383121509326L472.41692307692307,214.82186517090983L473.96076923076924,217.64585199617173L474.4753846153846,213.86771061100265L474.98999999999995,218.23525723742065L475.5046153846154,213.25663687622517L476.0192307692308,219.95052564125837L478.5923076923077,220.1203234401241L481.68,214.99630979817482L482.70923076923077,213.88087718241238L483.2238461538462,222.69492224069128L483.73846153846154,222.18801309274653L484.2530769230769,234.87447422985446L485.2823076923077,231.30361918833384L486.82615384615383,233.2762503844094L487.34076923076924,230.69804807712185L488.88461538461536,233.17656687702473L489.3992307692308,245.29041263623478L489.9138461538462,236.03017906723485L490.9430769230769,238.1800171604438L491.9723076923077,235.4011678229183L495.06,223.5634098853912L496.6038461538462,223.71116628366187L497.11846153846153,230.49957912912453L498.6623076923077,223.39492860565875L499.17692307692306,227.28307731110033L499.69153846153847,233.56774993712608L500.7207692307693,228.09962497219385L501.23538461538465,228.9670793147779L501.75,229.7285963145035L504.32307692307694,237.71386236710177L506.38153846153847,231.40883040167577L506.8961538461538,235.63402674518645L507.92538461538464,231.46846273773482L508.95461538461535,241.21389911989513L509.9838461538462,243.19092013371076L510.4984615384615,239.15203139820946L511.01307692307694,241.67110894385527L511.5276923076923,244.66443979181977L512.0423076923076,232.72498256507396L512.5569230769231,222.2884950996014L513.5861538461538,225.3309066478752L514.6153846153846,226.2626329182194L515.6446153846153,232.53859023244814L517.1884615384615,239.93082032675522L518.2176923076923,245.781097246458L518.7323076923077,247.5426039464771L519.246923076923,247.13050699119768L521.3053846153847,244.8030499578615L522.3346153846154,241.16954761591165L522.8492307692308,236.86707386958562L523.8784615384616,236.2534457110641L525.4223076923076,233.7700871791409L527.4807692307692,234.05005195017458L529.0246153846153,237.99784852112813L530.5684615384615,236.5714404931395L531.083076923077,237.28827462379505L532.1123076923077,235.75345521718884L533.1415384615385,238.72661760459718L534.1707692307692,236.85151314622385L536.7438461538461,246.64026183696322L537.7730769230769,240.92197580106094L538.2876923076923,239.16108121733086L538.8023076923076,251.31559411919253L539.3169230769231,249.89356368205623L540.8607692307693,243.26455596817544L543.9484615384615,232.4703516356131L544.9776923076923,241.52083677482491L545.4923076923077,241.0999678407027L546.006923076923,244.06149957064275L547.0361538461539,248.26632397741164L549.0946153846154,255.02563407125126L550.1238461538461,243.94511106154545L550.6384615384616,238.96632300620016L552.6969230769231,238.31199030640556L553.2115384615385,248.58771140592992L553.7261538461539,242.35247480879846L554.2407692307693,239.87372092094395L555.7846153846154,242.22558563840218L556.2992307692308,251.87726363356006L556.8138461538462,251.62909746337985L557.8430769230769,251.2393331347052L559.386923076923,244.3653504390404L560.4161538461539,245.25399630977034L560.9307692307692,251.73096012183015L561.9599999999999,253.8137576971928L562.4746153846154,255.8325899327485L564.0184615384616,252.27008851953474L565.5623076923077,253.92886010838427L566.0769230769231,257.4792319903744L569.6792307692308,245.6211502502345L570.1938461538462,237.58688576400175L570.7084615384615,229.2947748592291L571.2230769230769,236.5171480360107L571.7376923076923,239.2571478125936L572.2523076923077,244.11327126329053L572.766923076923,241.59839499496374L573.7961538461539,243.39200394135486L574.3107692307692,250.1453502351946L574.8253846153847,252.3772109739923L576.3692307692309,249.0985649470256L576.8838461538462,243.233548179692L577.3984615384616,249.72526892627835L577.9130769230769,254.60787270906903L578.9423076923077,249.82929953283076L582.03,253.93514941421742L582.5446153846153,251.67527741047303L584.0884615384615,245.99113743296792L587.6907692307693,239.73062976355274L589.2346153846154,240.03319013687923L592.8369230769231,247.73194860640936L593.3515384615384,253.3024499815133L593.8661538461538,251.57691016682548L594.8953846153846,254.5458138844683L595.41,253.62770578114072L595.9246153846153,253.13445044546052L597.4684615384616,254.77633214268317L597.983076923077,254.78419650240681L599.0123076923077,250.77495609190424L600.0415384615385,253.64500391840753L600.5561538461538,251.71864899690837L602.6146153846154,246.41471045908867L603.1292307692307,244.7001498609635L605.1876923076923,249.21379269062598L605.7023076923076,262.41302427668836L606.2169230769231,250.6087728052505L606.7315384615384,248.60533998345343L608.2753846153846,261.4071050965886L608.7900000000001,256.9684477109175L609.3046153846154,266.97571776341164L610.8484615384616,260.69183720050717L611.363076923077,250.97488026041862L615.48,258.0026202580476L617.0238461538461,264.1135594404426L617.5384615384615,257.02686802764856L618.5676923076923,260.6930290998228L619.5969230769231,250.44257245587553L620.1115384615384,244.59267815904167L621.6553846153846,243.9075618451219L622.1700000000001,248.10070004932373L623.1992307692308,239.03347283009063L623.7138461538461,248.92506042840105L624.2284615384615,247.3780491621615L624.743076923077,260.12579505948156L626.286923076923,264.1012989885088L630.4038461538462,263.91485792119164L631.4330769230769,265.1870121152333L632.4623076923077,271.35930823909035L633.4915384615385,261.1320624774305L634.0061538461539,259.1177982711161L634.5207692307692,253.74833867768635L635.55,251.14586645734428L636.5792307692308,251.10455794635686L637.0938461538461,252.82360253514807L637.6084615384615,251.51109936186845L639.1523076923077,251.59888594438138L640.1815384615385,257.75187581711714L643.7838461538462,258.60684100032074L644.2984615384615,252.0114852828198L645.8423076923077,261.66055856878046L646.8715384615384,267.68936910351806L649.9592307692308,267.5657633955519L650.4738461538461,257.25463762056285L651.503076923077,254.58184364818402L652.5323076923077,249.45752651005708L654.5907692307693,261.4756733614786L656.6492307692308,264.9736892214567L657.6784615384615,266.06500915156704L658.7076923076924,261.969190376601L660.2515384615384,250.83798390166046L660.7661538461538,255.8133903483713L661.2807692307692,261.8960660668312L661.7953846153846,259.3599879295885L664.8830769230769,271.8425853112097L665.3976923076923,271.4763351960235L668.4853846153846,277.7183797575982L669.5146153846155,275.99644207346154L670.5438461538462,269.7357452642185L671.0584615384614,266.1693655100225L671.5730769230769,265.12019972364646L676.2046153846154,263.2908353556824L677.2338461538462,267.67017249840296L678.7776923076924,259.9834764085877L680.8361538461538,270.130667052428L681.8653846153845,262.17375015999477L682.38,263.8277900969124L682.8946153846155,262.3099271874708L684.4384615384615,260.5337722202787L684.9530769230769,265.72782706304287L685.9823076923077,266.39391960233786L686.496923076923,259.61093635358617L687.0115384615384,259.99224033235436L688.5553846153846,266.6353706861273L689.07,265.1990982865136L694.2161538461538,271.58932796248837L695.2453846153846,268.8496399636808L695.76,263.2030496833171L697.3038461538462,261.96766881450685L697.8184615384615,271.1105308121722L698.333076923077,273.0216410199571L699.8769230769232,268.75723021744307L700.3915384615384,268.3692776102937L700.9061538461539,277.2202831557859L708.6253846153846,268.54787876594884L710.1692307692308,279.07769724044493L711.1984615384615,267.487390826821L711.713076923077,271.96624712070616L712.7423076923077,265.2856910430637L713.2569230769232,267.34447823464353L714.8007692307691,272.4438792663782L716.3446153846153,273.15069745449034L716.8592307692307,275.42408172647845L717.3738461538462,269.37297407683144L717.8884615384616,265.3472282212759L718.9176923076923,275.71408461342963L719.9469230769231,274.96595052646023L720.9761538461539,275.369587996998L722.0053846153846,280.42303480350887L722.5200000000001,279.63806129958584L723.5492307692308,272.1338972147287L724.5784615384615,268.0870736982016L725.6076923076922,256.1055895621929L726.1223076923077,258.5015843917143L726.6369230769232,268.840997625741L727.1515384615384,264.39067030192575L727.6661538461539,268.71753258530987L732.8123076923077,263.57069951588727L734.8707692307692,263.5442577705472L736.9292307692308,278.36019118144253L737.443846153846,270.32642855036744L737.9584615384615,275.0017237658609L738.9876923076922,268.4035688842521L740.5315384615384,262.23762108595287L742.0753846153847,263.9100838095612L743.1046153846154,262.72906141702333L744.1338461538461,271.72751534396804L744.6484615384616,268.1789306236172L745.6776923076923,267.8125809617557L747.7361538461539,268.91510574029195L748.2507692307692,282.54154443426705L748.7653846153846,276.5880091775485L749.7946153846153,277.2352495194889L750.3092307692308,279.950277945285L751.853076923077,275.019227410685L752.3676923076923,264.6552262504881L752.8823076923077,277.80774414618725L753.396923076923,277.7283711009021L753.9115384615385,266.2350035539942L754.4261538461539,265.5059348093476L756.9992307692308,275.3071816818122L757.5138461538461,274.1864608289522L758.543076923077,279.97426496198113L760.6015384615384,283.2664367937068L761.1161538461539,281.0762247878127L762.1453846153846,280.0615304977385L764.2038461538461,285.3066663315309L765.233076923077,289.5028596113371L767.2915384615385,284.9961682560194L767.806153846154,282.874912092019L768.3207692307692,277.6685794573598L768.8353846153847,277.92391955424785L769.8646153846154,274.95959374330107L771.4084615384616,262.83967481745276L771.9230769230769,266.1041666636447L772.9523076923077,263.97747508185586L773.4669230769231,272.4036138472804L773.9815384615384,289.493863636127L777.0692307692308,294.30946809164936L778.0984615384616,290.17145128396504L778.6130769230768,289.75018018174586L779.6423076923078,283.08541851732184L780.156923076923,282.28553809896937L781.7007692307692,284.6795905608485L782.2153846153847,288.274323931846L784.7884615384615,284.93041894406855L785.3030769230769,285.0803165100263L785.8176923076923,289.76775171809874L787.3615384615384,291.4724129314431L788.3907692307693,285.67556962699945L788.9053846153847,285.2290765809888L789.42,285.67823779073603L789.9346153846154,292.02691176903596L790.4492307692309,284.6556375195921L790.9638461538461,273.5521094074055L792.5076923076923,277.00815247000486L794.0515384615385,278.6967400588666L796.6246153846154,282.0186959480091L797.1392307692307,276.1116463534938L797.6538461538462,270.23933018880524L798.1684615384615,269.8462817973143L800.2269230769231,290.2262620440868L802.2853846153847,286.46175220758204L803.3146153846154,295.0778600848744L803.8292307692307,298.3641235445159L805.8876923076923,287.9304545140793L807.9461538461538,282.307804912122L811.5484615384617,289.62939315107974L812.0630769230769,293.07789501667526L812.5776923076924,293.4360758975377L814.1215384615385,297.10870651773L815.1507692307692,293.47623733582924L815.6653846153847,296.37219464403097L816.6946153846154,281.5564200744333L817.2092307692308,291.4631089416326L817.7238461538461,285.7704413728226L818.753076923077,295.01012094475675L819.2676923076923,287.1505396790774L820.8115384615385,287.05443495755225L829.56,284.81209233032564L830.0746153846154,287.8013991321737L830.5892307692308,288.68118850503055L831.1038461538461,292.64839998630896L833.1623076923076,288.7702134562426L834.7061538461538,289.9731583789722L835.2207692307693,284.6470635975839L836.7646153846155,288.91786260160455L837.2792307692307,283.2164010657031L837.7938461538462,280.2952181736524L839.8523076923077,282.4246378850874L840.3669230769231,286.14050175698225L840.8815384615385,295.5938735728559L841.9107692307692,290.08327279915994L842.4253846153846,288.1265715871091L842.94,283.2413324710032L843.9692307692308,282.4850894377412L844.9984615384615,283.0410743065147L848.0861538461538,295.27999083126394L849.1153846153845,295.3435555580744L851.6884615384615,295.0734528678749L852.2030769230769,290.6992324466364L856.8346153846153,282.23467378347254L857.3492307692308,284.0198853413014L863.01,279.96780321278663L865.0684615384615,284.8039111897061L865.583076923077,293.3389535278903L867.1269230769232,291.88174282774287L867.6415384615384,298.37087742526313L869.1853846153846,297.53424095812824L870.2146153846153,289.60022270979516L870.7292307692308,297.09446178139467L871.2438461538462,296.8710628453566L874.8461538461538,298.96011362375856L875.3607692307693,289.9612056177976L875.8753846153846,291.24541676692894L876.39,290.06852095198275L877.4192307692308,291.81633116605866L877.9338461538462,296.72304589710427L878.963076923077,300.6629033960608L879.4776923076922,288.97636137153944L879.9923076923077,289.4445423834298L880.5069230769232,285.27272716955986L883.08,280.47915901698656L884.1092307692307,284.6438202545523L886.6823076923077,287.5732083578197L887.1969230769231,296.46986837025213L887.7115384615385,295.35510606548627L888.7407692307692,307.73400942354266L892.343076923077,294.08228102923755L893.3723076923077,288.10753891707253L898.5184615384616,284.56647305473166L899.5476923076923,288.81972463280647L900.0623076923077,290.4419534612736L901.0915384615384,293.2928675545677L901.6061538461539,293.21823976517265L902.6353846153846,300.5435036036206L903.1500000000001,290.41642327067257L906.2376923076922,298.62536015365725L906.7523076923077,314.6633686088773L909.84,311.98088911830894L910.3546153846154,295.36587554887643L914.9861538461539,295.611059193665L915.5007692307692,292.0123277502383L917.0446153846153,291.7172070787624L918.0738461538461,283.36974480110064L920.1323076923077,288.75661703243446L923.2199999999999,297.30871107435985L924.2492307692308,292.72702772849857L924.7638461538461,299.98441013634636L925.793076923077,295.9105550949202L927.336923076923,287.0031171590741L928.3661538461539,297.93371110939916L928.8807692307691,299.6329490179853L930.9392307692308,298.28808031370454L931.4538461538461,293.5597324452214L932.483076923077,299.9237452682702L932.9976923076923,301.8793650478233L933.5123076923078,297.97899989824145L934.026923076923,296.07109793826334L935.5707692307692,299.1506319062177L936.0853846153847,299.29304079788506L936.5999999999999,296.0968404216225L938.6584615384616,309.71931089258123L939.6876923076923,306.1696800197915L940.2023076923077,313.8176055442744L940.7169230769231,311.4156539701295L941.7461538461539,310.71897260007495L942.7753846153846,302.30407361462056L943.8046153846154,298.82744165107215L945.3484615384616,305.92918121404216L945.8630769230768,310.3517521404432L946.8923076923078,305.7387404042407L947.406923076923,295.2642839955046L947.9215384615385,311.5090456259303L949.4653846153847,312.3555004397265L950.4946153846154,318.83995121394986L951.0092307692308,312.7624598412239L952.5530769230769,307.22598425637824L953.0676923076923,309.85214167967126L954.6115384615384,315.55490493934167L956.1553846153847,312.2353015400617L956.67,312.5126621328383L957.1846153846154,317.77580179070964L957.6992307692309,314.6231114671362L959.2430769230768,312.7564370325644L961.3015384615385,305.25978766509525L962.3307692307692,293.2895296857475L962.8453846153847,296.2573297257653L963.36,302.13153391969786L964.9038461538462,307.4024028779621L965.4184615384615,297.5348286756807L966.4476923076924,299.20390480810005L968.5061538461538,309.08690102211796L969.0207692307692,294.8677339639991L969.5353846153847,301.83743882378315L971.0792307692307,302.82235847910465L973.1376923076923,297.8693730978184L973.6523076923077,303.9356620527117L974.6815384615385,306.89565020581927L975.1961538461538,310.5502865150423L975.7107692307692,320.46129470158724L976.2253846153847,301.12870284252824L977.2546153846154,301.3463512488214L978.7984615384617,307.2790237530872L979.3130769230769,312.05391621260674L979.8276923076924,309.8622405318548L980.3423076923076,313.6297807535408L982.4007692307692,304.5276257865157L982.9153846153847,303.89304516032496L985.4884615384616,312.47192638386383L986.5176923076923,317.36082120380263L987.0323076923077,312.136915225435L987.5469230769231,313.56461813448794L989.6053846153845,306.9713106425539L991.1492307692307,303.21664190005873L992.1784615384616,300.83785951442485L993.7223076923076,309.64551506702287L994.2369230769231,310.3216698749712L994.7515384615385,309.90450649244696L995.2661538461538,308.35249922424424L995.7807692307692,307.8082146796576L996.81,306.8934323529199L997.8392307692308,299.57470656751366L999.3830769230769,309.7724634376293L999.8976923076923,311.413837483354L1000.9269230769231,313.62345458199235L1001.4415384615386,311.5060159877716L1001.9561538461538,309.33148954286844L1003.5,307.7339322414478L1004.5292307692307,303.361718833038L1005.0438461538462,310.0282894378437L1005.5584615384614,309.6283956101854L1006.0730769230769,310.1362925655436L1009.6753846153846,309.6675027032768L1010.19,313.396173002327L1011.7338461538462,317.5700475831853L1014.3069230769231,316.95330703298407L1016.3653846153845,321.1929835687488L1017.3946153846155,323.28033556284964L1019.4530769230769,316.90717258379334L1019.9676923076923,317.5366098272333L1020.996923076923,313.9880037864563L1023.0553846153846,310.8490615352303L1023.57,311.45243349935475L1024.0846153846153,307.1906899694554L1025.1138461538462,311.8300408381593L1025.6284615384616,309.58213576108443L1026.143076923077,321.6772414201312L1028.2015384615383,318.73270874622347L1030.26,324.2191447548243L1031.2892307692307,330.176157034169L1031.8038461538463,330.4567941058062L1032.833076923077,329.8467586343516L1034.8915384615384,329.1109433959938L1035.9207692307693,319.2900193495165L1036.4353846153847,314.67954353745444L1037.9792307692308,328.8300371868749L1039.523076923077,329.93327486415745L1041.5815384615385,328.3134511830412L1042.6107692307694,314.88951013497524L1044.6692307692308,311.4228867857378L1046.7276923076922,303.91190561346536L1047.2423076923076,317.3045020589769L1047.7569230769232,323.3213415882711L1049.8153846153846,326.396193243368L1050.3300000000002,322.4950843008181L1050.8446153846153,327.3700989940855L1051.8738461538462,322.85590470666244L1052.3884615384616,308.8139392473373L1052.903076923077,315.3686030478124L1053.9323076923076,316.73052078788544L1054.4469230769232,316.9806724097633L1055.9907692307693,324.4227727683169L1056.5053846153846,322.84545641611714L1057.5346153846153,318.03080323301174L1058.5638461538463,322.4926968560363L1059.0784615384616,327.4901175236153L1059.593076923077,332.3692147542306L1063.1953846153847,316.69039003189016L1064.2246153846154,319.85568221173054L1064.7392307692307,309.46116197443826L1067.826923076923,318.49655908626414L1068.3415384615384,323.48394620666164L1068.8561538461538,321.3644348524963L1069.3707692307692,313.3552418046964L1069.8853846153845,306.0451437298719L1070.9146153846154,318.56945231026L1072.4584615384615,317.6149457251961L1076.0607692307692,302.77186954235646L1076.5753846153846,310.9317703943388L1077.0900000000001,312.0280708222153L1079.663076923077,325.28146033059926L1081.7215384615386,331.11530428750143L1083.2653846153846,334.0659891749789L1083.78,327.9749708294095L1085.323846153846,324.1156644383602L1085.8384615384616,322.6703116281549L1086.353076923077,323.9768378812305L1086.8676923076923,322.0439017946461L1087.3823076923077,309.7135367402399L1088.926153846154,304.4029709312695L1089.440769230769,318.81999101798004L1089.9553846153847,317.24529713408316L1090.47,315.1939991880426L1092.5284615384614,323.61568636788746L1093.043076923077,326.7421172294646L1093.5576923076924,328.4930971809404L1095.1015384615384,331.7577749269114L1096.1307692307691,321.2548392687384L1097.1599999999999,325.0367104383792L1098.1892307692308,326.82542218282737L1098.7038461538461,332.8721358437235L1099.2184615384615,334.472732965483L1100.2476923076922,330.4809370472036L1100.7623076923078,333.1235231467487L1103.3353846153846,321.57653566132393L1104.8792307692308,314.12139637110874L1105.9084615384616,318.1238641796802L1107.4523076923078,320.7404308163104L1108.996153846154,329.397013667602L1109.5107692307693,328.0105820485226L1110.54,320.45655304203063L1111.569230769231,314.16339580303213L1114.656923076923,320.23082068494426L1115.1715384615384,318.64313020546115L1116.2007692307693,321.00365691406853L1117.23,328.3248714873592L1119.8030769230768,330.7774643073122L1121.8615384615384,332.6581710765545L1122.3761538461538,328.94866528529633L1122.8907692307691,329.717902155034L1123.4053846153847,331.1868499712024L1129.5807692307692,333.5551484590296L1130.61,328.25815209421654L1131.6392307692306,323.20475041154907L1132.6684615384615,320.53334719390006L1133.183076923077,318.7021524623056L1134.726923076923,325.001412021817L1135.2415384615385,331.31609851263045L1135.756153846154,326.458412013106L1136.2707692307692,324.92803466895367L1136.7853846153846,333.5930876496185L1137.3,338.93300930516415L1137.8146153846153,336.89182285859084L1138.8438461538462,337.65759382959544L1139.3584615384616,333.8007162836174L1139.873076923077,321.3229006831038L1140.9023076923077,328.93429354732365L1143.4753846153847,324.31632276001653L1145.0192307692307,333.26388360911454L1146.0484615384617,340.35923181367224L1146.5630769230768,337.58727556383L1147.5923076923077,334.4675886951807L1149.1361538461538,342.94475811339953L1150.68,340.6596290494057L1151.7092307692308,340.7205444279345L1153.2530769230768,328.5444133788167L1153.7676923076924,321.8072198504102L1154.7969230769231,334.1003324004347L1155.3115384615385,338.357369742334L1156.8553846153845,336.89675825210816L1157.8846153846155,335.676376077567L1158.3992307692308,341.22434016527797L1162.5161538461539,328.9808214262847L1163.0307692307692,327.84195387973733L1164.06,326.8708613638939L1166.633076923077,332.356213546089L1169.2061538461537,327.4704195326318L1169.7207692307693,329.26925210232037L1170.2353846153846,336.30530715509946L1171.2646153846154,322.94533249532003L1171.7792307692307,321.21265706377125L1172.8084615384614,331.88754809949927L1173.8376923076924,332.02184098077294L1175.3815384615386,339.3516414041071L1175.8961538461538,334.53959562508754L1177.9546153846154,339.0972159639706L1180.5276923076924,338.9232321510142L1181.556923076923,324.0813375081276L1184.6446153846155,330.7490372168415L1185.1592307692308,322.11684787992994L1185.6738461538462,319.18491701398904L1186.1884615384615,331.89362342108063L1186.7030769230769,329.23267652838695L1188.2469230769232,342.4399829489942L1189.2761538461539,336.08627654689286L1190.82,342.0961713376308L1191.3346153846153,342.9524907308418L1192.8784615384616,337.7016145378907L1193.9076923076923,326.52363816522916L1194.9369230769232,327.403932279885L1195.4515384615383,323.86810242009574L1195.966153846154,324.4425553620204L1198.0246153846153,327.6325528832482L1200.083076923077,334.3928943728729L1200.5976923076923,333.82140163989806L1201.1123076923077,346.68613407539493L1203.1707692307693,337.51076721942724L1203.6853846153847,334.7426048234878L1204.7146153846154,334.60079161698286L1205.2292307692308,336.3874440342664L1206.2584615384615,339.71891058865066L1206.773076923077,338.7202974767459L1207.2876923076922,340.4626985882306L1208.316923076923,336.93692461100716L1208.8315384615385,342.8035615061571L1209.3461538461538,335.09771563141646L1209.8607692307694,352.6626483976588L1211.4046153846152,346.79439818420485L1212.4338461538462,342.89151379481046L1212.9484615384615,336.22757062404406L1216.0361538461539,332.5935936643028L1216.5507692307692,340.3357622834053L1217.0653846153846,332.76445825250977L1219.1238461538462,329.3614623953026L1220.153076923077,328.10447033777564L1221.1823076923076,339.8179497401003L1223.2407692307693,330.2990641848296L1226.843076923077,341.80707885043125L1228.386923076923,342.256642552314L1229.416153846154,338.9556807319906L1230.4453846153847,331.47084716879846L1230.96,330.1592330657851L1231.9892307692307,342.5184001725959L1233.0184615384615,340.08218606404745L1234.0476923076922,333.3521521065173L1234.5623076923077,327.5005761734766L1235.076923076923,327.4780450283759L1235.5915384615384,327.52999770438316L1236.6207692307692,342.1970150824128L1237.1353846153845,339.7413343609813L1238.6792307692308,346.28091128477115L1239.1938461538462,353.26600393817023L1240.7376923076922,350.1678545194777L1242.2815384615385,355.14635994819275L1244.3400000000001,343.1100264842558L1247.4276923076923,346.1209702095538L1247.9423076923076,338.7444317389219L1249.486153846154,347.68270233444514L1250.0007692307693,352.0866644221871L1251.03,345.92728998174243L1252.059230769231,348.67201966470464L1252.573846153846,331.99753004248527L1253.603076923077,327.31044602435185L1254.1176923076923,322.6539717009148L1255.146923076923,324.76982812705523L1255.6615384615384,337.45015086386337L1256.176153846154,330.7283972886428L1256.690769230769,332.41704851392257L1257.72,331.7951210189065L1258.7492307692307,332.6081431107641L1259.263846153846,342.9646288162622L1261.3223076923077,336.8670816313914L1261.836923076923,339.00059376388936L1262.8661538461538,340.87298737583643L1264.4099999999999,338.6224491879429L1265.4392307692308,326.5222629685254L1266.983076923077,332.4633136704992L1270.0707692307692,346.64649914475865L1273.1584615384616,338.5176538839296L1275.216923076923,331.4109767056121L1276.7607692307693,324.43819611807345L1279.333846153846,330.6243863165757L1280.363076923077,332.3289231781392L1281.906923076923,336.405717198306L1284.9946153846154,328.94698187843187L1285.5092307692307,327.59214683732523L1286.5384615384617,344.10756693578435L1288.0823076923077,338.32052409905197L1288.596923076923,329.77372246419196L1289.6261538461538,331.83088089367635L1290.1407692307691,332.4164066362831L1290.6553846153847,336.38432278604034L1295.2869230769231,339.6170630802952L1295.8015384615385,329.59455112001757L1296.3161538461538,341.0638273885735L1296.8307692307692,328.9132645931376L1297.86,336.0742172690153L1298.8892307692306,348.8504329664659L1300.433076923077,346.74692539114665L1300.9476923076923,345.75833127025106L1303.006153846154,342.3101176217596L1304.0353846153846,336.28842330031L1304.55,336.2598409941936L1305.0646153846153,337.87946370270714L1305.5792307692307,326.2935830105952L1306.6084615384616,328.3769948380954" style="fill: none;" fill="none"></path></g></g></g></g><g opacity="0.2"><g><g><g><path stroke="rgb(255, 112, 67)" stroke-width="2px" d="M105.49615384615385,24.707835388183586L106.01076923076923,24.626820119221982L108.06923076923077,24.371190579732236L108.58384615384617,24.549400202433233L110.1276923076923,24.525431187947568L110.6423076923077,24.15373169581092L112.18615384615384,24.374066861470517L112.70076923076924,24.207302443186407L113.21538461538462,24.43836374282836L115.27384615384615,24.643119049072258L119.9053846153846,24.301141134897833L121.44923076923077,24.62298507690429L123.50769230769231,24.605487696329718L124.53692307692307,24.55059865315753L125.56615384615384,24.451966158548956L126.08076923076923,24.68644304275512L127.11,24.392822615305548L128.13923076923078,24.726051839192685L128.65384615384616,23.91452093124389L130.1976923076923,24.752477677663144L130.7123076923077,24.37832136154174L131.22692307692307,24.260873190561895L131.74153846153845,24.3309226353963L132.25615384615384,24.61339747110999L134.31461538461537,24.524232737223272L135.34384615384616,24.39438060124713L136.37307692307692,24.279748789469366L136.8876923076923,24.205984147389707L137.4023076923077,24.989471308390264L137.91692307692307,24.429674975077276L139.46076923076922,24.76260458628333L139.9753846153846,24.646774323781308L140.48999999999998,24.73875541687011L141.0046153846154,25.234434636433896L143.5776923076923,28.585962009429924L146.1507692307692,31.326579125722226L147.6946153846154,39.396287155151356L148.20923076923077,47.37209657033282L151.29692307692306,45.39027853012084L155.41384615384615,44.047654183705625L156.9576923076923,53.48761084874469L157.47230769230768,52.528730424245175L161.07461538461538,61.47276817957557L162.61846153846153,58.70884119669593L163.64769230769232,48.91785831451415L166.73538461538462,50.13931929270423L167.25,65.18646736145018L167.76461538461535,50.78941888809203L169.30846153846156,58.84642333984374L169.8230769230769,58.93636706670123L173.4253846153846,60.86395521163939L174.45461538461538,73.95876712799071L175.48384615384614,66.73971942265827L175.99846153846156,66.83397757212317L176.5130769230769,65.45899505615233L177.02769230769232,72.48161668777465L180.1153846153846,76.30089937845862L182.68846153846152,75.7130592981974L183.7176923076923,90.07846867243445L184.2323076923077,89.63833764394123L184.74692307692305,89.7682497024536L186.29076923076926,90.79016863505042L187.83461538461538,72.22496846516925L188.86384615384617,90.16835247675574L189.37846153846152,80.19478562672931L190.9223076923077,90.40966053009032L193.4953846153846,95.92942495346068L194.01,94.14828748703002L194.5246153846154,95.82036593755085L195.55384615384617,72.01889486312865L197.0976923076923,94.51333557764686L198.12692307692308,95.09853906631469L198.64153846153846,88.78522049585975L199.67076923076922,96.31131127675373L200.7,97.70043551127112L201.2146153846154,90.37814127604163L204.81692307692308,118.94992561340331L208.93384615384613,119.04990636507667L209.44846153846154,101.67347942988074L209.96307692307693,105.45435177485145L212.02153846153846,98.45150458017982L215.10923076923078,103.45494647026061L217.16769230769233,112.24009962081908L217.6823076923077,104.22992463111876L218.71153846153845,111.37302052179969L219.74076923076925,136.46483352979027L220.77,134.4308229605357L222.31384615384616,134.34540338516234L222.82846153846157,100.52829984029133L223.34307692307692,132.08488562901817L224.88692307692307,119.79842872619628L230.03307692307692,125.40960497856139L231.0623076923077,133.98754599889122L234.14999999999998,143.4281618118286L235.69384615384615,140.99554653167723L236.20846153846153,137.06013396581017L236.72307692307695,142.63194111188255L237.2376923076923,151.27366967201232L238.26692307692306,150.78017762502037L240.32538461538462,136.9662353515625L241.35461538461539,136.8561276912689L242.38384615384618,128.4003687222799L243.41307692307691,135.55086504618328L245.98615384615385,136.58434902826946L247.01538461538462,106.7136238733927L249.07384615384615,137.80503101348876L252.67615384615385,145.17274653116863L253.19076923076923,138.1695398012797L255.76384615384615,164.53218995730083L256.27846153846156,148.48400595982872L256.7930769230769,139.07395064036052L257.8223076923077,168.96238290468852L258.3369230769231,145.6565011660258L258.85153846153844,139.07176346778868L260.91,156.02690501213073L261.4246153846154,134.74976065953575L262.45384615384614,145.4052160104116L263.9976923076923,165.14855316480003L266.05615384615385,152.81853257815044L266.57076923076926,147.33795749346416L267.0853846153846,143.85549937884014L267.6,129.67336308161418L268.62923076923073,137.9529797554016L270.1730769230769,162.9512536843618L270.6876923076923,148.22280362447106L271.2023076923077,167.86181564331054L272.74615384615385,154.99282180468242L273.26076923076926,146.6436051050822L274.28999999999996,149.77743390401207L277.3776923076923,140.40102508862816L278.4069230769231,155.9206323941549L279.9507692307692,155.55522476832073L280.4653846153846,136.56316641171776L281.4946153846154,153.3102868715922L282.0092307692308,169.32221773465477L284.58230769230767,170.9567547162374L285.0969230769231,167.7366374651591L287.1553846153846,164.69937383333843L288.1846153846154,159.05739739735924L289.72846153846154,166.74569848378502L291.7869230769231,171.49114389419555L293.84538461538466,171.32123354276024L294.87461538461537,199.75219992001848L296.9330769230769,170.44618474642436L297.4476923076923,156.09890193939208L297.96230769230766,169.10946276982628L298.9915384615385,174.4728293736776L299.50615384615384,187.35806221961974L301.56461538461537,176.6857985973358L302.0792307692308,140.25709115664165L302.59384615384613,173.0775930404663L304.1376923076923,179.29812156359355L304.6523076923077,175.87226028442382L305.16692307692307,185.50160212516784L310.31307692307695,188.8600505510966L312.88615384615383,164.40725146929424L316.48846153846154,177.1202070236206L317.00307692307695,184.4505308787028L319.57615384615383,183.27353242238365L320.09076923076924,181.75653349558513L321.12,178.06530526479088L322.14923076923077,181.3527155240377L324.2076923076923,182.2073007742564L328.83923076923077,198.8831733385722L329.3538461538462,175.87681439717613L329.86846153846153,189.46556777954106L330.3830769230769,189.784475517273L331.92692307692306,164.15102270444237L335.01461538461535,162.6755800565084L338.6169230769231,193.78508380254107L339.13153846153847,193.08734579086308L339.6461538461538,177.2703728993734L340.1607692307692,183.07012537320458L341.19,164.85049846967064L341.70461538461535,181.95964093208312L343.2484615384615,182.24142665863036L343.76307692307694,193.26915076573687L346.3361538461538,186.32820355097454L346.8507692307692,188.8465679804484L348.90923076923076,205.2266928672791L352.51153846153846,191.44684651692705L354.05538461538464,174.19185260136925L354.57,216.1446388880412L355.59923076923076,183.228590520223L356.6284615384616,183.25633465449016L358.17230769230764,190.07174415588383L363.83307692307693,190.15404775937395L365.37692307692305,199.92789279619853L365.89153846153846,208.93673677444463L366.40615384615387,195.7248661835988L367.4353846153846,214.10640377998357L368.4646153846154,189.36328001022343L368.97923076923075,194.9338587443034L370.0084615384615,180.38349846204125L372.5815384615385,183.53347638448082L373.09615384615387,200.42375178337102L376.18384615384616,210.59653110504155L377.2130769230769,185.76472198168437L377.72769230769234,222.0845801353455L378.2423076923077,196.9655023733775L378.75692307692304,208.69584817886357L379.2715384615385,221.3075945695241L379.78615384615387,202.53943676948552L380.8153846153846,208.57333655357365L381.33,228.80153690973918L381.8446153846154,190.8217046578725L384.41769230769233,230.83443891207378L384.9323076923077,197.29918101628618L385.44692307692304,205.58574870427447L386.47615384615386,202.0824375470479L388.5346153846154,190.0198212782542L389.56384615384616,217.19559028943377L390.59307692307686,218.38373433748882L392.65153846153845,203.6095633824666L393.16615384615386,199.66567177772527L393.6807692307692,200.30732229550676L395.7392307692308,198.6232593377431L397.79769230769233,226.08081407547002L398.3123076923077,209.43999619483952L399.85615384615386,211.56538863182072L400.8853846153846,191.37973327636723L401.4,197.50040089289348L401.91461538461533,194.04113279978435L402.4292307692308,208.46949079831438L402.94384615384615,197.6186879793803L403.4584615384615,227.61291348139446L404.4876923076923,220.67978615760808L405.0023076923077,215.42904396057133L407.5753846153846,197.5346466223399L408.09,180.03229247728984L409.63384615384615,202.24183149337773L410.14846153846156,219.8509376366933L411.69230769230774,200.4620422840119L412.72153846153844,223.40125802357989L414.78,182.46931206385295L415.80923076923074,213.3657911936442L416.83846153846156,222.20262753168743L417.86769230769227,208.4331477801005L419.41153846153844,220.04796293576555L421.47,251.05553844769793L421.9846153846154,225.0402891953786L423.0138461538462,214.10733257929485L424.55769230769226,201.7303926467896L426.61615384615385,232.85811284383135L429.18923076923073,225.81421871185307L432.7915384615385,237.2308101177216L433.30615384615385,214.0326091766358L434.33538461538467,244.84813296000164L434.85,207.7211482048035L435.3646153846154,215.93727695147197L435.87923076923073,232.2146946112315L436.39384615384614,227.95138592720036L436.90846153846155,230.73796362876897L438.45230769230767,221.41887071927385L440.5107692307692,228.9063414255778L441.02538461538455,220.2566731293996L443.08384615384614,212.7994033813477L444.6276923076923,210.51593529383342L445.65692307692314,223.0585310777028L446.68615384615384,209.95970435142522L448.23,213.24786364237468L448.7446153846154,222.3201655864716L449.2592307692308,222.05291107495623L449.77384615384614,230.87560569445293L450.28846153846155,222.1356341362L451.3176923076923,221.45677172342937L451.83230769230767,219.33952875137334L452.346923076923,192.5907976945241L453.37615384615384,212.36139960289006L453.8907692307692,205.35154147148137L454.4053846153846,244.54935919443767L454.92,233.25782612164812L455.4346153846154,244.82221646308903L455.9492307692308,223.10437181790667L456.9784615384615,209.47064657211308L457.49307692307696,223.50645203590398L461.0953846153846,229.38077810605364L462.6392307692308,221.9623980840047L463.15384615384613,244.54947903951006L463.6684615384615,237.1925495783488L464.6976923076923,216.63971888224285L466.2415384615385,227.4800652186076L467.27076923076925,225.5659296830495L468.29999999999995,211.49315201441448L470.35846153846154,197.8748268604279L472.41692307692307,219.82891610463457L473.96076923076924,221.88183223406475L474.4753846153846,208.20049853324895L474.98999999999995,224.78657717704777L475.5046153846154,205.78870633443194L476.0192307692308,229.99135878880816L478.5923076923077,220.37502013842266L481.68,207.3102893352509L482.70923076923077,212.20772825876873L483.2238461538462,235.9159898281098L483.73846153846154,221.42764937082927L484.2530769230769,253.9041659355164L485.2823076923077,225.9473366260529L486.82615384615383,236.23519717852275L487.34076923076924,226.8307446161906L488.88461538461536,236.89434507687884L489.3992307692308,263.46118127504985L489.9138461538462,222.13982871373491L490.9430769230769,241.40477430025737L491.9723076923077,231.23289381663005L495.06,205.80677297910051L496.6038461538462,223.93280088106792L497.11846153846153,240.68219839731853L498.6623076923077,212.73795282046L499.17692307692306,233.11530036926274L499.69153846153847,242.99475887616472L500.7207692307693,219.89743752479558L501.23538461538465,230.26826082865398L501.75,230.87087181409197L504.32307692307694,249.6917614459992L506.38153846153847,221.95128245353703L506.8961538461538,241.97182126045232L507.92538461538464,225.22011672655742L508.95461538461535,255.83205369313555L509.9838461538462,246.15645165443425L510.4984615384615,233.09369829495745L511.01307692307694,245.44972526232402L511.5276923076923,249.15443606376652L512.0423076923076,214.81579672495525L512.5569230769231,206.63376390139263L513.5861538461538,229.89452397028606L514.6153846153846,227.66022232373552L515.6446153846153,241.9525262037913L517.1884615384615,251.019165468216L518.2176923076923,254.55651262601214L518.7323076923077,250.18486399650578L519.246923076923,246.51236155827837L521.3053846153847,241.31186440785723L522.3346153846154,235.71929410298662L522.8492307692308,230.4133632500966L523.8784615384616,235.3330034732819L525.4223076923076,230.04504938125615L527.4807692307692,234.46999910672503L529.0246153846153,243.9195433775584L530.5684615384615,234.43182845115666L531.083076923077,238.3635258197785L532.1123076923077,233.45122610727947L533.1415384615385,243.18636118570964L534.1707692307692,234.038856458664L536.7438461538461,261.3233848730723L537.7730769230769,232.3445467472077L538.2876923076923,236.51973934173589L538.8023076923076,269.5473634719849L539.3169230769231,247.76051802635197L540.8607692307693,233.32104439735417L543.9484615384615,216.27904513676958L544.9776923076923,255.09656448364262L545.4923076923077,240.46866443951922L546.006923076923,248.50379716555278L547.0361538461539,254.5735605875651L549.0946153846154,265.16459921201067L550.1238461538461,227.32432654698687L550.6384615384616,231.49814092318218L552.6969230769231,237.3304912567139L553.2115384615385,264.0012930552165L553.7261538461539,232.99961991310124L554.2407692307693,236.15559008916216L555.7846153846154,245.7533827145894L556.2992307692308,266.35478062629704L556.8138461538462,251.25684820810955L557.8430769230769,250.65468664169316L559.386923076923,234.0543763955434L560.4161538461539,246.58696511586504L560.9307692307692,261.4464058399201L561.9599999999999,256.9379540602366L562.4746153846154,258.86083828608196L564.0184615384616,246.92633639971416L565.5623076923077,256.4170174916585L566.0769230769231,262.80478981335955L569.6792307692308,227.83402764002483L570.1938461538462,225.53548903465276L570.7084615384615,216.85660850207012L571.2230769230769,247.35070780118303L571.7376923076923,243.36714747746782L572.2523076923077,251.3974564393361L572.766923076923,237.82608059247332L573.7961538461539,246.08241736094158L574.3107692307692,260.27536967595415L574.8253846153847,255.7250020821889L576.3692307692309,244.1805959065755L576.8838461538462,234.43602302869158L577.3984615384616,259.4628500461579L577.9130769230769,261.93177838325505L578.9423076923077,242.66143976847331L582.03,260.09392423629765L582.5446153846153,248.28546940485637L584.0884615384615,237.46492746671038L587.6907692307693,230.33986825942998L589.2346153846154,240.48703069686894L592.8369230769231,259.2800863107045L593.3515384615384,261.6582020441691L593.8661538461538,248.98860044479375L594.8953846153846,258.9991694609324L595.41,252.25054362614947L595.9246153846153,252.39456744194035L597.4684615384616,257.23915468851726L597.983076923077,254.79599304199223L599.0123076923077,244.76109547615056L600.0415384615385,257.9500756581624L600.5561538461538,248.8291166146596L602.6146153846154,238.45880265235905L603.1292307692307,242.12830896377568L605.1876923076923,255.98425693511967L605.7023076923076,282.21187165578203L606.2169230769231,232.90239559809368L606.7315384615384,245.60019075075786L608.2753846153846,280.6097527662913L608.7900000000001,250.3104616324107L609.3046153846154,281.9866228421529L610.8484615384616,251.26601635615032L611.363076923077,236.39944485028582L615.48,268.54423025449114L617.0238461538461,273.2799682140351L617.5384615384615,246.39683090845745L618.5676923076923,266.19227070808415L619.5969230769231,235.06688748995464L620.1115384615384,235.81783671379094L621.6553846153846,242.87988737424212L622.1700000000001,254.3904073556264L623.1992307692308,225.43263200124102L623.7138461538461,263.76244182586674L624.2284615384615,245.05753226280217L624.743076923077,279.2474139054616L626.286923076923,270.0645548820496L630.4038461538462,263.63519632021587L631.4330769230769,267.0952434062958L632.4623076923077,280.6177524248759L633.4915384615385,245.7911938349406L634.0061538461539,256.09640196164446L634.5207692307692,245.69414928754168L635.55,247.2421581268311L636.5792307692308,251.04259517987566L637.0938461538461,255.402169418335L637.6084615384615,249.54234460194903L639.1523076923077,251.7305658181508L640.1815384615385,266.98136062622075L643.7838461538462,259.88928877512615L644.2984615384615,242.1184517065684L645.8423076923077,276.13416849772136L646.8715384615384,276.73258490562444L649.9592307692308,267.38035483360295L650.4738461538461,241.78794895807903L651.503076923077,250.5726526896159L652.5323076923077,241.77105080286663L654.5907692307693,279.5028936386109L656.6492307692308,270.22071301142375L657.6784615384615,267.7019890467326L658.7076923076924,255.82546221415203L660.2515384615384,234.14117418924968L660.7661538461538,263.2765000184377L661.2807692307692,271.02007964452105L661.7953846153846,255.5558707237244L664.8830769230769,290.5664813836416L665.3976923076923,270.9269600232442L668.4853846153846,287.0814465999603L669.5146153846155,273.4135355472565L670.5438461538462,260.34470005035405L671.0584615384614,260.8197958787282L671.5730769230769,263.5464510440827L676.2046153846154,260.5467888037364L677.2338461538462,274.2391782124837L678.7776923076924,248.4534322738648L680.8361538461538,285.35145301818847L681.8653846153845,250.23837482134502L682.38,266.30885000228886L682.8946153846155,260.0331328233083L684.4384615384615,257.86953976949053L684.9530769230769,273.51890932718914L685.9823076923077,267.3930584112803L686.496923076923,249.43646148045855L687.0115384615384,260.56419630050664L688.5553846153846,276.6000662167867L689.07,263.04468968709307L694.2161538461538,281.1746724764506L695.2453846153846,264.7401079654694L695.76,254.73316426277165L697.3038461538462,260.11459751129155L697.8184615384615,284.82482380867003L698.333076923077,275.88830633163457L699.8769230769232,262.3606140136719L700.3915384615384,267.78734869956975L700.9061538461539,290.49679147402446L708.6253846153846,255.53927218119304L710.1692307692308,294.87242495218914L711.1984615384615,250.1019312063853L711.713076923077,278.6845315615336L712.7423076923077,255.26485692660015L713.2569230769232,270.43265902201335L714.8007692307691,280.09298081398015L716.3446153846153,274.21092473665874L716.8592307692307,278.8341581344605L717.3738461538462,260.296312602361L717.8884615384616,259.30860943794255L718.9176923076923,291.26436920166014L719.9469230769231,273.8437493960063L720.9761538461539,275.9750442028046L722.0053846153846,288.00320501327514L722.5200000000001,278.4606010437012L723.5492307692308,260.87765108744304L724.5784615384615,262.01683842341106L725.6076923076922,238.13336335817974L726.1223076923077,262.0955766359965L726.6369230769232,284.35011747678124L727.1515384615384,257.7151793162028L727.6661538461539,275.20782601038616L732.8123076923077,255.85044991175334L734.8707692307692,263.50459515253704L736.9292307692308,300.58409129778545L737.443846153846,258.2757846037547L737.9584615384615,282.0146665891011L738.9876923076922,258.5063365618388L740.5315384615384,252.98869938850407L742.0753846153847,266.4187778949738L743.1046153846154,260.9575278282166L744.1338461538461,285.2251962343852L744.6484615384616,262.85605354309087L745.6776923076923,267.26305646896367L747.7361538461539,270.56889290809636L748.2507692307692,302.9812024752299L748.7653846153846,267.65770629247027L749.7946153846153,278.20611003239947L750.3092307692308,284.0228205839793L751.853076923077,267.62265160878496L752.3676923076923,249.10922451019292L752.8823076923077,297.53652098973595L753.396923076923,277.6093115329743L753.9115384615385,248.99495223363238L754.4261538461539,264.41233169237773L756.9992307692308,290.009051990509L757.5138461538461,272.5053795496623L758.543076923077,288.65597116152446L760.6015384615384,288.2046945412954L761.1161538461539,277.79090677897136L762.1453846153846,278.5394890626271L764.2038461538461,293.17437008221947L765.233076923077,295.79714953104656L767.2915384615385,278.2361312230428L767.806153846154,279.6930278460185L768.3207692307692,269.85908050537114L768.8353846153847,278.3069296995799L769.8646153846154,270.5131050268809L771.4084615384616,244.65979642868047L771.9230769230769,271.00090443293254L772.9523076923077,260.78743770917254L773.4669230769231,285.0428219954173L773.9815384615384,315.12923831939696L777.0692307692308,301.53287477493285L778.0984615384616,283.9644260724386L778.6130769230768,289.118273528417L779.6423076923078,273.08827602068584L780.156923076923,281.0857174714406L781.7007692307692,288.2706692536672L782.2153846153847,293.6664239883423L784.7884615384615,279.9145614624024L785.3030769230769,285.305162858963L785.8176923076923,296.7989045302073L787.3615384615384,294.02940475145977L788.3907692307693,276.9803046703339L788.9053846153847,284.55933701197307L789.42,286.35197960535686L789.9346153846154,301.5499227364858L790.4492307692309,273.59872614542644L790.9638461538461,256.89681723912554L792.5076923076923,282.19221706390385L794.0515384615385,281.229621442159L796.6246153846154,287.001629781723L797.1392307692307,267.25107196172075L797.6538461538462,261.4308559417725L798.1684615384615,269.25670921007793L800.2269230769231,320.7962324142456L802.2853846153847,280.8149874528249L803.3146153846154,308.0020219008128L803.8292307692307,303.29351873397826L805.8876923076923,272.2799509684245L807.9461538461538,273.87383050918584L811.5484615384617,300.6117755095164L812.0630769230769,298.2506478150686L812.5776923076924,293.9733472188314L814.1215384615385,302.6176524480184L815.1507692307692,288.02753356297814L815.6653846153847,300.7161306063334L816.6946153846154,259.3327582200368L817.2092307692308,306.32314224243163L817.7238461538461,277.2314400196076L818.753076923077,308.86964030265807L819.2676923076923,275.3611677805583L820.8115384615385,286.9102778752645L829.56,281.44857838948565L830.0746153846154,292.28535933494567L830.5892307692308,290.0008725643158L831.1038461538461,298.59921720822655L833.1623076923076,282.952933661143L834.7061538461538,291.77757576306664L835.2207692307693,276.6579214255015L836.7646153846155,295.3240611076355L837.2792307692307,274.664208761851L837.7938461538462,275.91344383557635L839.8523076923077,285.61876745224L840.3669230769231,291.71429756482445L840.8815384615385,309.7739312966665L841.9107692307692,281.8173716386159L842.4253846153846,285.1915197690328L842.94,275.9134737968445L843.9692307692308,281.35072488784795L844.9984615384615,283.8750516096751L848.0861538461538,313.63836561838787L849.1153846153845,295.43890264829L851.6884615384615,294.6682988325755L852.2030769230769,284.1379018147787L856.8346153846153,269.53783578872685L857.3492307692308,286.69770267804466L863.01,273.88968002001445L865.0684615384615,292.05807315508525L865.583076923077,306.14151703516643L867.1269230769232,289.6959267775218L867.6415384615384,308.1045793215434L869.1853846153846,296.27928625742595L870.2146153846153,277.6991953372956L870.7292307692308,308.33582038879393L871.2438461538462,296.5359644412994L874.8461538461538,302.0936897913615L875.3607692307693,276.46284360885625L875.8753846153846,293.171733490626L876.39,288.3031772295634L877.4192307692308,294.43804648717247L877.9338461538462,304.0831179936727L878.963076923077,306.57268964449565L879.4776923076922,271.4465483347575L879.9923076923077,290.1468139012655L880.5069230769232,279.0150043487549L883.08,273.28880678812664L884.1092307692307,290.89081211090087L886.6823076923077,291.96729051272075L887.1969230769231,309.81485838890075L887.7115384615385,293.6829626083374L888.7407692307692,326.30236446062725L892.343076923077,273.6046884377797L893.3723076923077,279.1454257488251L898.5184615384616,279.25487426122027L899.5476923076923,295.1996019999186L900.0623076923077,292.8752967039744L901.0915384615384,297.5692386945089L901.6061538461539,293.1062980810801L902.6353846153846,311.53139936129253L903.1500000000001,275.2258027712504L906.2376923076922,310.93876547813414L906.7523076923077,338.7203812917074L909.84,307.95716988245647L910.3546153846154,270.4433551947276L914.9861538461539,295.978834660848L915.5007692307692,286.61423058509826L917.0446153846153,291.27452607154845L918.0738461538461,270.84855138460796L920.1323076923077,296.83692537943523L923.2199999999999,310.13685213724773L924.2492307692308,285.85450270970665L924.7638461538461,310.8704837481181L925.793076923077,289.799772532781L927.336923076923,273.641960255305L928.3661538461539,314.3296020348867L928.8807692307691,302.1818058808645L930.9392307692308,296.27077725728356L931.4538461538461,286.46721064249675L932.483076923077,309.46976450284325L932.9976923076923,304.81279471715294L933.5123076923078,292.1284521738688L934.026923076923,293.2092449982961L935.5707692307692,303.7699328581492L936.0853846153847,299.50665413538616L936.5999999999999,291.3025398572286L938.6584615384616,330.1530165990194L939.6876923076923,300.8452337106069L940.2023076923077,325.28949383099877L940.7169230769231,307.81272660891216L941.7461538461539,309.6739505449931L942.7753846153846,289.681725136439L943.8046153846154,293.6124937057495L945.3484615384616,316.5817905584971L945.8630769230768,316.98560853004454L946.8923076923078,298.81922279993694L947.406923076923,279.55259938240056L947.9215384615385,335.87618807156883L949.4653846153847,313.62518266042076L950.4946153846154,328.56662737528484L951.0092307692308,303.646222782135L952.5530769230769,298.9212708791097L953.0676923076923,313.7913778146108L954.6115384615384,324.1090498288473L956.1553846153847,307.2558964411418L956.67,312.92870302200316L957.1846153846154,325.6705112775167L957.6992307692309,309.8940759817759L959.2430769230768,309.9564253807068L961.3015384615385,294.0148136138916L962.3307692307692,275.33414271672564L962.8453846153847,300.70902978579204L963.36,310.9428402105967L964.9038461538462,315.3087063153585L965.4184615384615,282.7334673722585L966.4476923076924,301.7075190067291L968.5061538461538,323.91139534314476L969.0207692307692,273.53898337682085L969.5353846153847,312.2919961134593L971.0792307692307,304.299737962087L973.1376923076923,290.4398950258891L973.6523076923077,313.0350954850515L974.6815384615385,311.33563243548076L975.1961538461538,316.03224097887676L975.7107692307692,335.32780698140465L976.2253846153847,272.12981505393986L977.2546153846154,301.6728238582611L978.7984615384617,316.1780325094859L979.3130769230769,319.216254901886L979.8276923076924,306.5747270107269L980.3423076923076,319.28109108606975L982.4007692307692,290.8743933359782L982.9153846153847,302.9411742210388L985.4884615384616,325.34024821917217L986.5176923076923,324.69416343371074L987.0323076923077,304.3010562578837L987.5469230769231,315.70617249806725L989.6053846153845,297.08134940465294L991.1492307692307,297.5846387863159L992.1784615384616,297.2696859359741L993.7223076923076,322.8569983959198L994.2369230769231,311.3359020868937L994.7515384615385,309.2787614186605L995.2661538461538,306.0244883219401L995.7807692307692,306.9917878627777L996.81,305.52125886281334L997.8392307692308,288.5966178894043L999.3830769230769,325.06909874280296L999.8976923076923,313.8758985519409L1000.9269230769231,316.93788022994994L1001.4415384615386,308.32985809644066L1001.9561538461538,306.0696998755137L1003.5,305.3375962893168L1004.5292307692307,296.8033987204234L1005.0438461538462,320.0281453450521L1005.5584615384614,309.0285548686981L1006.0730769230769,310.8981379985809L1009.6753846153846,308.9643179098765L1010.19,318.98917845090233L1011.7338461538462,323.8308594544729L1014.3069230769231,316.0281962076823L1016.3653846153845,327.55249837239586L1017.3946153846155,326.41136355400084L1019.4530769230769,307.34742811520897L1019.9676923076923,318.480765692393L1020.996923076923,308.66509472529094L1023.0553846153846,306.14064815839134L1023.57,312.35749144554137L1024.0846153846153,300.7980746746063L1025.1138461538462,318.789067141215L1025.6284615384616,306.2102781454722L1026.143076923077,339.8198999087016L1028.2015384615383,314.31590973536174L1030.26,332.44879876772563L1031.2892307692307,339.111675453186L1031.8038461538463,330.87774971326195L1032.833076923077,328.9317054271698L1034.8915384615384,328.00722053845726L1035.9207692307693,304.5586332798004L1036.4353846153847,307.7638298193614L1037.9792307692308,350.05577766100566L1039.523076923077,331.58813138008117L1041.5815384615385,325.8837156613668L1042.6107692307694,294.7535985628764L1044.6692307692308,306.2229517618815L1046.7276923076922,292.64543385505675L1047.2423076923076,337.39339672724407L1047.7569230769232,332.34660088221233L1049.8153846153846,331.0084707260132L1050.3300000000002,316.6434208869934L1050.8446153846153,334.68262103398644L1051.8738461538462,316.08461327552794L1052.3884615384616,287.7509910583496L1052.903076923077,325.200598748525L1053.9323076923076,318.773397397995L1054.4469230769232,317.3558998425802L1055.9907692307693,335.58592330614727L1056.5053846153846,320.47948188781737L1057.5346153846153,310.8088234583537L1058.5638461538463,329.1855372905731L1059.0784615384616,334.98624852498375L1059.593076923077,339.6878606001536L1063.1953846153847,293.1721529483795L1064.2246153846154,324.6036204814911L1064.7392307692307,293.86938161849974L1067.826923076923,332.0496547540029L1068.3415384615384,330.9650268872579L1068.8561538461538,318.1851678212484L1069.3707692307692,301.34145223299663L1069.8853846153845,295.0799966176351L1070.9146153846154,337.3559151808421L1072.4584615384615,316.1831858476003L1076.0607692307692,280.50725526809697L1076.5753846153846,323.1716216723124L1077.0900000000001,313.67252146402996L1079.663076923077,345.1615445931753L1081.7215384615386,339.8660702228546L1083.2653846153846,338.49201650619506L1083.78,318.8384433110555L1085.323846153846,318.3267048517863L1085.8384615384616,320.5022824128469L1086.353076923077,325.9366272608439L1086.8676923076923,319.1444976647695L1087.3823076923077,291.21798915863036L1088.926153846154,296.43712221781414L1089.440769230769,340.4455211480459L1089.9553846153847,314.8832563082377L1090.47,312.1170522689819L1092.5284615384614,336.24821713765465L1093.043076923077,331.43176352183025L1093.5576923076924,331.1195671081543L1095.1015384615384,336.6547915458679L1096.1307692307691,305.50043578147887L1097.1599999999999,330.70951719284056L1098.1892307692308,329.5084897994995L1098.7038461538461,341.94220633506774L1099.2184615384615,336.8736286481222L1100.2476923076922,324.49324316978453L1100.7623076923078,337.0874022960663L1103.3353846153846,304.2560544331869L1104.8792307692308,302.93868743578594L1105.9084615384616,324.12756589253746L1107.4523076923078,324.6652807712555L1108.996153846154,342.3818879445394L1109.5107692307693,325.93093461990355L1110.54,309.1255095322927L1111.569230769231,304.7236599445343L1114.656923076923,329.3319580078125L1115.1715384615384,316.26159448623656L1116.2007692307693,324.5444469769796L1117.23,339.30669334729515L1119.8030769230768,334.4563535372416L1121.8615384615384,335.4792312304179L1122.3761538461538,323.38440659840904L1122.8907692307691,330.8717574596405L1123.4053846153847,333.39027169545494L1129.5807692307692,337.1075961907705L1130.61,320.31265754699706L1131.6392307692306,315.62464788754784L1132.6684615384615,316.52624236742656L1133.183076923077,315.95536036491393L1134.726923076923,334.450301361084L1135.2415384615385,340.7881282488505L1135.756153846154,319.1718822638194L1136.2707692307692,322.6324686527252L1136.7853846153846,346.59066712061565L1137.3,346.94289178848265L1137.8146153846153,333.8300431887309L1138.8438461538462,338.8062502861023L1139.3584615384616,328.0153999646505L1139.873076923077,302.60617728233336L1140.9023076923077,340.35138284365337L1143.4753846153847,317.3893665790558L1145.0192307692307,346.68522488276164L1146.0484615384617,351.00225412050884L1146.5630769230768,333.4293411890666L1147.5923076923077,329.78805839220684L1149.1361538461538,355.66051224072777L1150.68,337.2319354534149L1151.7092307692308,340.8119174957275L1153.2530769230768,310.2802168051402L1153.7676923076924,311.7014295578003L1154.7969230769231,352.5400012254715L1155.3115384615385,344.7429257551829L1156.8553846153845,334.7058410167694L1157.8846153846155,333.84580281575523L1158.3992307692308,349.54628629684447L1162.5161538461539,310.6155433177948L1163.0307692307692,326.1336525599162L1164.06,325.4142225901286L1166.633076923077,340.5842418193817L1169.2061538461537,320.1417285124461L1169.7207692307693,331.96750095685326L1170.2353846153846,346.8593897342682L1171.2646153846154,302.90537050565086L1171.7792307692307,318.613643916448L1172.8084615384614,347.8998846530914L1173.8376923076924,332.2232803026835L1175.3815384615386,350.34634203910826L1175.8961538461538,327.3215269565582L1177.9546153846154,345.93364647229515L1180.5276923076924,338.6622564315796L1181.556923076923,301.81849554379784L1184.6446153846155,340.75058677991234L1185.1592307692308,309.1685638745626L1185.6738461538462,314.78702071507774L1186.1884615384615,350.95668303171794L1186.7030769230769,325.2412561893463L1188.2469230769232,362.2509425799052L1189.2761538461539,326.55571694374083L1190.82,351.1110135237376L1191.3346153846153,344.2369698206584L1192.8784615384616,329.825300248464L1193.9076923076923,309.7566736062368L1194.9369230769232,328.7243734518687L1195.4515384615383,318.5643576304118L1195.966153846154,325.30423477490746L1198.0246153846153,332.41754916508995L1200.083076923077,344.53340660731L1200.5976923076923,332.9641625404358L1201.1123076923077,365.98323272864025L1203.1707692307693,323.7477169354757L1203.6853846153847,330.59036122957866L1204.7146153846154,334.3880718072256L1205.2292307692308,339.0674226601919L1206.2584615384615,344.71611042022704L1206.773076923077,337.2223778088888L1207.2876923076922,343.07630025545757L1208.316923076923,331.6482636451721L1208.8315384615385,351.60351684888207L1209.3461538461538,323.5389468193054L1209.8607692307694,379.0100475470225L1211.4046153846152,337.99202286402385L1212.4338461538462,337.0371872107188L1212.9484615384615,326.2316558678945L1216.0361538461539,327.1426282246908L1216.5507692307692,351.949015212059L1217.0653846153846,321.4075022061666L1219.1238461538462,324.256968609492L1220.153076923077,326.2189822514852L1221.1823076923076,357.38816884358727L1223.2407692307693,316.02073585192363L1226.843076923077,359.0691008488337L1228.386923076923,342.93098810513817L1229.416153846154,334.00423800150554L1230.4453846153847,320.24359682401024L1230.96,328.19181191126506L1231.9892307692307,361.057150832812L1233.0184615384615,336.4278649012248L1234.0476923076922,323.257101170222L1234.5623076923077,318.72321227391564L1235.076923076923,327.4442483107249L1235.5915384615384,327.60792671839397L1236.6207692307692,364.1975411494573L1237.1353846153845,336.05781327883403L1238.6792307692308,356.0902766704559L1239.1938461538462,363.74364291826885L1240.7376923076922,345.52063039143883L1242.2815384615385,362.61411809126537L1244.3400000000001,325.05552628835045L1247.4276923076923,350.6373857975006L1247.9423076923076,327.67962403297423L1249.486153846154,361.0901082277298L1250.0007692307693,358.6926075538L1251.03,336.6882283210754L1252.059230769231,352.78911418914794L1252.573846153846,306.9857956091563L1253.603076923077,320.2798199971517L1254.1176923076923,315.66926021575927L1255.146923076923,327.94361276626586L1255.6615384615384,356.47063496907555L1256.176153846154,320.64576692581176L1256.690769230769,334.95002535184227L1257.72,330.86222977638243L1258.7492307692307,333.8276762485504L1259.263846153846,358.4993573745092L1261.3223076923077,327.7207608540853L1261.836923076923,342.20086196263634L1262.8661538461538,343.6815777937571L1264.4099999999999,335.2466419061025L1265.4392307692308,308.3719836393992L1266.983076923077,341.3748897234599L1270.0707692307692,367.92127735614775L1273.1584615384616,326.32438599268596L1275.216923076923,320.7509609381358L1276.7607692307693,313.97902523676555L1279.333846153846,339.903671614329L1280.363076923077,334.8857284704844L1281.906923076923,342.5209082285563L1284.9946153846154,317.7588788986206L1285.5092307692307,325.5598942756653L1286.5384615384617,368.8806970834732L1288.0823076923077,329.6399598439535L1288.596923076923,316.95352001190184L1289.6261538461538,334.9166185379028L1290.1407692307691,333.2946952501933L1290.6553846153847,342.3361970106761L1295.2869230769231,344.46617352167766L1295.8015384615385,314.56078317960106L1296.3161538461538,358.2677417914073L1296.8307692307692,310.68742039998375L1297.86,346.81564628283184L1298.8892307692306,368.0147565126419L1300.433076923077,343.5916640281677L1300.9476923076923,344.2754400889079L1303.006153846154,337.13779714902245L1304.0353846153846,327.2558818181356L1304.55,336.2169675350189L1305.0646153846153,340.3088977654775L1305.5792307692307,308.91476197242736L1306.6084615384616,331.5021125793457" style="fill: none;" fill="none"></path></g></g></g></g></g></g><g transform="translate(40, 377)" clip-path="url(#clip_1)"><clipPath id="clip_1"><rect width="1338" height="23"></rect></clipPath><g><g><line x1="0" y1="0" x2="0" y2="5" style="visibility: inherit;" fill="rgb(0, 0, 0)" stroke="rgb(204, 204, 204)" stroke-width="1px"></line><line x1="102.92307692307693" y1="0" x2="102.92307692307693" y2="5" style="visibility: inherit;" fill="rgb(0, 0, 0)" stroke="rgb(204, 204, 204)" stroke-width="1px"></line><line x1="205.84615384615387" y1="0" x2="205.84615384615387" y2="5" style="visibility: inherit;" fill="rgb(0, 0, 0)" stroke="rgb(204, 204, 204)" stroke-width="1px"></line><line x1="308.7692307692308" y1="0" x2="308.7692307692308" y2="5" style="visibility: inherit;" fill="rgb(0, 0, 0)" stroke="rgb(204, 204, 204)" stroke-width="1px"></line><line x1="411.69230769230774" y1="0" x2="411.69230769230774" y2="5" style="visibility: inherit;" fill="rgb(0, 0, 0)" stroke="rgb(204, 204, 204)" stroke-width="1px"></line><line x1="514.6153846153846" y1="0" x2="514.6153846153846" y2="5" style="visibility: inherit;" fill="rgb(0, 0, 0)" stroke="rgb(204, 204, 204)" stroke-width="1px"></line><line x1="617.5384615384615" y1="0" x2="617.5384615384615" y2="5" style="visibility: inherit;" fill="rgb(0, 0, 0)" stroke="rgb(204, 204, 204)" stroke-width="1px"></line><line x1="720.4615384615385" y1="0" x2="720.4615384615385" y2="5" style="visibility: inherit;" fill="rgb(0, 0, 0)" stroke="rgb(204, 204, 204)" stroke-width="1px"></line><line x1="823.3846153846155" y1="0" x2="823.3846153846155" y2="5" style="visibility: inherit;" fill="rgb(0, 0, 0)" stroke="rgb(204, 204, 204)" stroke-width="1px"></line><line x1="926.3076923076923" y1="0" x2="926.3076923076923" y2="5" style="visibility: inherit;" fill="rgb(0, 0, 0)" stroke="rgb(204, 204, 204)" stroke-width="1px"></line><line x1="1029.2307692307693" y1="0" x2="1029.2307692307693" y2="5" style="visibility: inherit;" fill="rgb(0, 0, 0)" stroke="rgb(204, 204, 204)" stroke-width="1px"></line><line x1="1132.1538461538462" y1="0" x2="1132.1538461538462" y2="5" style="visibility: inherit;" fill="rgb(0, 0, 0)" stroke="rgb(204, 204, 204)" stroke-width="1px"></line><line x1="1235.076923076923" y1="0" x2="1235.076923076923" y2="5" style="visibility: inherit;" fill="rgb(0, 0, 0)" stroke="rgb(204, 204, 204)" stroke-width="1px"></line><line x1="1338" y1="0" x2="1338" y2="5" style="visibility: inherit;" fill="rgb(0, 0, 0)" stroke="rgb(204, 204, 204)" stroke-width="1px"></line></g><g transform="translate(0, 8)"><text x="0" y="0" dx="0em" dy="0.95em" style="text-anchor: middle; visibility: hidden; font-family: Roboto, sans-serif; font-size: 12px; font-weight: 200;" fill="rgb(255, 255, 255)" stroke="none" stroke-width="1px">-2k</text><text x="102.92307692307693" y="0" dx="0em" dy="0.95em" style="text-anchor: middle; visibility: inherit; font-family: Roboto, sans-serif; font-size: 12px; font-weight: 200;" fill="rgb(255, 255, 255)" stroke="none" stroke-width="1px">0</text><text x="205.84615384615387" y="0" dx="0em" dy="0.95em" style="text-anchor: middle; visibility: inherit; font-family: Roboto, sans-serif; font-size: 12px; font-weight: 200;" fill="rgb(255, 255, 255)" stroke="none" stroke-width="1px">2k</text><text x="308.7692307692308" y="0" dx="0em" dy="0.95em" style="text-anchor: middle; visibility: inherit; font-family: Roboto, sans-serif; font-size: 12px; font-weight: 200;" fill="rgb(255, 255, 255)" stroke="none" stroke-width="1px">4k</text><text x="411.69230769230774" y="0" dx="0em" dy="0.95em" style="text-anchor: middle; visibility: inherit; font-family: Roboto, sans-serif; font-size: 12px; font-weight: 200;" fill="rgb(255, 255, 255)" stroke="none" stroke-width="1px">6k</text><text x="514.6153846153846" y="0" dx="0em" dy="0.95em" style="text-anchor: middle; visibility: inherit; font-family: Roboto, sans-serif; font-size: 12px; font-weight: 200;" fill="rgb(255, 255, 255)" stroke="none" stroke-width="1px">8k</text><text x="617.5384615384615" y="0" dx="0em" dy="0.95em" style="text-anchor: middle; visibility: inherit; font-family: Roboto, sans-serif; font-size: 12px; font-weight: 200;" fill="rgb(255, 255, 255)" stroke="none" stroke-width="1px">10k</text><text x="720.4615384615385" y="0" dx="0em" dy="0.95em" style="text-anchor: middle; visibility: inherit; font-family: Roboto, sans-serif; font-size: 12px; font-weight: 200;" fill="rgb(255, 255, 255)" stroke="none" stroke-width="1px">12k</text><text x="823.3846153846155" y="0" dx="0em" dy="0.95em" style="text-anchor: middle; visibility: inherit; font-family: Roboto, sans-serif; font-size: 12px; font-weight: 200;" fill="rgb(255, 255, 255)" stroke="none" stroke-width="1px">14k</text><text x="926.3076923076923" y="0" dx="0em" dy="0.95em" style="text-anchor: middle; visibility: inherit; font-family: Roboto, sans-serif; font-size: 12px; font-weight: 200;" fill="rgb(255, 255, 255)" stroke="none" stroke-width="1px">16k</text><text x="1029.2307692307693" y="0" dx="0em" dy="0.95em" style="text-anchor: middle; visibility: inherit; font-family: Roboto, sans-serif; font-size: 12px; font-weight: 200;" fill="rgb(255, 255, 255)" stroke="none" stroke-width="1px">18k</text><text x="1132.1538461538462" y="0" dx="0em" dy="0.95em" style="text-anchor: middle; visibility: inherit; font-family: Roboto, sans-serif; font-size: 12px; font-weight: 200;" fill="rgb(255, 255, 255)" stroke="none" stroke-width="1px">20k</text><text x="1235.076923076923" y="0" dx="0em" dy="0.95em" style="text-anchor: middle; visibility: inherit; font-family: Roboto, sans-serif; font-size: 12px; font-weight: 200;" fill="rgb(255, 255, 255)" stroke="none" stroke-width="1px">22k</text><text x="1338" y="0" dx="0em" dy="0.95em" style="text-anchor: middle; visibility: hidden; font-family: Roboto, sans-serif; font-size: 12px; font-weight: 200;" fill="rgb(255, 255, 255)" stroke="none" stroke-width="1px">24k</text></g><line x1="0" y1="0" x2="1338" y2="0" fill="rgb(0, 0, 0)" stroke="rgb(204, 204, 204)" stroke-width="1px"></line></g></g></g></g></svg>