<svg viewBox="0 0 1393 400" xmlns="http://www.w3.org/2000/svg"><g><g><g><g><g><line x1="60" y1="377" x2="55" y2="377" style="visibility: inherit;" fill="rgb(0, 0, 0)" stroke="rgb(204, 204, 204)" stroke-width="1px"></line><line x1="60" y1="345.5833333333333" x2="55" y2="345.5833333333333" style="visibility: inherit;" fill="rgb(0, 0, 0)" stroke="rgb(204, 204, 204)" stroke-width="1px"></line><line x1="60" y1="314.16666666666663" x2="55" y2="314.16666666666663" style="visibility: inherit;" fill="rgb(0, 0, 0)" stroke="rgb(204, 204, 204)" stroke-width="1px"></line><line x1="60" y1="282.75" x2="55" y2="282.75" style="visibility: inherit;" fill="rgb(0, 0, 0)" stroke="rgb(204, 204, 204)" stroke-width="1px"></line><line x1="60" y1="251.33333333333331" x2="55" y2="251.33333333333331" style="visibility: inherit;" fill="rgb(0, 0, 0)" stroke="rgb(204, 204, 204)" stroke-width="1px"></line><line x1="60" y1="219.91666666666663" x2="55" y2="219.91666666666663" style="visibility: inherit;" fill="rgb(0, 0, 0)" stroke="rgb(204, 204, 204)" stroke-width="1px"></line><line x1="60" y1="188.49999999999997" x2="55" y2="188.49999999999997" style="visibility: inherit;" fill="rgb(0, 0, 0)" stroke="rgb(204, 204, 204)" stroke-width="1px"></line><line x1="60" y1="157.08333333333337" x2="55" y2="157.08333333333337" style="visibility: inherit;" fill="rgb(0, 0, 0)" stroke="rgb(204, 204, 204)" stroke-width="1px"></line><line x1="60" y1="125.66666666666664" x2="55" y2="125.66666666666664" style="visibility: inherit;" fill="rgb(0, 0, 0)" stroke="rgb(204, 204, 204)" stroke-width="1px"></line><line x1="60" y1="94.25" x2="55" y2="94.25" style="visibility: inherit;" fill="rgb(0, 0, 0)" stroke="rgb(204, 204, 204)" stroke-width="1px"></line><line x1="60" y1="62.833333333333364" x2="55" y2="62.833333333333364" style="visibility: inherit;" fill="rgb(0, 0, 0)" stroke="rgb(204, 204, 204)" stroke-width="1px"></line><line x1="60" y1="31.41666666666664" x2="55" y2="31.41666666666664" style="visibility: inherit;" fill="rgb(0, 0, 0)" stroke="rgb(204, 204, 204)" stroke-width="1px"></line><line x1="60" y1="0" x2="55" y2="0" style="visibility: inherit;" fill="rgb(0, 0, 0)" stroke="rgb(204, 204, 204)" stroke-width="1px"></line></g><g transform="translate(50, 0)"><text x="0" y="377" dx="0em" dy="0.3em" style="text-anchor: end; visibility: hidden; font-family: Roboto, sans-serif; font-size: 12px; font-weight: 200;" fill="rgb(255, 255, 255)" stroke="none" stroke-width="1px">-0.01</text><text x="0" y="345.5833333333333" dx="0em" dy="0.3em" style="text-anchor: end; visibility: inherit; font-family: Roboto, sans-serif; font-size: 12px; font-weight: 200;" fill="rgb(255, 255, 255)" stroke="none" stroke-width="1px">0</text><text x="0" y="314.16666666666663" dx="0em" dy="0.3em" style="text-anchor: end; visibility: inherit; font-family: Roboto, sans-serif; font-size: 12px; font-weight: 200;" fill="rgb(255, 255, 255)" stroke="none" stroke-width="1px">0.01</text><text x="0" y="282.75" dx="0em" dy="0.3em" style="text-anchor: end; visibility: inherit; font-family: Roboto, sans-serif; font-size: 12px; font-weight: 200;" fill="rgb(255, 255, 255)" stroke="none" stroke-width="1px">0.02</text><text x="0" y="251.33333333333331" dx="0em" dy="0.3em" style="text-anchor: end; visibility: inherit; font-family: Roboto, sans-serif; font-size: 12px; font-weight: 200;" fill="rgb(255, 255, 255)" stroke="none" stroke-width="1px">0.03</text><text x="0" y="219.91666666666663" dx="0em" dy="0.3em" style="text-anchor: end; visibility: inherit; font-family: Roboto, sans-serif; font-size: 12px; font-weight: 200;" fill="rgb(255, 255, 255)" stroke="none" stroke-width="1px">0.04</text><text x="0" y="188.49999999999997" dx="0em" dy="0.3em" style="text-anchor: end; visibility: inherit; font-family: Roboto, sans-serif; font-size: 12px; font-weight: 200;" fill="rgb(255, 255, 255)" stroke="none" stroke-width="1px">0.05</text><text x="0" y="157.08333333333337" dx="0em" dy="0.3em" style="text-anchor: end; visibility: inherit; font-family: Roboto, sans-serif; font-size: 12px; font-weight: 200;" fill="rgb(255, 255, 255)" stroke="none" stroke-width="1px">0.06</text><text x="0" y="125.66666666666664" dx="0em" dy="0.3em" style="text-anchor: end; visibility: inherit; font-family: Roboto, sans-serif; font-size: 12px; font-weight: 200;" fill="rgb(255, 255, 255)" stroke="none" stroke-width="1px">0.07</text><text x="0" y="94.25" dx="0em" dy="0.3em" style="text-anchor: end; visibility: inherit; font-family: Roboto, sans-serif; font-size: 12px; font-weight: 200;" fill="rgb(255, 255, 255)" stroke="none" stroke-width="1px">0.08</text><text x="0" y="62.833333333333364" dx="0em" dy="0.3em" style="text-anchor: end; visibility: inherit; font-family: Roboto, sans-serif; font-size: 12px; font-weight: 200;" fill="rgb(255, 255, 255)" stroke="none" stroke-width="1px">0.09</text><text x="0" y="31.41666666666664" dx="0em" dy="0.3em" style="text-anchor: end; visibility: inherit; font-family: Roboto, sans-serif; font-size: 12px; font-weight: 200;" fill="rgb(255, 255, 255)" stroke="none" stroke-width="1px">0.1</text><text x="0" y="0" dx="0em" dy="0.3em" style="text-anchor: end; visibility: hidden; font-family: Roboto, sans-serif; font-size: 12px; font-weight: 200;" fill="rgb(255, 255, 255)" stroke="none" stroke-width="1px">0.11</text></g><line x1="60" y1="0" x2="60" y2="377" fill="rgb(0, 0, 0)" stroke="rgb(204, 204, 204)" stroke-width="1px"></line></g></g><g transform="translate(60, 0)" clip-path="url(#clip_0)"><clipPath id="clip_0"><rect width="1333" height="377"></rect></clipPath><g><g><g><line x1="0" y1="0" x2="0" y2="377" fill="rgb(0, 0, 0)" stroke="rgb(189, 189, 189)" stroke-width="1px" opacity="0.25"></line><line x1="102.53846153846155" y1="0" x2="102.53846153846155" y2="377" fill="rgb(0, 0, 0)" stroke="rgb(189, 189, 189)" stroke-width="1px" opacity="0.25"></line><line x1="205.0769230769231" y1="0" x2="205.0769230769231" y2="377" fill="rgb(0, 0, 0)" stroke="rgb(189, 189, 189)" stroke-width="1px" opacity="0.25"></line><line x1="307.61538461538464" y1="0" x2="307.61538461538464" y2="377" fill="rgb(0, 0, 0)" stroke="rgb(189, 189, 189)" stroke-width="1px" opacity="0.25"></line><line x1="410.1538461538462" y1="0" x2="410.1538461538462" y2="377" fill="rgb(0, 0, 0)" stroke="rgb(189, 189, 189)" stroke-width="1px" opacity="0.25"></line><line x1="512.6923076923077" y1="0" x2="512.6923076923077" y2="377" fill="rgb(0, 0, 0)" stroke="rgb(189, 189, 189)" stroke-width="1px" opacity="0.25"></line><line x1="615.2307692307693" y1="0" x2="615.2307692307693" y2="377" fill="rgb(0, 0, 0)" stroke="rgb(189, 189, 189)" stroke-width="1px" opacity="0.25"></line><line x1="717.7692307692307" y1="0" x2="717.7692307692307" y2="377" fill="rgb(0, 0, 0)" stroke="rgb(189, 189, 189)" stroke-width="1px" opacity="0.25"></line><line x1="820.3076923076924" y1="0" x2="820.3076923076924" y2="377" fill="rgb(0, 0, 0)" stroke="rgb(189, 189, 189)" stroke-width="1px" opacity="0.25"></line><line x1="922.8461538461538" y1="0" x2="922.8461538461538" y2="377" fill="rgb(0, 0, 0)" stroke="rgb(189, 189, 189)" stroke-width="1px" opacity="0.25"></line><line x1="1025.3846153846155" y1="0" x2="1025.3846153846155" y2="377" fill="rgb(0, 0, 0)" stroke="rgb(189, 189, 189)" stroke-width="1px" opacity="0.25"></line><line x1="1127.923076923077" y1="0" x2="1127.923076923077" y2="377" fill="rgb(0, 0, 0)" stroke="rgb(189, 189, 189)" stroke-width="1px" opacity="0.25"></line><line x1="1230.4615384615386" y1="0" x2="1230.4615384615386" y2="377" fill="rgb(0, 0, 0)" stroke="rgb(189, 189, 189)" stroke-width="1px" opacity="0.25"></line><line x1="1333" y1="0" x2="1333" y2="377" fill="rgb(0, 0, 0)" stroke="rgb(189, 189, 189)" stroke-width="1px" opacity="0.25"></line></g><g><line x1="0" y1="377" x2="1333" y2="377" fill="rgb(0, 0, 0)" stroke="rgb(189, 189, 189)" stroke-width="1px" opacity="0.25"></line><line x1="0" y1="345.5833333333333" x2="1333" y2="345.5833333333333" fill="rgb(0, 0, 0)" stroke="rgb(189, 189, 189)" stroke-width="1px" opacity="0.25"></line><line x1="0" y1="314.16666666666663" x2="1333" y2="314.16666666666663" fill="rgb(0, 0, 0)" stroke="rgb(189, 189, 189)" stroke-width="1px" opacity="0.25"></line><line x1="0" y1="282.75" x2="1333" y2="282.75" fill="rgb(0, 0, 0)" stroke="rgb(189, 189, 189)" stroke-width="1px" opacity="0.25"></line><line x1="0" y1="251.33333333333331" x2="1333" y2="251.33333333333331" fill="rgb(0, 0, 0)" stroke="rgb(189, 189, 189)" stroke-width="1px" opacity="0.25"></line><line x1="0" y1="219.91666666666663" x2="1333" y2="219.91666666666663" fill="rgb(0, 0, 0)" stroke="rgb(189, 189, 189)" stroke-width="1px" opacity="0.25"></line><line x1="0" y1="188.49999999999997" x2="1333" y2="188.49999999999997" fill="rgb(0, 0, 0)" stroke="rgb(189, 189, 189)" stroke-width="1px" opacity="0.25"></line><line x1="0" y1="157.08333333333337" x2="1333" y2="157.08333333333337" fill="rgb(0, 0, 0)" stroke="rgb(189, 189, 189)" stroke-width="1px" opacity="0.25"></line><line x1="0" y1="125.66666666666664" x2="1333" y2="125.66666666666664" fill="rgb(0, 0, 0)" stroke="rgb(189, 189, 189)" stroke-width="1px" opacity="0.25"></line><line x1="0" y1="94.25" x2="1333" y2="94.25" fill="rgb(0, 0, 0)" stroke="rgb(189, 189, 189)" stroke-width="1px" opacity="0.25"></line><line x1="0" y1="62.833333333333364" x2="1333" y2="62.833333333333364" fill="rgb(0, 0, 0)" stroke="rgb(189, 189, 189)" stroke-width="1px" opacity="0.25"></line><line x1="0" y1="31.41666666666664" x2="1333" y2="31.41666666666664" fill="rgb(0, 0, 0)" stroke="rgb(189, 189, 189)" stroke-width="1px" opacity="0.25"></line><line x1="0" y1="0" x2="1333" y2="0" fill="rgb(0, 0, 0)" stroke="rgb(189, 189, 189)" stroke-width="1px" opacity="0.25"></line></g></g></g><g><g><line x1="0" y1="345.5833333333333" x2="1333" y2="345.5833333333333" fill="rgb(0, 0, 0)" stroke="rgb(153, 153, 153)" stroke-width="1.5px"></line></g></g><g><g><line x1="102.53846153846155" y1="0" x2="102.53846153846155" y2="377" fill="rgb(0, 0, 0)" stroke="rgb(153, 153, 153)" stroke-width="1.5px"></line></g></g><g><g><g><g><g><path stroke="rgb(255, 112, 67)" stroke-width="2px" d="M105.10192307692307,337.36245072237216L105.61461538461538,336.3549898242636L107.66538461538462,332.7569144417573L108.17807692307693,330.4287478352977L109.71615384615384,327.1438168101443L110.22884615384615,324.6680078199413L111.76692307692308,321.2685459628457L112.27961538461538,318.63502310010387L112.7923076923077,316.4321680682833L114.84307692307692,312.5299596915261L119.45730769230768,304.3796852206084L120.99538461538461,297.5699409458853L123.04615384615386,290.91111975997984L124.07153846153845,285.63083671697166L125.09692307692308,281.17515804250456L125.60961538461538,277.85813655097684L126.635,274.57875262900916L127.66038461538461,271.32179722532936L128.17307692307693,268.72302054782205L129.71115384615385,265.2294599532363L130.22384615384615,262.4886153482616L130.73653846153846,260.19936506771035L131.24923076923076,258.1810532391024L131.76192307692307,256.32529743531643L133.8126923076923,252.63274351949056L134.83807692307693,249.1276639838849L135.86346153846154,245.73506706413448L136.37615384615384,243.05473956748804L136.88884615384615,240.80176803279073L137.40153846153848,238.80520964814642L138.93961538461537,235.6729470855869L139.4523076923077,233.14881859152845L139.965,230.98956574031064L140.4776923076923,229.04923822453486L143.04115384615386,224.66116711387116L145.60461538461539,218.8044498811415L147.1426923076923,213.35609201051133L147.65538461538463,209.4423014547576L150.73153846153846,203.22537668806945L154.83307692307693,194.33701969098598L156.37115384615385,187.06968262255376L156.88384615384615,182.0645045323536L160.4726923076923,174.54797139199295L162.01076923076923,168.10372863259562L163.03615384615384,162.94763127241572L166.1123076923077,155.9853177410435L166.625,151.16316313280925L167.1376923076923,147.6250945154087L168.67576923076925,143.56792578731012L169.18846153846152,140.48884869791976L172.7773076923077,134.12798083924895L173.8026923076923,129.02190841894046L174.8280769230769,124.66871326164055L175.34076923076924,121.41202031470387L175.85346153846154,118.81322869398261L176.36615384615385,116.60917786898965L179.44230769230768,111.41810162152383L182.0057692307692,105.07957661023967L183.03115384615384,99.9869098983476L183.54384615384615,96.28653401865166L184.05653846153845,93.42153263827312L185.5946153846154,89.76821361525936L187.1326923076923,85.6418946437681L188.15807692307692,81.8765515557514L188.67076923076922,78.9725698503804L190.20884615384617,75.29585326947479L192.7723076923077,69.86595342102281L193.285,65.96323765939053L193.7976923076923,62.97683234985021L194.82307692307694,59.89543745900401L196.36115384615385,56.1122729668133L197.38653846153846,52.55282256637682L197.89923076923074,49.77237647355395L198.92461538461538,46.814566475634614L199.95,43.750328771760955L200.46269230769232,41.26701029687582L204.05153846153846,37.32751701205647L208.1530769230769,34.97147989032475L208.66576923076923,33.55942122096502L209.17846153846153,32.71388070357651L211.22923076923075,32.21470211291L214.3053846153846,31.931448946458158L216.35615384615386,31.77502643171669L216.86884615384616,31.684889992696405L217.89423076923077,31.638644873473474L218.91961538461538,31.619277594113377L219.94500000000002,31.616580066655523L221.4830769230769,31.629352321768483L221.99576923076924,31.64208100172561L222.50846153846155,31.65491461713717L224.04653846153846,31.679018580672807L229.17346153846154,31.75691458111467L230.19884615384618,31.81795868690092L233.27499999999998,31.900706777464997L234.81307692307692,31.975223484332346L235.32576923076923,32.02850055855216L235.83846153846156,32.069155570835086L236.35115384615384,32.10237778940014L237.37653846153847,32.14037214746996L239.4273076923077,32.200891871437946L240.45269230769233,32.25687515091039L241.47807692307694,32.310670248773505L242.50346153846152,32.363686122759276L245.06692307692308,32.44968809083943L246.0923076923077,32.523900666212086L248.1430769230769,32.615252055749316L251.7319230769231,32.75716591359676L252.24461538461537,32.85529120255407L254.80807692307692,32.98104554408132L255.32076923076923,33.07028033232692L255.83346153846153,33.13773446915152L256.8588461538462,33.206426720644615L257.3715384615385,33.26194857706166L257.8842307692308,33.30969927698094L259.935,33.397457661170094L260.4476923076923,33.4652150433888L261.4730769230769,33.53648614356697L263.01115384615383,33.626166276950286L265.06192307692305,33.74439108341058L265.5746153846154,33.83176721316053L266.08730769230766,33.90075585453594L266.6,33.95885244633092L267.6253846153846,34.027510456991195L269.16346153846155,34.12039781376837L269.67615384615385,34.1936201180922L270.18884615384616,34.255183834388305L271.7269230769231,34.345799548559036L272.2396153846154,34.41832363295516L273.265,34.498549999920314L276.3411538461538,34.65998622802559L277.3665384615385,34.79566653288006L278.9046153846154,34.93629503478564L279.4173076923077,35.04067128239051L280.4426923076923,35.14369792841658L280.9553846153846,35.225906304137624L283.51884615384614,35.379187567005566L284.03153846153845,35.49234455901581L286.0823076923077,35.64628377106706L287.10769230769233,35.782465652904406L288.64576923076925,35.93086669223401L290.69653846153847,36.1106712324037L292.7473076923077,36.31140579894866L293.7726923076923,36.47904489904055L295.8234615384615,36.67560740889757L296.3361538461539,36.81786035645992L296.8488461538461,36.92766801008972L297.8742307692308,37.04283888830378L298.38692307692304,37.136781179072244L300.4376923076923,37.29379768858063L300.9503846153846,37.41349339796926L301.4630769230769,37.510927707833986L303.00115384615384,37.6470160668391L303.51384615384615,37.75480092576925L304.02653846153845,37.845734765202494L309.15346153846156,38.17001202210026L311.7169230769231,38.504272788788334L315.3057692307692,38.90577572883696L315.8184615384616,39.17588972927054L318.3819230769231,39.48596679397972L318.89461538461535,39.7020023896012L319.92,39.89196761352105L320.9453846153846,40.06680557371543L322.99615384615385,40.294961516507655L327.6103846153846,40.71656203237068L328.12307692307695,41.00179624537762L328.63576923076926,41.205323031426296L329.1484615384615,41.359965804744256L330.6865384615385,41.551061879711455L333.7626923076923,41.865748440891785L337.3515384615385,42.29362320840576L337.86423076923074,42.585000148059244L338.37692307692305,42.7946094715444L338.88961538461535,42.955279942980276L339.915,43.1218571334864L340.4276923076923,43.25708284098615L341.96576923076924,43.444786750984456L342.47846153846154,43.59318472368258L345.04192307692307,43.86295549426122L345.5546153846154,44.06133325211397L347.6053846153846,44.3276663540533L351.1942307692308,44.74999246410912L352.7323076923077,45.11774654534891L353.245,45.37675878016612L354.2703846153846,45.60926020905454L355.2957692307693,45.82635138788872L356.83384615384614,46.07389509693215L362.47346153846155,46.661859496526525L364.0115384615384,47.137029916500616L364.52423076923077,47.463179105791774L365.0369230769231,47.70002791142865L366.0623076923077,47.924811568993775L367.0876923076923,48.142843008322544L367.6003846153846,48.31542975224042L368.6257692307692,48.50286398639468L371.1892307692308,48.82712260371556L371.7019230769231,49.06440066984954L374.7780769230769,49.46557668859756L375.8034615384616,49.79350704162315L376.31615384615384,50.03405551935632L376.82884615384614,50.22229658956568L377.34153846153845,50.379265570016145L377.8542307692308,50.51759301426295L378.3669230769231,50.64484789154301L379.39230769230767,50.81008279233001L379.905,50.95384729648919L380.41769230769233,51.084841917427134L382.98115384615386,51.38887850670327L383.49384615384616,51.61673859593257L384.00653846153847,51.79900513988927L385.0319230769231,51.99983120005643L387.08269230769235,52.30466353818566L388.1080769230769,52.580424146402656L389.1334615384615,52.83921922438272L391.18423076923074,53.18255004302418L391.6969230769231,53.435849886233164L392.2096153846154,53.63524349893801L394.2603846153846,53.94570485571426L396.3111538461539,54.324651349501195L396.82384615384615,54.600472234040325L398.3619230769231,54.912016583889624L399.3873076923077,55.196879088924284L399.9,55.41693307164069L400.4126923076923,55.59822365861786L400.92538461538464,55.75635920001062L401.43807692307695,55.90072343170437L401.9507692307692,56.03693723233416L402.97615384615386,56.21819310020529L403.48884615384617,56.376878946807714L406.0523076923077,56.72346549418776L406.565,56.98202387702784L408.1030769230769,57.289671124293356L408.6157692307692,57.52532470898269L410.1538461538462,57.82056797152621L411.17923076923074,58.10084623161475L413.23,58.4766073240649L414.25538461538457,58.80652581336958L415.28076923076924,59.10938815980865L416.3061538461538,59.39645687665371L417.84423076923076,59.72755836800235L419.895,60.13956221752664L420.4076923076923,60.44037647136033L421.43307692307695,60.72841661326876L422.9711538461538,61.06337797335464L425.0219230769231,61.48207021668559L427.5853846153846,62.00787122198945L431.1742307692308,62.71230526257952L431.68692307692305,63.190955806708764L432.7123076923077,63.59045407410649L433.225,63.886461492793934L433.7376923076923,64.12048675701053L434.2503846153846,64.31742572040376L434.7630769230769,64.49222525805843L435.27576923076924,64.653844132129L436.8138461538461,64.9216695879521L438.8646153846154,65.31164346563551L439.3773076923077,65.60320960438885L441.4280769230769,66.00953454349423L442.9661538461538,66.42796624843669L443.9915384615385,66.79596784598267L445.0169230769231,67.13413270942351L446.555,67.51384992380132L447.0676923076923,67.80082566825067L447.5803846153846,68.03225952260208L448.0930769230769,68.23047123475382L448.6057692307693,68.40885265344484L449.63115384615384,68.63510862593314L450.14384615384614,68.83062557640346L450.65653846153845,69.0078021055222L451.6819230769231,69.23414035334748L452.19461538461536,69.4301186364565L452.70730769230767,69.60798393259489L453.22,69.77507506551368L453.73269230769233,69.93581405525619L454.24538461538464,70.09283538805569L455.2707692307692,70.30851304122085L455.78346153846155,70.49879718475506L459.3723076923077,71.0419755785841L460.9103846153846,71.55324923550157L461.4230769230769,71.92199580304863L461.9357692307692,72.20532910883256L462.9611538461539,72.49979943549532L464.4992307692308,72.86393617798431L465.5246153846154,73.20788103367613L466.54999999999995,73.54010399893359L468.60076923076923,73.99232024380827L470.65153846153845,74.51810542302886L472.1896153846154,75.0254316383057L472.70230769230767,75.39397256990988L473.215,75.67934532316954L473.72769230769234,75.91490143548906L474.24038461538464,76.1206705551036L476.80384615384617,76.56775117401403L479.88,77.227490327661L480.90538461538466,77.75459226284707L481.4180769230769,78.13661840745382L481.9307692307692,78.43170206957204L482.4434615384615,78.6747045082637L483.4688461538462,78.95271006700129L485.00692307692304,79.31850303695636L485.5196153846154,79.60450219702346L487.05769230769226,79.97621487533026L487.5703846153846,80.26613101336343L488.08307692307693,80.5070628561953L489.10846153846154,80.78586716880672L490.13384615384615,81.08776011624103L493.21,81.6749272449304L494.74807692307695,82.23146974167165L495.26076923076926,82.63366011651914L496.79884615384617,83.08030265692406L497.3115384615385,83.41690884802856L497.8242307692308,83.68758685851563L498.8496153846154,83.98768441755257L499.3623076923077,84.2367287727913L499.875,84.45522547181771L502.4384615384615,84.9330034519215L504.48923076923074,85.49860964606086L505.00192307692305,85.90792356067826L506.0273076923077,86.29368382970846L507.0526923076923,86.66565833854884L508.07807692307694,87.02970781843786L508.59076923076924,87.3186962927635L509.10346153846154,87.56274179271396L509.61615384615385,87.77990577410583L510.1288461538461,87.98102511042912L510.64153846153846,88.17260192577777L511.66692307692307,88.42962060319228L512.6923076923077,88.72625082500879L513.7176923076923,89.04698503773275L515.2557692307693,89.45419168031728L516.2811538461539,89.84211440616757L516.7938461538462,90.14680317382363L517.3065384615385,90.40162646973342L519.3573076923077,90.84340324920936L520.3826923076923,91.25340695136302L520.8953846153846,91.57200907043722L521.9207692307692,91.90860420985285L523.4588461538461,92.32933472806175L525.5096153846154,92.87462570894137L527.0476923076923,93.42228714204852L528.5857692307693,93.97211051529858L529.0984615384616,94.3758965167177L530.1238461538461,94.76621423360345L531.1492307692308,95.14876931824267L532.1746153846153,95.52697579911145L534.7380769230768,96.12698301584L535.7634615384616,96.63677496062006L536.2761538461539,97.017656289615L536.7888461538462,97.32127551520531L537.3015384615385,97.5786123819232L538.8396153846154,97.95897864085913L541.9157692307692,98.6411958741097L542.9411538461538,99.20247665784447L543.4538461538461,99.61532802328479L543.9665384615384,99.939206003815L544.9919230769231,100.28608246127965L547.0426923076923,100.8002065120948L548.0680769230769,101.26213881266986L548.5807692307692,101.61613011991705L550.6315384615384,102.13661100647285L551.1442307692307,102.52610598115983L551.6569230769231,102.83708431189572L552.1696153846154,103.10101819653502L553.7076923076924,103.49187796782961L554.2203846153847,103.80403096658893L554.733076923077,104.0690441678936L555.7584615384615,104.38369151359649L557.2965384615385,104.80648678783089L558.3219230769231,105.21652432030548L558.8346153846154,105.54083937851256L559.86,105.89221011170346L560.3726923076923,106.1815310740586L561.9107692307692,106.59104054912622L563.4488461538461,107.07329044587237L563.9615384615385,107.44163513986365L567.5503846153846,108.21747782712038L568.0630769230769,108.76251188050621L568.5757692307692,109.16913565673975L569.0884615384615,109.49277880695588L569.6011538461539,109.76670848473188L570.1138461538462,110.01086625642148L570.6265384615384,110.23723578762946L571.651923076923,110.53300386356479L572.1646153846154,110.79053619814215L572.6773076923077,111.02519262817879L574.2153846153847,111.40680017861155L574.728076923077,111.71616389925734L575.2407692307693,111.98224686230493L575.7534615384615,112.22242691106759L576.7788461538462,112.52780146591166L579.855,113.19635192767161L580.3676923076923,113.67860233812756L581.9057692307692,114.21166877465978L585.4946153846154,115.10238314877472L587.0326923076923,115.88240990565528L590.6215384615385,116.92560740426966L591.1342307692307,117.63393811652534L591.646923076923,118.14140493434351L592.6723076923078,118.61100906388967L593.1850000000001,118.97541782711154L593.6976923076923,119.27677491081285L595.2357692307693,119.7060710655005L595.7484615384616,120.04659465648837L596.7738461538461,120.41696913956467L597.7992307692308,120.80548823030111L598.3119230769231,121.1218264698067L600.3626923076923,121.6451357791272L600.8753846153846,122.04264776246433L602.9261538461539,122.61579422853397L603.4388461538462,123.04348002991283L603.9515384615385,123.3839456098549L604.4642307692308,123.67213523431255L606.0023076923077,124.0971075398344L606.515,124.43622590915072L607.0276923076923,124.72387873122514L608.5657692307692,125.14935289018999L609.0784615384615,125.48903453266809L613.1800000000001,126.36997754027162L614.7180769230769,127.15332647849945L615.2307692307693,127.70836966548264L616.2561538461539,128.21161303210596L617.2815384615384,128.68398249023164L617.7942307692308,129.0527001502494L619.3323076923077,129.53009022567946L619.845,129.9020168769019L620.8703846153846,130.29629852300826L621.3830769230769,130.61850992297693L621.8957692307692,130.89752598974448L622.4084615384616,131.15067167107267L623.9465384615385,131.56005745345755L628.0480769230769,132.49447975087804L629.0734615384615,133.22779429969378L630.0988461538461,133.84064082016857L631.1242307692308,134.3813844186682L631.6369230769232,134.7924186425975L632.1496153846153,135.12567405626604L633.175,135.49903750653326L634.2003846153847,135.89663431089278L634.7130769230769,136.2220519823302L635.2257692307692,136.50420898849583L636.7638461538462,136.93447520030432L637.7892307692307,137.3668316127433L641.378076923077,138.2373055232509L641.8907692307693,138.84705804663562L643.4288461538462,139.47554816431403L644.4542307692308,140.0279437420364L647.5303846153846,140.88625935122943L648.0430769230769,141.48920376443212L649.0684615384615,142.02699286248293L650.0938461538461,142.52584794067945L652.1446153846153,143.17799237114357L654.1953846153847,143.9227190012266L655.2207692307692,144.54649499324142L656.2461538461539,145.09785040875585L657.7842307692307,145.69456991251496L658.296923076923,146.1413150570563L658.8096153846154,146.4981036747558L659.3223076923077,146.80095582793535L662.3984615384616,147.5160806840085L662.9111538461539,148.03417801551558L665.9873076923077,148.87989186461292L667.0126923076924,149.5658659247489L668.0380769230769,150.1561318735042L668.5507692307692,150.59967901357564L669.0634615384615,150.95522763857375L673.6776923076924,151.97473963516435L674.703076923077,152.7659335548728L676.2411538461539,153.51010001739158L678.291923076923,154.31627555563225L679.3173076923076,154.97999192252263L679.83,155.46826471621495L680.3426923076923,155.85130413612546L681.8807692307691,156.35151418839388L682.3934615384616,156.7418236367573L683.4188461538462,157.15645104295035L683.9315384615385,157.49549048828692L684.4442307692307,157.7892052457985L685.9823076923077,158.23645249612673L686.495,158.59519492849233L691.621923076923,159.71570605942324L692.6473076923077,160.5693533132L693.16,161.1722447232121L694.698076923077,161.80622450445375L695.2107692307692,162.27740437845952L695.7234615384616,162.65092771536453L697.2615384615385,163.14761903555998L697.7742307692307,163.5365335062452L698.2869230769231,163.86080527446515L705.9773076923077,165.42156939094374L707.5153846153846,166.63177085947063L708.5407692307692,167.54047289956253L709.0534615384615,168.17701045107026L710.0788461538461,168.7416171328099L710.5915384615386,169.17174428378766L712.1296153846154,169.7040129920357L713.6676923076923,170.297702396642L714.1803846153846,170.7453915360952L714.693076923077,171.10548987935292L715.2057692307692,171.4130524706859L716.2311538461538,171.78063932927563L717.2565384615385,172.1842922441489L718.2819230769231,172.60964097017012L719.3073076923076,173.04805867880958L719.82,173.4027346070233L720.8453846153847,173.79882354014853L721.8707692307692,174.21981177215025L722.8961538461538,174.6557817165111L723.4088461538462,175.0090732522242L723.9215384615385,175.3127671056449L724.4342307692308,175.58671171258644L724.9469230769231,175.84281613453683L730.0738461538461,176.91442650223445L732.1246153846154,177.92482086170514L734.1753846153846,178.89860733389142L734.6880769230769,179.57478540712168L735.2007692307692,180.07240780387463L736.2261538461538,180.55482639190043L737.7642307692307,181.12009442488244L739.3023076923077,181.73511893931956L740.3276923076922,182.2880677454706L741.3530769230769,182.8037898524425L741.8657692307693,183.20520889116256L742.8911538461538,183.63003654491658L744.9419230769231,184.25293241269443L745.4546153846153,184.71867911513877L745.9673076923077,185.090136318383L746.9926923076923,185.4970383667811L747.5053846153846,185.83319345904573L749.0434615384617,186.31095151132257L749.5561538461538,186.68962488736256L750.0688461538462,187.00885682055682L750.5815384615383,187.2924192065954L751.0942307692308,187.55458454578874L751.6069230769232,187.8039069754268L754.1703846153847,188.41363060816437L754.6830769230769,188.87149269537713L755.7084615384616,189.3302563999489L757.7592307692307,189.97358880138765L758.2719230769231,190.45160210547667L759.2973076923078,190.9224331329335L761.3480769230769,191.5729403878293L762.3734615384616,192.14723033418502L764.4242307692308,192.85972399290554L764.9369230769231,193.37918723688213L765.4496153846154,193.78283223201248L765.9623076923077,194.1169769149388L766.9876923076923,194.50136505204622L768.5257692307692,195.00781013302918L769.0384615384614,195.40360209732995L770.0638461538462,195.82490838154007L770.5765384615385,196.16959366053652L771.0892307692308,196.46830633640477L774.1653846153847,197.19876041627043L775.1907692307692,197.82070948203074L775.7034615384615,198.28570552678704L776.7288461538462,198.7483282755522L777.2415384615384,199.11770044142253L778.7796153846153,199.61465843195268L779.2923076923078,200.00459429129688L781.8557692307693,200.6971879184528L782.3684615384615,201.20443961949846L782.8811538461539,201.6004721205336L784.4192307692308,202.11306584065568L785.4446153846154,202.60387736023708L785.9573076923077,202.98997084922343L786.4699999999999,203.31322415695632L786.9826923076923,203.59875931159286L787.4953846153846,203.8616495300271L788.0080769230769,204.1109387423955L789.5461538461539,204.53509324767364L791.0842307692308,205.06404052959783L793.6476923076923,205.8385335840001L794.1603846153846,206.39460660291996L794.6730769230769,206.81961355620598L795.1857692307693,207.16596214431905L797.2365384615384,207.7389897925161L799.2873076923078,208.44774398987508L800.3126923076924,209.0553623206517L800.8253846153846,209.51108579588538L802.8761538461539,210.14894721161883L804.926923076923,210.8957824160748L808.5157692307693,211.98030300637646L809.0284615384616,212.7218448174033L809.5411538461539,213.25758063507283L811.0792307692308,213.85132323828657L812.1046153846154,214.38898896005148L812.6173076923078,214.80226804361578L813.6426923076923,215.2315152101467L814.1553846153846,215.57967293884857L814.6680769230769,215.87914891616404L815.6934615384615,216.23992696102002L816.2061538461538,216.5469049063059L817.7442307692309,217.00247522225374L826.46,218.80924915788802L826.9726923076923,219.9832722267602L827.4853846153845,220.77761200543804L827.998076923077,221.34411372131052L830.0488461538461,222.0433205771602L831.5869230769231,222.73201391447523L832.0996153846154,223.23488901167474L833.6376923076924,223.80541814084467L834.1503846153846,224.23727767695357L834.6630769230769,224.58589800564073L836.7138461538461,225.15278901825917L837.2265384615384,225.58227374506336L837.7392307692309,225.92928193024204L838.7646153846155,226.31601854768243L839.2773076923077,226.63727955683174L839.79,226.91922243086958L840.8153846153846,227.26665770052946L841.8407692307692,227.65325732701467L844.916923076923,228.4187991992043L845.9423076923076,229.0557056948785L848.5057692307691,229.88117336840892L849.0184615384616,230.4650082455762L853.6326923076922,231.61064039667573L854.1453846153846,232.38619944453316L859.785,233.81892336159987L861.8357692307692,235.0291279559337L862.3484615384616,235.8427891113362L863.8865384615385,236.59335288423307L864.3992307692307,237.13106101464035L865.9373076923076,237.71554269469263L866.9626923076922,238.24059223876284L867.4753846153847,238.64273435222637L867.988076923077,238.9710898742926L871.5769230769231,239.77635906313964L872.0896153846154,240.34623504037728L872.6023076923077,240.7748329576159L873.115,241.11861722437365L874.1403846153846,241.49799837381337L874.653076923077,241.8121168178957L875.6784615384615,242.17342226828984L876.1911538461538,242.47655484950056L876.7038461538461,242.74473689471986L877.2165384615386,242.9918971224147L879.7800000000001,243.57076008897138L880.8053846153846,244.08996660032534L883.3688461538461,244.8303673342983L883.8815384615385,245.36023614264246L884.3942307692307,245.76373898112806L885.4196153846153,246.17684930338876L889.0084615384616,247.02165865291803L890.0338461538462,247.69864234014145L895.1607692307692,248.95218636974968L896.1861538461538,249.8731468740221L896.6988461538461,250.51006180558298L897.7242307692308,251.06072183110535L898.2369230769231,251.4752902840071L899.2623076923077,251.8922170616881L899.7750000000001,252.2263817152001L902.8511538461538,252.92977805176085L903.3638461538462,253.43543588040492L906.44,254.23936165000933L906.9526923076922,254.8049392153875L911.5669230769231,255.89067009836768L912.0796153846153,256.6247478914778L913.6176923076923,257.3127495450787L914.6430769230768,257.89028835662276L916.6938461538462,258.56556399857845L919.77,259.46202395898604L920.7953846153847,260.16317012062177L921.3080769230769,260.6653992813359L922.3334615384616,261.1296324473041L923.8715384615384,261.6520430249324L924.8969230769231,262.12775304555004L925.4096153846153,262.49421492525397L927.4603846153847,263.03759650473864L927.9730769230769,263.4443406405652L928.9984615384616,263.8496208775106L929.5111538461538,264.17330992771565L930.0238461538462,264.4479763848784L930.5365384615384,264.69316608666594L932.0746153846154,265.08105146711597L932.5873076923077,265.39390802105584L933.0999999999999,265.66167939809156L935.1507692307692,266.1419095780881L936.1761538461539,266.58942992879537L936.6888461538462,266.9375314390774L937.2015384615385,267.22591376410617L938.2269230769232,267.5577823538484L939.2523076923077,267.91546883770235L940.2776923076923,268.2883721933071L941.8157692307692,268.7490329342268L942.3284615384615,269.10426496548547L943.3538461538462,269.47486469248787L943.8665384615384,269.7758494502297L944.3792307692308,270.03499500469314L945.9173076923078,270.4257251064933L946.9426923076924,270.81663823098677L947.4553846153847,271.12931713444436L948.9934615384615,271.55088686957424L949.5061538461539,271.881674171077L951.0442307692308,272.31324755857594L952.5823076923077,272.8046418763809L953.0949999999999,273.1768159903653L953.6076923076923,273.4773830788871L954.1203846153846,273.7349157304092L955.6584615384614,274.1205654382522L957.7092307692308,274.6590933719167L958.7346153846154,275.13533327865935L959.2473076923078,275.49752527085934L959.76,275.7912136111637L961.2980769230769,276.19609663127744L961.8107692307693,276.5150976349247L962.8361538461538,276.8584135700364L964.886923076923,277.36731623311437L965.3996153846153,277.7481953374521L965.9123076923078,278.05218306265135L967.4503846153846,278.46049068147056L969.5011538461539,279.00560523385275L970.0138461538461,279.4075115952758L971.0392307692308,279.798094258986L971.551923076923,280.10704507407473L972.0646153846154,280.36693719537215L972.5773076923077,280.59731451577636L973.6026923076923,280.8841885901393L975.1407692307693,281.2786888436616L975.6534615384616,281.58935353569035L976.1661538461539,281.8496373062045L976.678846153846,282.0796105984674L978.7296153846154,282.5120038252866L979.2423076923078,282.8448378460683L981.8057692307693,283.4103138461954L982.8311538461538,283.8953329269238L983.3438461538461,284.25908939803526L983.8565384615384,284.55000403731L985.9073076923077,285.0143695717092L987.4453846153846,285.50947543949104L988.4707692307693,285.95044433531297L990.0088461538461,286.4302529103982L990.5215384615385,286.7897103753643L991.0342307692308,287.0768729081923L991.546923076923,287.32057421567083L992.0596153846154,287.53811452187324L993.085,287.8110179286533L994.1103846153845,288.11679745006563L995.6484615384616,288.512678850172L996.1611538461539,288.8208390390742L997.1865384615385,289.14674037044455L997.6992307692308,289.4126526977333L998.2119230769231,289.6424850157825L999.75,289.99071719017195L1000.7753846153846,290.3394398548696L1001.2880769230769,290.6184340531723L1001.8007692307692,290.85550222412326L1002.3134615384615,291.06732817187253L1005.9023076923077,291.67903320781L1006.415,292.11492969443367L1007.953076923077,292.5825519557792L1010.5165384615385,293.2047984644869L1012.5673076923076,293.84985527913364L1013.5926923076923,294.37219726356227L1015.6434615384616,294.9551157644631L1016.1561538461539,295.37201755714864L1017.1815384615385,295.75617913016146L1019.2323076923077,296.25360639520073L1019.745,296.61856272507754L1020.2576923076922,296.9039440352562L1021.2830769230769,297.2077057886179L1021.7957692307692,297.45608946599896L1022.3084615384615,297.67115266882877L1024.3592307692306,298.0633804346929L1026.41,298.56039483062784L1027.4353846153847,298.98887178490475L1027.948076923077,299.3109493316606L1028.9734615384616,299.6338918693947L1031.0242307692308,300.0859001158776L1032.0496153846154,300.4856482668431L1032.5623076923077,300.7896248044299L1034.1003846153847,301.16381082771085L1035.6384615384616,301.57924828196775L1037.6892307692308,302.0817115587158L1038.7146153846154,302.5092012347577L1040.7653846153846,303.0165387354373L1042.8161538461538,303.5702026014276L1043.3288461538461,303.9644675604848L1043.8415384615384,304.2629936946093L1045.8923076923077,304.6889808613902L1046.405,305.00604057555967L1046.9176923076923,305.2576431670273L1047.943076923077,305.53103746479655L1048.4557692307692,305.7561388530189L1048.9684615384615,305.95216384437805L1049.993846153846,306.19140403227783L1050.5065384615384,306.3956091796762L1052.0446153846153,306.6995056134705L1052.5573076923076,306.9420972224172L1053.5826923076922,307.2078553909965L1054.608076923077,307.4871038686429L1055.1207692307692,307.7143964260535L1055.6334615384617,307.9104124394635L1059.2223076923076,308.44262396892384L1060.2476923076922,308.8794786421983L1060.7603846153847,309.2001996658114L1063.8365384615386,309.7420918505013L1064.3492307692306,310.1251039046915L1064.8619230769232,310.41268371836077L1065.3746153846153,310.64290002549626L1065.8873076923078,310.83859172576626L1066.9126923076922,311.07081575051825L1068.4507692307693,311.38157309269934L1072.0396153846154,311.9643038906715L1072.5523076923077,312.3701267693278L1073.065,312.66969956381143L1075.6284615384616,313.12822815878997L1077.6792307692308,313.62443840789086L1079.2173076923077,314.08685088080534L1079.73,314.4189776788495L1081.268076923077,314.7816386385466L1081.7807692307692,315.0534791539831L1082.2934615384615,315.27071972955605L1082.8061538461538,315.45509032717945L1083.3188461538462,315.61962892400186L1084.856923076923,315.8794477348246L1085.3696153846154,316.08881871452735L1085.8823076923077,316.2678109815268L1086.395,316.42846600687295L1088.4457692307692,316.73679637199115L1088.9584615384615,316.97450418605194L1089.4711538461538,317.16972611472283L1091.0092307692307,317.4439897380785L1092.0346153846153,317.71274641446865L1093.06,317.97775418510594L1094.0853846153846,318.240067874718L1094.5980769230769,318.44894265514813L1095.1107692307692,318.62564173531354L1096.1361538461538,318.83407488368545L1096.6488461538463,319.0101742610738L1099.2123076923078,319.369342496916L1100.7503846153847,319.73559660184344L1101.7757692307694,320.0552862790056L1103.3138461538463,320.3961550534116L1104.8519230769232,320.748709560107L1105.3646153846153,321.0093588476653L1106.3899999999999,321.26363984156797L1107.4153846153847,321.51364224772146L1110.4915384615383,321.9531959404279L1111.0042307692308,322.26478425968065L1112.0296153846155,322.54710478687065L1113.055,322.811402931L1115.6184615384616,323.2052222458756L1117.6692307692308,323.62761661314136L1118.181923076923,323.9272883857106L1118.6946153846154,324.1532095652584L1119.2073076923077,324.3347639379708L1125.3596153846154,324.98657776944935L1126.385,325.46649947273096L1127.4103846153846,325.8428136580131L1128.4357692307692,326.15648933587124L1128.9484615384615,326.38846101608215L1130.4865384615384,326.6582300942173L1130.9992307692307,326.86338264760803L1131.511923076923,327.02964590922454L1132.0246153846153,327.1724568040299L1132.5373076923076,327.301077487002L1133.05,327.4210640807654L1133.5626923076923,327.5357514292571L1134.5880769230769,327.6895959068556L1135.1007692307692,327.82423926968437L1135.6134615384615,327.9472420015428L1136.638846153846,328.1051177678353L1139.2023076923078,328.40792774570065L1140.7403846153845,328.71301963134107L1141.7657692307694,328.9777420403768L1142.2784615384614,329.17722742591803L1143.303846153846,329.37786089561337L1144.841923076923,329.6187449636849L1146.3799999999999,329.8826862726411L1147.4053846153845,330.12005108058753L1148.9434615384614,330.38005506869337L1149.456153846154,330.5750082804582L1150.4815384615385,330.76951610718345L1150.9942307692309,330.92480529880277L1152.5323076923075,331.13299672798763L1153.5576923076924,331.3339775104485L1154.0703846153847,331.4924149029699L1158.1719230769231,331.88583597663273L1158.6846153846154,332.15862804066575L1159.71,332.39541169917203L1162.2734615384616,332.7180863117737L1164.836923076923,333.0891911115336L1165.3496153846154,333.34698065233994L1165.8623076923077,333.5366563942175L1166.8876923076923,333.72009194346117L1167.4003846153846,333.8647810671402L1168.4257692307692,334.0204750285811L1169.4511538461538,334.18227214808985L1170.9892307692307,334.38098173304707L1171.501923076923,334.533834033433L1173.5526923076923,334.7587952276657L1176.1161538461538,335.05750383741946L1177.1415384615384,335.3013391320283L1180.2176923076925,335.63843828702966L1180.7303846153845,335.8720544122743L1181.243076923077,336.04345402797463L1181.7557692307691,336.17739675366744L1182.2684615384615,336.2887386536655L1183.8065384615386,336.4477103891357L1184.831923076923,336.60390222328334L1186.3700000000001,336.7878756439446L1186.8826923076922,336.92809105426244L1188.420769230769,337.100948664855L1189.446153846154,337.26317694412455L1190.4715384615386,337.4185161763909L1190.9842307692306,337.54052905502436L1191.4969230769232,337.6424179668353L1193.5476923076922,337.8169942134259L1195.5984615384616,338.0331297532837L1196.111153846154,338.19033711450027L1196.6238461538462,338.31205882870813L1198.6746153846154,338.49339423408674L1199.1873076923077,338.6289487830819L1200.2126923076924,338.76340102677176L1200.7253846153847,338.8704385815104L1201.7507692307693,338.9870061415694L1202.2634615384616,339.08292520370526L1202.7761538461539,339.1663258420824L1203.8015384615385,339.26767665228516L1204.3142307692308,339.3539479256019L1204.826923076923,339.4310421517821L1205.3396153846154,339.50250038578974L1206.8776923076923,339.620202569225L1207.903076923077,339.7400595471643L1208.4157692307692,339.83639684888334L1211.491923076923,340.0380060020661L1212.0046153846154,340.1824836283818L1212.5173076923077,340.2925519895056L1214.568076923077,340.4508156327338L1215.5934615384615,340.591101940303L1216.618846153846,340.72007913353286L1218.6696153846153,340.885506372472L1222.2584615384617,341.1337906193221L1223.7965384615386,341.3446619080768L1224.8219230769232,341.5117947810066L1225.8473076923076,341.6521585267065L1226.3600000000001,341.7562214327993L1227.3853846153847,341.85795364290885L1228.4107692307691,341.95776062621735L1229.4361538461537,342.0558850790529L1229.9488461538463,342.1336821641431L1230.4615384615386,342.1991508702667L1230.9742307692306,342.2570905906907L1231.9996153846153,342.32877539519114L1232.5123076923078,342.39004860709235L1234.0503846153847,342.480806747852L1234.5630769230768,342.5529952504592L1236.1011538461537,342.6487154815748L1237.6392307692308,342.75736324809577L1239.69,342.8889842904541L1242.7661538461539,343.0636256002887L1243.2788461538462,343.18389039909397L1244.816923076923,343.30169186165887L1245.3296153846154,343.3873210420001L1246.355,343.4681961355031L1247.3803846153846,343.54568640847214L1247.893076923077,343.60646352423873L1248.9184615384615,343.67109616532923L1249.4311538461538,343.7237590964812L1250.4565384615385,343.78272372323744L1250.9692307692308,343.83158602085854L1251.481923076923,343.8742535728742L1251.9946153846154,343.9130708562544L1253.02,343.96239461310347L1254.0453846153846,344.0174883495028L1254.558076923077,344.06309412743167L1256.6088461538461,344.13931998972544L1257.1215384615384,344.1969370590593L1258.146923076923,344.2548693727084L1259.685,344.32366896014133L1260.7103846153846,344.3869732802864L1262.2484615384617,344.45698882757847L1265.3246153846153,344.5594480499863L1268.4007692307694,344.67654818451297L1270.4515384615383,344.78120849709353L1271.9896153846153,344.86839550491993L1274.5530769230768,344.9586732299784L1275.5784615384614,345.02708563971714L1277.1165384615383,345.0884937641694L1280.1926923076924,345.1624298073284L1280.7053846153847,345.212502562227L1281.7307692307693,345.2535648719957L1283.2688461538462,345.29372106643433L1283.7815384615385,345.32271855430866L1284.806923076923,345.34952080541L1285.3196153846154,345.370102115806L1285.8323076923077,345.3868162335708L1290.4465384615385,345.4300730356729L1290.9592307692308,345.4590457160674L1291.471923076923,345.47931320836676L1291.9846153846154,345.49422286816656L1293.01,345.50826280881506L1294.0353846153846,345.521241973113L1295.5734615384615,345.5348516627946L1296.0861538461538,345.54468869358624L1298.136923076923,345.55592812525214L1299.1623076923076,345.5645317578292L1299.675,345.5704217581235L1300.1876923076923,345.5745487994017L1300.7003846153846,345.5774832845169L1301.7257692307692,345.57975615025805" style="fill: none;" fill="none"></path></g></g></g></g><g opacity="0.2"><g><g><g><path stroke="rgb(255, 112, 67)" stroke-width="2px" d="M105.10192307692307,337.36245072237216L105.61461538461538,335.7505132853985L107.66538461538462,329.3027620745512L108.17807692307693,327.6908239061013L109.71615384615384,322.85501086370397L110.22884615384615,321.243072695254L111.76692307692308,316.40726111580926L112.27961538461538,314.79532148440677L112.7923076923077,313.1833847789094L114.84307692307692,306.7356350310147L119.45730769230768,292.2281959038228L120.99538461538461,287.39238286142546L123.04615384615386,280.94463018762565L124.07153846153845,277.7207567766309L125.09692307692308,274.4968775138259L125.60961538461538,272.88494373423356L126.635,269.6610644714286L127.66038461538461,266.43719106043375L128.17307692307693,264.82525142903125L129.71115384615385,259.989438386634L130.22384615384615,258.3774987552315L130.73653846153846,256.76556497563917L131.24923076923076,255.15362534423667L131.76192307692307,253.54168571283418L133.8126923076923,247.09393889084458L134.83807692307693,243.8700596280396L135.86346153846154,240.6461803652346L136.37615384615384,239.03425243745244L136.88884615384615,237.42231280604994L137.40153846153848,235.81037317464745L138.93961538461537,230.97455428043997L139.4523076923077,229.36262635265786L139.965,227.75068672125536L140.4776923076923,226.13874708985287L143.04115384615386,218.07906063646078L145.60461538461539,210.01937418306863L147.1426923076923,205.18355528886116L147.65538461538463,203.57161565745866L150.73153846153846,193.89998957266408L154.83307692307693,181.00448422506452L156.37115384615385,176.1686770344774L156.88384615384615,174.55673740307492L160.4726923076923,163.27317168687784L162.01076923076923,158.43736449629068L163.03615384615384,155.2134852334857L166.1123076923077,145.54184744507074L166.625,143.929931220909L167.1376923076923,142.3179915895065L168.67576923076925,137.48217269529897L169.18846153846152,135.87023306389648L172.7773076923077,124.58667905131978L173.8026923076923,121.36279978851479L174.8280769230769,118.1389205257098L175.34076923076924,116.52698089430731L175.85346153846154,114.91504126290482L176.36615384615385,113.30310163150233L179.44230769230768,103.63148725032806L182.0057692307692,95.5717890933156L183.03115384615384,92.34790983051062L183.54384615384615,90.73597019910812L184.05653846153845,89.12403056770563L185.5946153846154,84.28823508073884L187.1326923076923,79.45241618653137L188.15807692307692,76.22853692372638L188.67076923076922,74.61659729232389L190.20884615384617,69.78077839811641L192.7723076923077,61.72110364834469L193.285,60.109164016942195L193.7976923076923,58.4972243855397L194.82307692307694,55.27334512273472L196.36115384615385,50.43752622852724L197.38653846153846,47.213646965722255L197.89923076923074,45.60170733431976L198.92461538461538,42.377851478755474L199.95,39.15397221595049L200.46269230769232,37.542032584548L204.05153846153846,31.418277084827423L208.1530769230769,31.43742420772713L208.66576923076923,31.441333216925447L209.17846153846153,31.445569927493747L211.22923076923075,31.46593422691029L214.3053846153846,31.506569196780507L216.35615384615386,31.54039265960455L216.86884615384616,31.549685334165876L217.89423076923077,31.56927719463903L218.91961538461538,31.59022667507332L219.94500000000002,31.612533775468652L221.4830769230769,31.648510704437907L221.99576923076924,31.66117402166128L222.50846153846155,31.674165040254593L224.04653846153846,31.71517452597618L229.17346153846154,31.8737585817774L230.19884615384618,31.909524845580275L233.27499999999998,32.024828913311175L234.81307692307692,32.08699854463339L235.32576923076923,32.10841616988182L235.83846153846156,32.130138089259454L236.35115384615384,32.15221111724775L237.37653846153847,32.197363684574775L239.4273076923077,32.29167145739L240.45269230769233,32.340850070118904L241.47807692307694,32.3913628955682L242.50346153846152,32.443209933737926L245.06692307692308,32.57869104295969L246.0923076923077,32.635219529271126L248.1430769230769,32.75227914005518L251.7319230769231,32.97003670036793L252.24461538461537,33.00247913599014L254.80807692307692,33.169677056372166L255.32076923076923,33.20413251469534L255.83346153846153,33.23891567438841L256.8588461538462,33.30946509788435L257.3715384615385,33.34523136168718L257.8842307692308,33.38132532685995L259.935,33.52909523745377L260.4476923076923,33.56685111671686L261.4730769230769,33.64339279383421L263.01115384615383,33.76068647702534L265.06192307692305,33.921728293101005L265.5746153846154,33.962831407785416L266.08730769230766,34.00423881659906L266.6,34.045997334023305L267.6253846153846,34.130497472981624L269.16346153846155,34.259728848934174L269.67615384615385,34.30345357457798L270.18884615384616,34.34752940883238L271.7269230769231,34.48172311981518L272.2396153846154,34.52710975954931L273.265,34.618889550368L276.3411538461538,34.90214057018358L277.3665384615385,34.999186990161725L278.9046153846154,35.14723778764408L279.4173076923077,35.1972356537978L280.4426923076923,35.29823789745569L280.9553846153846,35.34921886771917L283.51884615384614,35.609109461307526L284.03153846153845,35.66208004703123L286.0823076923077,35.877192589143924L287.10769230769233,35.986738475660495L288.64576923076925,36.15346825122833L290.69653846153847,36.38037804265816L292.7473076923077,36.61250764876604L293.7726923076923,36.73050354917843L295.8234615384615,36.970451173682996L296.3361538461539,37.03123977780342L296.8488461538461,37.092379490534476L297.8742307692308,37.215595205624886L298.38692307692304,37.27769461522501L300.4376923076923,37.52932245284319L300.9503846153846,37.593036962052174L301.4630769230769,37.65707917263109L303.00115384615384,37.85114860534668L303.51384615384615,37.91647821416456L304.02653846153845,37.98213552435238L309.15346153846156,38.65642790744703L311.7169230769231,39.00566393882036L315.3057692307692,39.50803013890982L315.8184615384616,39.581060729920864L318.3819230769231,39.95108239104349L318.89461538461535,40.02605578303337L319.92,40.17691544940073L320.9453846153846,40.32906251400709L322.99615384615385,40.63719543069601L327.6103846153846,41.34896280616522L328.12307692307695,41.429647564888L328.63576923076926,41.51061321049929L329.1484615384615,41.5919299647212L330.6865384615385,41.83770599216223L333.7626923076923,42.33777828266222L337.3515384615385,42.93543535967667L337.86423076923074,43.02206555753946L338.37692307692305,43.10902345677216L338.88961538461535,43.19628565013409L339.915,43.37172291924555L340.4276923076923,43.459921402235814L341.96576923076924,43.726342615981885L342.47846153846154,43.81578168272972L345.04192307692307,44.26761165012915L345.5546153846154,44.35889988889296L347.6053846153846,44.72716600696247L351.1942307692308,45.38348162919283L352.7323076923077,45.6693776672085L353.245,45.76527713239193L354.2703846153846,45.95801235238712L355.2957692307693,46.15198815613985L356.83384615384614,46.44521066049736L362.47346153846155,47.54380609591801L364.0115384615384,47.84978554646175L364.52423076923077,47.952402889728546L365.0369230769231,48.05530111988384L366.0623076923077,48.261987055341415L367.0876923076923,48.46989016731579L367.6003846153846,48.57430986811716L368.6257692307692,48.78401533762615L371.1892307692308,49.31351052969694L371.7019230769231,49.4203177690506L374.7780769230769,50.06734071671963L375.8034615384616,50.285402571161576L376.31615384615384,50.39487823595602L376.82884615384614,50.5046581948797L377.34153846153845,50.61471904069185L377.8542307692308,50.72508418063324L378.3669230769231,50.835730207463094L379.39230769230767,51.05793514351051L379.905,51.169494052728005L380.41769230769233,51.28133384883404L382.98115384615386,51.84493339061737L383.49384615384616,51.95852872977655L384.00653846153847,52.072404955824204L385.0319230769231,52.301070290307216L387.08269230769235,52.76191204537947L388.1080769230769,52.99406505872805L389.1334615384615,53.22741184135277L391.18423076923074,53.697546270986386L391.6969230769231,53.81579965104658L392.2096153846154,53.93433391799528L394.2603846153846,54.41139689087868L396.3111538461539,54.89307109018166L396.82384615384615,55.01420356084902L398.3619230769231,55.37933310866356L399.3873076923077,55.62417284647625L399.9,55.74701404571533L400.4126923076923,55.87015953908365L400.92538461538464,55.99356251209974L401.43807692307695,56.11726977924507L401.9507692307692,56.24125793327887L402.97615384615386,56.49007690201204L403.48884615384617,56.61490771671135L406.0523076923077,57.24334531525772L406.565,57.36986145128805L408.1030769230769,57.751141995191574L408.6157692307692,57.878805086016655L410.1538461538462,58.26343286534149L411.17923076923074,58.521263621747494L413.23,59.040248962740115L414.25538461538457,59.301403547326736L415.28076923076924,59.56368167946737L416.3061538461538,59.82705995192129L417.84423076923076,60.22421060502529L419.895,60.75756799181301L420.4076923076923,60.89159785211086L421.43307692307695,61.160476826131344L422.9711538461538,61.56582001348335L425.0219230769231,62.110108581682034L427.5853846153846,62.79657272994518L431.1742307692308,63.7689563234647L431.68692307692305,63.908931622902564L432.7123076923077,64.18970147520304L433.225,64.33047262082499L433.7376923076923,64.4715246533354L434.2503846153846,64.61283416549367L434.7630769230769,64.75442456454039L435.27576923076924,64.89627244323492L436.8138461538461,65.32340777168673L438.8646153846154,65.89660428216058L439.3773076923077,66.0405588125189L441.4280769230769,66.61902195215225L442.9661538461538,67.05561380585033L443.9915384615385,67.34797024230164L445.0169230769231,67.64138000458479L446.555,68.083425745368L447.0676923076923,68.23128928492469L447.5803846153846,68.37941030412912L448.0930769230769,68.52778880298138L448.6057692307693,68.67642478148144L449.63115384615384,68.9744925846656L450.14384615384614,69.12390100210905L450.65653846153845,69.27356689920026L451.6819230769231,69.57364772508544L452.19461538461536,69.72408606112003L452.70730769230767,69.87478187680244L453.22,70.02571176489192L453.73269230769233,70.17692253986996L454.24538461538464,70.32836738725501L455.2707692307692,70.63202952096862L455.78346153846155,70.78422340005636L459.3723076923077,71.85674316932756L460.9103846153846,72.32015972087783L461.4230769230769,72.47511565436918L461.9357692307692,72.6303290675084L462.9611538461539,72.94150492548943L464.4992307692308,73.41014129171771L465.5246153846154,73.72379831721383L466.54999999999995,74.03843844681978L468.60076923076923,74.67064461112022L470.65153846153845,75.30678319185972L472.1896153846154,75.78642096122104L472.70230769230767,75.94678396731615L473.215,76.10740445305902L473.72769230769234,76.26823560396832L474.24038461538464,76.42932423452538L476.80384615384617,77.2383721023798L479.88,78.2170990581314L480.90538461538466,78.54524516562623L481.4180769230769,78.7096576243639L481.9307692307692,78.87432756274939L482.4434615384615,79.03920816630125L483.4688461538462,79.36971840510768L485.00692307692304,79.867192491889L485.5196153846154,80.03350093712407L487.05769230769226,80.5337838927905L487.5703846153846,80.70100522041321L488.08307692307693,80.86846062044305L489.10846153846154,81.20407363772392L490.13384615384615,81.54059953739244L493.21,82.55567793796462L494.74807692307695,83.0662834867835L495.26076923076926,83.23694567879039L496.79884615384617,83.7502664675315L497.3115384615385,83.92181813468534L497.8242307692308,84.0936038742463L498.8496153846154,84.43783075610799L499.3623076923077,84.61029530564946L499.875,84.78297052035731L502.4384615384615,85.64967042207718L504.48923076923074,86.34701893726987L505.00192307692305,86.52189443260431L506.0273076923077,86.87232423325378L507.0526923076923,87.2236201018095L508.07807692307694,87.57578203827143L508.59076923076924,87.75217900425196L509.10346153846154,87.92881004263955L509.61615384615385,88.10565174619359L510.1288461538461,88.28270411491394L510.64153846153846,88.45996714880067L511.66692307692307,88.81514861931402L512.6923076923077,89.17119615773362L513.7176923076923,89.52808635681868L515.2557692307693,90.06500164419413L516.2811538461539,90.42399849494296L516.7938461538462,90.60383632530767L517.3065384615385,90.78386141359806L519.3573076923077,91.50606841842335L520.3826923076923,91.86841250459355L520.8953846153846,92.04991224904853L521.9207692307692,92.4134969189763L523.4588461538461,92.96043050537509L525.5096153846154,93.69256218026084L527.0476923076923,94.24377929170925L528.5857692307693,94.79684557517368L529.0984615384616,94.98157551884651L530.1238461538461,95.351690808932L531.1492307692308,95.72260194520157L532.1746153846153,96.09428552041453L534.7380769230768,97.02699384093285L535.7634615384616,97.40146287779015L536.2761538461539,97.58897828310728L536.7888461538462,97.77670435359079L537.3015384615385,97.96461768199998L538.8396153846154,98.52952802926302L541.9157692307692,99.66452172398567L542.9411538461538,100.04439783344668L543.4538461538461,100.23460507144529L543.9665384615384,100.42502297461033L544.9919230769231,100.80639714747667L547.0426923076923,101.5713925883174L548.0680769230769,101.95503726353246L548.5807692307692,102.14711708078784L550.6315384615384,102.91733233630657L551.1442307692307,103.11034844319028L551.6569230769231,103.30355180799961L552.1696153846154,103.49691902349394L553.7076923076924,104.0781676247716L554.2203846153847,104.27226046472788L554.733076923077,104.46656396985054L555.7584615384615,104.85566253215075L557.2965384615385,105.44067969918251L558.3219230769231,105.8315806190173L558.8346153846154,106.02731196582317L559.86,106.41926621148986L560.3726923076923,106.6155125175913L561.9107692307692,107.20530476172763L563.4488461538461,107.79666529099148L563.9615384615385,107.9941521808505L567.5503846153846,109.38124185800552L568.0630769230769,109.58006296058494L568.5757692307692,109.77907132109004L569.0884615384615,109.97824353228015L569.6011538461539,110.17760300139588L570.1138461538462,110.37710291395587L570.6265384615384,110.57679008444148L571.651923076923,110.97665597746771L572.1646153846154,111.17683470000821L572.6773076923077,111.37717727323371L574.2153846153847,111.97921150426072L574.728076923077,112.18020948022604L575.2407692307693,112.38137130687636L575.7534615384615,112.58269698421162L576.7788461538462,112.98586329817772L579.855,114.19917762031156L580.3676923076923,114.40197795381147L581.9057692307692,115.01126842945814L585.4946153846154,116.43845470994711L587.0326923076923,117.05245004097623L590.6215384615385,118.49040365219116L591.1342307692307,118.69643418490887L591.646923076923,118.90260516107082L592.6723076923078,119.31541525820893L593.1850000000001,119.52203097194433L593.6976923076923,119.72881053636473L595.2357692307693,120.35001529753208L595.7484615384616,120.55738004297018L596.7738461538461,120.97253086417913L597.7992307692308,121.38826686640579L598.3119230769231,121.59633382906514L600.3626923076923,122.43009974310797L600.8753846153846,122.63891573746997L602.9261538461539,123.47551392763853L603.4388461538462,123.6850087319811L603.9515384615385,123.89464397976798L604.4642307692308,124.10441967099905L606.0023076923077,124.73456599811715L606.515,124.94490346312523L607.0276923076923,125.15535796433687L608.5657692307692,125.78756412863731L609.0784615384615,125.99855699638528L613.1800000000001,127.69139205167693L614.7180769230769,128.3283498858412L615.2307692307693,128.54093444595736L616.2561538461539,128.96647808204096L617.2815384615384,129.39253667742014L617.7942307692308,129.60577664027613L619.3323076923077,130.24617533882457L619.845,130.45990685373545L620.8703846153846,130.88772099216777L621.3830769230769,131.10182702292997L621.8957692307692,131.31605008989573L622.4084615384616,131.530390193065L623.9465384615385,132.17413612703484L628.0480769230769,133.8961131970088L629.0734615384615,134.32776612291735L630.0988461538461,134.7599106008808L631.1242307692308,135.1924998164177L631.6369230769232,135.40896997849148L632.1496153846153,135.62555717676878L633.175,136.05908268193406L634.2003846153847,136.49302951743203L634.7130769230769,136.7101784894864L635.2257692307692,136.92744449774426L636.7638461538462,137.579874518017L637.7892307692307,138.01536623140174L641.378076923077,139.54301638901234L641.8907692307693,139.76168683171272L643.4288461538462,140.41828334083158L644.4542307692308,140.85653710862L647.5303846153846,142.17373276501894L648.0430769230769,142.39362038423621L649.0684615384615,142.83367650955915L650.0938461538461,143.27413055797422L652.1446153846153,144.15620901683968L654.1953846153847,145.03980894635123L655.2207692307692,145.48215898126364L656.2461538461539,145.92488353202742L657.7842307692307,146.58964916815364L658.296923076923,146.81143277386826L658.8096153846154,147.033286601305L659.3223076923077,147.25523405770463L662.3984615384616,148.5887679681182L662.9111538461539,148.81132401277625L665.9873076923077,150.14846263825893L667.0126923076924,150.5948270149529L668.0380769230769,151.04153079663718L668.5507692307692,151.26499972368282L669.0634615384615,151.48855057607096L673.6776923076924,153.50400763005018L674.703076923077,153.95272443443537L676.2411538461539,154.62634971116984L678.291923076923,155.52553886299336L679.3173076923076,155.9755664728582L679.83,156.20067390675348L680.3426923076923,156.4258632659912L681.8807692307691,157.10182926679653L682.3934615384616,157.32728780930245L683.4188461538462,157.77839215223992L683.9315384615385,158.00404965629184L684.4442307692307,158.2297773820659L685.9823076923077,158.907323371619L686.495,159.13330857704085L691.621923076923,161.39647275581956L692.6473076923077,161.84982419386506L693.16,162.0765818382303L694.698076923077,162.75719417631626L695.2107692307692,162.98417418946826L695.7234615384616,163.21121272072196L697.2615384615385,163.8926560158531L697.7742307692307,164.11990521227324L698.2869230769231,164.34721292679512L705.9773076923077,167.7627155656616L707.5153846153846,168.44707306226098L708.5407692307692,168.90352595970035L709.0534615384615,169.131816778332L710.0788461538461,169.58852715541923L710.5915384615386,169.81693501025438L712.1296153846154,170.50241605440777L713.6676923076923,171.18823650355142L714.1803846153846,171.41692524527514L714.693076923077,171.64563739423954L715.2057692307692,171.87439635768533L716.2311538461538,172.3320196171602L717.2565384615385,172.7897716164589L718.2819230769231,173.2476640592019L719.3073076923076,173.70568524176878L719.82,173.9347484993438L720.8453846153847,174.39295693983638L721.8707692307692,174.85129412015283L722.8961538461538,175.30973663305247L723.4088461538462,175.53901055579388L723.9215384615385,175.76830788577598L724.4342307692308,175.99762862299883L724.9469230769231,176.22697276746237L730.0738461538461,178.52184205378097L732.1246153846154,179.44041240091127L734.1753846153846,180.35928704217076L734.6880769230769,180.58905251696706L735.2007692307692,180.81884139900404L736.2261538461538,181.27845427393913L737.7642307692307,181.96799647435546L739.3023076923077,182.6576557109753L740.3276923076922,183.11749095469713L741.3530769230769,183.57737301290035L741.8657692307693,183.80733744924265L742.8911538461538,184.26727802554763L744.9419230769231,185.1872762143612L745.4546153846153,185.41729916880524L745.9673076923077,185.64732212324935L746.9926923076923,186.10739143937826L747.5053846153846,186.3374260974427L749.0434615384617,187.02758858973777L749.5561538461538,187.25763495142257L750.0688461538462,187.48770472034812L750.5815384615383,187.71776278565324L751.0942307692308,187.94783255457878L751.6069230769232,188.1778906198839L754.1703846153847,189.32821605727077L754.6830769230769,189.55828582619625L755.7084615384616,190.01840195680654L757.7592307692307,190.93858740354574L758.2719230769231,191.16862206161022L759.2973076923078,191.62867967411876L761.3480769230769,192.54870127017296L762.3734615384616,193.00866525371868L764.4242307692308,193.92846448098618L764.9369230769231,194.1583821028471L765.4496153846154,194.38829972470796L765.9623076923077,194.6181939393282L766.9876923076923,195.07794725770748L768.5257692307692,195.7674777545035L769.0384615384614,195.99729004378116L770.0638461538462,196.4568678078552L770.5765384615385,196.6866215790311L771.0892307692308,196.9163753502071L774.1653846153847,198.29444153606892L775.1907692307692,198.7536330806712L775.7034615384615,198.98319959392148L776.7288461538462,199.44226239869988L777.2415384615384,199.67175869022805L778.7796153846153,200.36009541774786L779.2923076923078,200.5894980803132L781.8557692307693,201.73607835918665L782.3684615384615,201.965317171067L782.8811538461539,202.1945208720863L784.4192307692308,202.88195642083883L785.4446153846154,203.34009463960922L785.9573076923077,203.56911108270288L786.4699999999999,203.79810411855578L786.9826923076923,204.02706204354763L787.4953846153846,204.2559848576784L788.0080769230769,204.48487256094813L789.5461538461539,205.17132500559092L791.0842307692308,205.85746145248413L793.6476923076923,207.00027316560346L794.1603846153846,207.22871613129973L794.6730769230769,207.4571239861349L795.1857692307693,207.68548502648866L797.2365384615384,208.59853126481175L799.2873076923078,209.51087528591353L800.3126923076924,209.96678981681663L800.8253846153846,210.1946710087359L802.8761538461539,211.10573933521903L804.926923076923,212.01603522275883L808.5157692307693,213.60708389182884L809.0284615384616,213.83415753394365L809.5411538461539,214.06118436157703L811.0792307692308,214.74193714310724L812.1046153846154,215.19548754269874L812.6173076923078,215.42218666896224L813.6426923076923,215.87538595994312L814.1553846153846,216.10190953190124L814.6680769230769,216.3283628821373L815.6934615384615,216.78109402830398L816.2061538461538,217.00737182423472L817.7442307692309,217.68583069617546L826.46,221.5194100613395L826.9726923076923,221.7443068300684L827.4853846153845,221.96912167345482L827.998076923077,222.1938662951191L830.0488461538461,223.09213086093462L831.5869230769231,223.76505392044783L832.0996153846154,223.98920165747404L833.6376923076924,224.66121183459956L834.1503846153846,224.8850669811169L834.6630769230769,225.10882849867141L836.7138461538461,226.00312553718686L837.2265384615384,226.2265008352697L837.7392307692309,226.44979420801002L838.7646153846155,226.89612347384292L839.2773076923077,227.1191710705558L839.79,227.34213674192625L840.8153846153846,227.78781060501933L841.8407692307692,228.23315676674247L844.916923076923,229.5671120074888L845.9423076923076,230.01106543838978L848.5057692307691,231.11937487870455L849.0184615384616,231.3407605613271L853.6326923076922,233.329088623325L854.1453846153846,233.54953801631927L859.785,235.96800923720002L861.8357692307692,236.84443484743434L862.3484615384616,237.06328084444004L863.8865384615385,237.7191985435784L864.3992307692307,237.93762321025133L865.9373076923076,238.59226521477103L866.9626923076922,239.02816655486822L867.4753846153847,239.24594752242166L867.988076923077,239.4636231573919L871.5769230769231,240.98426284641027L872.0896153846154,241.20104900623357L872.6023076923077,241.41772983347374L873.115,241.63429362451035L874.1403846153846,242.06707009797293L874.653076923077,242.28329448401928L875.6784615384615,242.71538044388092L876.1911538461538,242.93125372131664L876.7038461538461,243.1470099625488L877.2165384615386,243.36263746395707L879.7800000000001,244.43905453880626L880.8053846153846,244.86877636735636L883.3688461538461,245.94096843525767L883.8815384615385,246.1550393551588L884.3942307692307,246.36899323885638L885.4196153846153,246.79651478677988L889.0084615384616,248.28887267721194L890.0338461538462,248.7141178709765L895.1607692307692,250.83250241416192L896.1861538461538,251.25458763043082L896.6988461538461,251.46543420292437L897.7242307692308,251.88671186938882L898.2369230769231,252.09714296335972L899.2623076923077,252.51760722820956L899.7750000000001,252.72762869546807L902.8511538461538,253.98487255660194L903.3638461538462,254.19392262337107L906.44,255.44525030441582L906.9526923076922,255.6533055634548L911.5669230769231,257.519266422838L912.0796153846153,257.72586458114284L913.6176923076923,258.34475202548003L914.6430769230768,258.7565965739389L916.6938461538462,259.57847746151185L919.77,260.8067138995975L920.7953846153847,261.21488936307526L921.3080769230769,261.41874302240706L922.3334615384616,261.8259821962565L923.8715384615384,262.4356588913748L924.8969230769231,262.84131807647645L925.4096153846153,263.04390774481L927.4603846153847,263.85266887396574L927.9730769230769,264.054456844305L928.9984615384616,264.45754123292863L929.5111538461538,264.65884350302315L930.0238461538462,264.85997607062257L930.5365384615384,265.0609506393472L932.0746153846154,265.662879537791L932.5873076923077,265.8631928519656L933.0999999999999,266.0633364636451L935.1507692307692,266.86225484808284L936.1761538461539,267.26071045485634L936.6888461538462,267.4596837045004L937.2015384615385,267.65848725164926L938.2269230769232,268.0555852384617L939.2523076923077,268.45199856348336L940.2776923076923,268.84772722671426L941.8157692307692,269.44002404560644L942.3284615384615,269.63711301237345L943.3538461538462,270.03076428299147L943.8665384615384,270.22732658684254L944.3792307692308,270.42371333638823L945.9173076923078,271.01182025919354L946.9426923076924,271.403007917727L947.4553846153847,271.5983354896307L948.9934615384615,272.18324147226906L949.5061538461539,272.37785512333113L951.0442307692308,272.96060763982433L952.5823076923077,273.54173335308826L953.0949999999999,273.7350771613419L953.6076923076923,273.9282337116698L954.1203846153846,274.12121470769245L955.6584615384614,274.69904000001645L957.7092307692308,275.4668852724135L958.7346153846154,275.8496931387732L959.2473076923078,276.0408132591595L959.76,276.2317461216201L961.2980769230769,276.80342116144794L961.8107692307693,276.9935991403957L962.8361538461538,277.37338747270405L964.886923076923,278.13067022773123L965.3996153846153,278.3195139939586L965.9123076923078,278.5081646504501L967.4503846153846,279.07295210969943L969.5011538461539,279.823277062426L970.0138461538461,280.0103711374104L971.0392307692308,280.3839682545513L971.551923076923,280.57047129670775L972.0646153846154,280.75677537731826L972.5773076923077,280.9428804963827L973.6026923076923,281.3144997016837L975.1407692307693,281.87043922394514L975.6534615384616,282.05535057373345L976.1661538461539,282.2400629619757L976.678846153846,282.4245705368618L978.7296153846154,283.16059366551536L979.2423076923078,283.3440888772408L981.8057692307693,284.258527846386L982.8311538461538,284.62286154801643L983.3438461538461,284.8047241047025L983.8565384615384,284.9863759962221L985.9073076923077,285.71091787330806L987.4453846153846,286.25213424116373L988.4707692307693,286.6118976790458L990.0088461538461,287.1499657730261L990.5215384615385,287.3288965728134L991.0342307692308,287.50761670743424L991.546923076923,287.6861261768887L992.0596153846154,287.86442498117685L993.085,288.22037303882337L994.1103846153845,288.57546673218405L995.6484615384616,289.10650095033145L996.1611538461539,289.2830793224275L997.1865384615385,289.63559236750007L997.6992307692308,289.8115211886664L998.2119230769231,289.9872334928562L999.75,290.5130654517561L1000.7753846153846,290.8625238519162L1001.2880769230769,291.0369253506263L1001.8007692307692,291.2111044805497L1002.3134615384615,291.3850670934965L1005.9023076923077,292.59659076171613L1006.415,292.7687744243691L1007.953076923077,293.28398534779745L1010.5165384615385,294.13816822754836L1012.5673076923076,294.81744050110376L1013.5926923076923,295.1557102402051L1015.6434615384616,295.8294935158143L1016.1561538461539,295.9973702461769L1017.1815384615385,296.33242148968077L1019.2323076923077,296.9997472927595L1019.745,297.1659972198928L1020.2576923076922,297.33201600052416L1021.2830769230769,297.66334841866046L1021.7957692307692,297.8286649820705L1022.3084615384615,297.9937474730735L1024.3592307692306,298.65172208348906L1026.41,299.3059164245302L1027.4353846153847,299.6315872163201L1027.948076923077,299.79406565179426L1028.9734615384616,300.1183056759958L1031.0242307692308,300.76391248560196L1032.0496153846154,301.0852704932913L1032.5623076923077,301.24558961081004L1034.1003846153847,301.7250898626322L1035.6384615384616,302.2024044633532L1037.6892307692308,302.8354064738378L1038.7146153846154,303.1504357488205L1040.7653846153846,303.77754498645663L1042.8161538461538,304.400698400413L1043.3288461538461,304.55586499907076L1043.8415384615384,304.710782895796L1045.8923076923077,305.3279616115615L1046.405,305.48163014681387L1046.9176923076923,305.63504705422866L1047.943076923077,305.9411289114505L1048.4557692307692,306.09379093535244L1048.9684615384615,306.2462013314167L1049.993846153846,306.55026431412745L1050.5065384615384,306.7019169007738L1052.0446153846153,307.1553502641618L1052.5573076923076,307.3059846358374L1053.5826923076922,307.6064926438654L1054.608076923077,307.9059765851125L1055.1207692307692,308.0553352621694L1055.6334615384617,308.2044364595786L1059.2223076923076,309.2409412631144L1060.2476923076922,309.53476065211L1060.7603846153847,309.68128120123095L1063.8365384615386,310.55493012753624L1064.3492307692306,310.6996219859769L1064.8619230769232,310.84405343886465L1065.3746153846153,310.9882244861995L1065.8873076923078,311.1321292761713L1066.9126923076922,311.4191517876461L1068.4507692307693,311.8477091059709L1072.0396153846154,312.83840008762974L1072.5523076923077,312.9788610873123L1073.065,313.11905875553686L1075.6284615384616,313.81602105125785L1077.6792307692308,314.3687537815422L1079.2173076923077,314.7804695901771L1079.73,314.91716787591577L1081.268076923077,315.3256300780922L1081.7807692307692,315.46123992713785L1082.2934615384615,315.5965805929154L1082.8061538461538,315.7316462236146L1083.3188461538462,315.86643681923545L1084.856923076923,316.2691759510586L1085.3696153846154,316.4028751840815L1085.8823076923077,316.53629938202596L1086.395,316.66944854489213L1088.4457692307692,317.1992919196685L1088.9584615384615,317.33106590714306L1089.4711538461538,317.46255900772906L1091.0092307692307,317.85538517311215L1092.0346153846153,318.11588142905384L1093.06,318.37526584106183L1094.0853846153846,318.63353840913624L1094.5980769230769,318.7622548257932L1095.1107692307692,318.8906903555617L1096.1361538461538,319.14672460624325L1096.6488461538463,319.27432332715637L1099.2123076923078,319.9080948506792L1100.7503846153847,320.2849777592346L1101.7757692307694,320.5348207947487L1103.3138461538463,320.9074582150206L1104.8519230769232,321.2775413201501L1105.3646153846153,321.40033277900267L1106.3899999999999,321.64506133242196L1107.4153846153847,321.88864585695165L1110.4915384615383,322.6125264794876L1111.0042307692308,322.7321667385598L1112.0296153846155,322.9705855776556L1113.055,323.2078501471939L1115.6184615384616,323.79595121818903L1117.6692307692308,324.26120816404L1118.181923076923,324.37679604456446L1118.6946153846154,324.4920913345801L1119.2073076923077,324.60709549703944L1125.3596153846154,325.9642985166671L1126.385,326.18638202765334L1127.4103846153846,326.40728493593633L1128.4357692307692,326.6270028526584L1128.9484615384615,326.73641853639856L1130.4865384615384,327.06288371142L1130.9992307692307,327.1711114776941L1131.511923076923,327.2790408016493L1132.0246153846153,327.3866731462379L1132.5373076923076,327.49400851146004L1133.05,327.6010439714106L1133.5626923076923,327.7077824519947L1134.5880769230769,327.9203626232532L1135.1007692307692,328.0262043139276L1135.6134615384615,328.1317460993305L1136.638846153846,328.34193141727394L1139.2023076923078,328.86214271249867L1140.7403846153845,329.17065745980165L1141.7657692307694,329.3748256539305L1142.2784615384614,329.4764555042299L1143.303846153846,329.67881110015634L1144.841923076923,329.9800710657922L1146.3799999999999,330.2785982360753L1147.4053846153845,330.47609829250723L1148.9434615384614,330.7700610508521L1149.456153846154,330.8674380981053L1150.4815384615385,331.0612778472714L1150.9942307692309,331.15773908623186L1152.5323076923075,331.44528387176496L1153.5576923076924,331.6354486841398L1154.0703846153847,331.73007099175203L1158.1719230769231,332.47596758712706L1158.6846153846154,332.5678161367153L1159.71,332.75058718693134L1162.2734615384616,333.2020982306761L1164.836923076923,333.64584831117344L1165.3496153846154,333.73366496354964L1165.8623076923077,333.8211700070339L1166.8876923076923,333.99524526732665L1167.4003846153846,334.08181475265883L1168.4257692307692,334.25401597074233L1169.4511538461538,334.424967827353L1170.9892307692307,334.6790461104829L1171.501923076923,334.7631124840118L1173.5526923076923,335.09623701901484L1176.1161538461538,335.5055667520501L1177.1415384615384,335.6670920739416L1180.2176923076925,336.1440870195317L1180.7303846153845,336.2224786001413L1181.243076923077,336.30055345152505L1181.7557692307691,336.3783108422067L1182.2684615384615,336.4557515036625L1183.8065384615386,336.68616799234104L1184.831923076923,336.8381899745048L1186.3700000000001,337.0638357749364L1186.8826923076922,337.1384141697393L1188.420769230769,337.36023508074385L1189.446153846154,337.50651936302893L1190.4715384615386,337.6515250247903L1190.9842307692306,337.7235483729746L1191.4969230769232,337.7952513345517L1193.5476923076922,338.07885858331184L1195.5984615384616,338.35733306307037L1196.111153846154,338.42614815632504L1196.6238461538462,338.49464140001993L1198.6746153846154,338.76539734215476L1199.1873076923077,338.83228060657467L1200.2126923076924,338.9650793923065L1200.7253846153847,339.0309949136184L1201.7507692307693,339.1618574816578L1202.2634615384616,339.2268037969091L1202.7761538461539,339.29142679964815L1203.8015384615385,339.41970286758925L1204.3142307692308,339.483354835577L1204.826923076923,339.5466834910524L1205.3396153846154,339.60968773680116L1206.8776923076923,339.7967558443779L1207.903076923077,339.91984501407325L1208.4157692307692,339.9809028014618L1211.491923076923,340.3404197318402L1212.0046153846154,340.3992000678554L1212.5173076923077,340.4576545311914L1214.568076923077,340.688211097576L1215.5934615384615,340.80153140165686L1216.618846153846,340.9135449233775L1218.6696153846153,341.1336472308806L1222.2584615384617,341.5062169895973L1223.7965384615386,341.6609688412088L1224.8219230769232,341.7624940904013L1225.8473076923076,341.86270414525643L1226.3600000000001,341.91231579193845L1227.3853846153847,342.0105519580732L1228.4107692307691,342.10747110118L1229.4361538461537,342.2030717583063L1229.9488461538463,342.2503777917785L1230.4615384615386,342.29735392945196L1230.9742307692306,342.34400017132674L1231.9996153846153,342.43630260194186L1232.5123076923078,342.48195842494414L1234.0503846153847,342.6169439589915L1234.5630769230768,342.66127800437L1236.1011538461537,342.7922958282482L1237.6392307692308,342.9203348978772L1239.69,343.08641585399164L1242.7661538461539,343.3255875650405L1243.2788461538462,343.3642875973019L1244.816923076923,343.4783940555062L1245.3296153846154,343.51576481251203L1246.355,343.58950877575745L1247.3803846153846,343.66192181792576L1247.893076923077,343.6976291978887L1248.9184615384615,343.768045126965L1249.4311538461538,343.8027534932092L1250.4565384615385,343.87117066337186L1250.9692307692308,343.9048794672902L1251.481923076923,343.93825490089756L1251.9946153846154,343.9712967813248L1253.02,344.0363802483771L1254.0453846153846,344.1001289541018L1254.558076923077,344.13150279432494L1256.6088461538461,344.25365878316614L1257.1215384615384,344.28336266305996L1258.146923076923,344.34176784318214L1259.685,344.4268683412908L1260.7103846153846,344.4819297605039L1262.2484615384617,344.56201214851654L1265.3246153846153,344.71313688359805L1268.4007692307694,344.8521983863029L1270.4515384615383,344.93819896596443L1271.9896153846153,344.9991760166595L1274.5530769230768,345.09408981756616L1275.5784615384614,345.1297042543253L1277.1165384615383,345.1806059508478L1280.1926923076924,345.273333872067L1280.7053846153847,345.28761169457476L1281.7307692307693,345.3151583366489L1283.2688461538462,345.3539553580922L1283.7815384615385,345.3662147861202L1284.806923076923,345.389724182062L1285.3196153846154,345.4009740813999L1285.8323076923077,345.41188741021807L1290.4465384615385,345.494958238826L1290.9592307692308,345.5025047366592L1291.471923076923,345.50971444681574L1291.9846153846154,345.51658735786623L1293.01,345.5293227197878L1294.0353846153846,345.54071071955997L1295.5734615384615,345.555266197317L1296.0861538461538,345.5594442397737L1298.136923076923,345.572787272751L1299.1623076923076,345.5774372066948L1299.675,345.5792567585649L1300.1876923076923,345.5807393613192L1300.7003846153846,345.5818850121896L1301.7257692307692,345.5831654488697" style="fill: none;" fill="none"></path></g></g></g></g></g></g><g transform="translate(60, 377)" clip-path="url(#clip_1)"><clipPath id="clip_1"><rect width="1333" height="23"></rect></clipPath><g><g><line x1="0" y1="0" x2="0" y2="5" style="visibility: inherit;" fill="rgb(0, 0, 0)" stroke="rgb(204, 204, 204)" stroke-width="1px"></line><line x1="102.53846153846155" y1="0" x2="102.53846153846155" y2="5" style="visibility: inherit;" fill="rgb(0, 0, 0)" stroke="rgb(204, 204, 204)" stroke-width="1px"></line><line x1="205.0769230769231" y1="0" x2="205.0769230769231" y2="5" style="visibility: inherit;" fill="rgb(0, 0, 0)" stroke="rgb(204, 204, 204)" stroke-width="1px"></line><line x1="307.61538461538464" y1="0" x2="307.61538461538464" y2="5" style="visibility: inherit;" fill="rgb(0, 0, 0)" stroke="rgb(204, 204, 204)" stroke-width="1px"></line><line x1="410.1538461538462" y1="0" x2="410.1538461538462" y2="5" style="visibility: inherit;" fill="rgb(0, 0, 0)" stroke="rgb(204, 204, 204)" stroke-width="1px"></line><line x1="512.6923076923077" y1="0" x2="512.6923076923077" y2="5" style="visibility: inherit;" fill="rgb(0, 0, 0)" stroke="rgb(204, 204, 204)" stroke-width="1px"></line><line x1="615.2307692307693" y1="0" x2="615.2307692307693" y2="5" style="visibility: inherit;" fill="rgb(0, 0, 0)" stroke="rgb(204, 204, 204)" stroke-width="1px"></line><line x1="717.7692307692307" y1="0" x2="717.7692307692307" y2="5" style="visibility: inherit;" fill="rgb(0, 0, 0)" stroke="rgb(204, 204, 204)" stroke-width="1px"></line><line x1="820.3076923076924" y1="0" x2="820.3076923076924" y2="5" style="visibility: inherit;" fill="rgb(0, 0, 0)" stroke="rgb(204, 204, 204)" stroke-width="1px"></line><line x1="922.8461538461538" y1="0" x2="922.8461538461538" y2="5" style="visibility: inherit;" fill="rgb(0, 0, 0)" stroke="rgb(204, 204, 204)" stroke-width="1px"></line><line x1="1025.3846153846155" y1="0" x2="1025.3846153846155" y2="5" style="visibility: inherit;" fill="rgb(0, 0, 0)" stroke="rgb(204, 204, 204)" stroke-width="1px"></line><line x1="1127.923076923077" y1="0" x2="1127.923076923077" y2="5" style="visibility: inherit;" fill="rgb(0, 0, 0)" stroke="rgb(204, 204, 204)" stroke-width="1px"></line><line x1="1230.4615384615386" y1="0" x2="1230.4615384615386" y2="5" style="visibility: inherit;" fill="rgb(0, 0, 0)" stroke="rgb(204, 204, 204)" stroke-width="1px"></line><line x1="1333" y1="0" x2="1333" y2="5" style="visibility: inherit;" fill="rgb(0, 0, 0)" stroke="rgb(204, 204, 204)" stroke-width="1px"></line></g><g transform="translate(0, 8)"><text x="0" y="0" dx="0em" dy="0.95em" style="text-anchor: middle; visibility: hidden; font-family: Roboto, sans-serif; font-size: 12px; font-weight: 200;" fill="rgb(255, 255, 255)" stroke="none" stroke-width="1px">-2k</text><text x="102.53846153846155" y="0" dx="0em" dy="0.95em" style="text-anchor: middle; visibility: inherit; font-family: Roboto, sans-serif; font-size: 12px; font-weight: 200;" fill="rgb(255, 255, 255)" stroke="none" stroke-width="1px">0</text><text x="205.0769230769231" y="0" dx="0em" dy="0.95em" style="text-anchor: middle; visibility: inherit; font-family: Roboto, sans-serif; font-size: 12px; font-weight: 200;" fill="rgb(255, 255, 255)" stroke="none" stroke-width="1px">2k</text><text x="307.61538461538464" y="0" dx="0em" dy="0.95em" style="text-anchor: middle; visibility: inherit; font-family: Roboto, sans-serif; font-size: 12px; font-weight: 200;" fill="rgb(255, 255, 255)" stroke="none" stroke-width="1px">4k</text><text x="410.1538461538462" y="0" dx="0em" dy="0.95em" style="text-anchor: middle; visibility: inherit; font-family: Roboto, sans-serif; font-size: 12px; font-weight: 200;" fill="rgb(255, 255, 255)" stroke="none" stroke-width="1px">6k</text><text x="512.6923076923077" y="0" dx="0em" dy="0.95em" style="text-anchor: middle; visibility: inherit; font-family: Roboto, sans-serif; font-size: 12px; font-weight: 200;" fill="rgb(255, 255, 255)" stroke="none" stroke-width="1px">8k</text><text x="615.2307692307693" y="0" dx="0em" dy="0.95em" style="text-anchor: middle; visibility: inherit; font-family: Roboto, sans-serif; font-size: 12px; font-weight: 200;" fill="rgb(255, 255, 255)" stroke="none" stroke-width="1px">10k</text><text x="717.7692307692307" y="0" dx="0em" dy="0.95em" style="text-anchor: middle; visibility: inherit; font-family: Roboto, sans-serif; font-size: 12px; font-weight: 200;" fill="rgb(255, 255, 255)" stroke="none" stroke-width="1px">12k</text><text x="820.3076923076924" y="0" dx="0em" dy="0.95em" style="text-anchor: middle; visibility: inherit; font-family: Roboto, sans-serif; font-size: 12px; font-weight: 200;" fill="rgb(255, 255, 255)" stroke="none" stroke-width="1px">14k</text><text x="922.8461538461538" y="0" dx="0em" dy="0.95em" style="text-anchor: middle; visibility: inherit; font-family: Roboto, sans-serif; font-size: 12px; font-weight: 200;" fill="rgb(255, 255, 255)" stroke="none" stroke-width="1px">16k</text><text x="1025.3846153846155" y="0" dx="0em" dy="0.95em" style="text-anchor: middle; visibility: inherit; font-family: Roboto, sans-serif; font-size: 12px; font-weight: 200;" fill="rgb(255, 255, 255)" stroke="none" stroke-width="1px">18k</text><text x="1127.923076923077" y="0" dx="0em" dy="0.95em" style="text-anchor: middle; visibility: inherit; font-family: Roboto, sans-serif; font-size: 12px; font-weight: 200;" fill="rgb(255, 255, 255)" stroke="none" stroke-width="1px">20k</text><text x="1230.4615384615386" y="0" dx="0em" dy="0.95em" style="text-anchor: middle; visibility: inherit; font-family: Roboto, sans-serif; font-size: 12px; font-weight: 200;" fill="rgb(255, 255, 255)" stroke="none" stroke-width="1px">22k</text><text x="1333" y="0" dx="0em" dy="0.95em" style="text-anchor: middle; visibility: hidden; font-family: Roboto, sans-serif; font-size: 12px; font-weight: 200;" fill="rgb(255, 255, 255)" stroke="none" stroke-width="1px">24k</text></g><line x1="0" y1="0" x2="1333" y2="0" fill="rgb(0, 0, 0)" stroke="rgb(204, 204, 204)" stroke-width="1px"></line></g></g></g></g></svg>