<svg viewBox="0 0 1378 400" xmlns="http://www.w3.org/2000/svg"><g><g><g><g><g><line x1="30" y1="377" x2="25" y2="377" style="visibility: inherit;" fill="rgb(0, 0, 0)" stroke="rgb(204, 204, 204)" stroke-width="1px"></line><line x1="30" y1="342.7272727272727" x2="25" y2="342.7272727272727" style="visibility: inherit;" fill="rgb(0, 0, 0)" stroke="rgb(204, 204, 204)" stroke-width="1px"></line><line x1="30" y1="308.45454545454544" x2="25" y2="308.45454545454544" style="visibility: inherit;" fill="rgb(0, 0, 0)" stroke="rgb(204, 204, 204)" stroke-width="1px"></line><line x1="30" y1="274.1818181818182" x2="25" y2="274.1818181818182" style="visibility: inherit;" fill="rgb(0, 0, 0)" stroke="rgb(204, 204, 204)" stroke-width="1px"></line><line x1="30" y1="239.9090909090909" x2="25" y2="239.9090909090909" style="visibility: inherit;" fill="rgb(0, 0, 0)" stroke="rgb(204, 204, 204)" stroke-width="1px"></line><line x1="30" y1="205.63636363636363" x2="25" y2="205.63636363636363" style="visibility: inherit;" fill="rgb(0, 0, 0)" stroke="rgb(204, 204, 204)" stroke-width="1px"></line><line x1="30" y1="171.36363636363637" x2="25" y2="171.36363636363637" style="visibility: inherit;" fill="rgb(0, 0, 0)" stroke="rgb(204, 204, 204)" stroke-width="1px"></line><line x1="30" y1="137.0909090909091" x2="25" y2="137.0909090909091" style="visibility: inherit;" fill="rgb(0, 0, 0)" stroke="rgb(204, 204, 204)" stroke-width="1px"></line><line x1="30" y1="102.81818181818181" x2="25" y2="102.81818181818181" style="visibility: inherit;" fill="rgb(0, 0, 0)" stroke="rgb(204, 204, 204)" stroke-width="1px"></line><line x1="30" y1="68.54545454545453" x2="25" y2="68.54545454545453" style="visibility: inherit;" fill="rgb(0, 0, 0)" stroke="rgb(204, 204, 204)" stroke-width="1px"></line><line x1="30" y1="34.27272727272729" x2="25" y2="34.27272727272729" style="visibility: inherit;" fill="rgb(0, 0, 0)" stroke="rgb(204, 204, 204)" stroke-width="1px"></line><line x1="30" y1="0" x2="25" y2="0" style="visibility: inherit;" fill="rgb(0, 0, 0)" stroke="rgb(204, 204, 204)" stroke-width="1px"></line></g><g transform="translate(20, 0)"><text x="0" y="377" dx="0em" dy="0.3em" style="text-anchor: end; visibility: hidden; font-family: Roboto, sans-serif; font-size: 12px; font-weight: 200;" fill="rgb(255, 255, 255)" stroke="none" stroke-width="1px">-5</text><text x="0" y="342.7272727272727" dx="0em" dy="0.3em" style="text-anchor: end; visibility: inherit; font-family: Roboto, sans-serif; font-size: 12px; font-weight: 200;" fill="rgb(255, 255, 255)" stroke="none" stroke-width="1px">0</text><text x="0" y="308.45454545454544" dx="0em" dy="0.3em" style="text-anchor: end; visibility: inherit; font-family: Roboto, sans-serif; font-size: 12px; font-weight: 200;" fill="rgb(255, 255, 255)" stroke="none" stroke-width="1px">5</text><text x="0" y="274.1818181818182" dx="0em" dy="0.3em" style="text-anchor: end; visibility: inherit; font-family: Roboto, sans-serif; font-size: 12px; font-weight: 200;" fill="rgb(255, 255, 255)" stroke="none" stroke-width="1px">10</text><text x="0" y="239.9090909090909" dx="0em" dy="0.3em" style="text-anchor: end; visibility: inherit; font-family: Roboto, sans-serif; font-size: 12px; font-weight: 200;" fill="rgb(255, 255, 255)" stroke="none" stroke-width="1px">15</text><text x="0" y="205.63636363636363" dx="0em" dy="0.3em" style="text-anchor: end; visibility: inherit; font-family: Roboto, sans-serif; font-size: 12px; font-weight: 200;" fill="rgb(255, 255, 255)" stroke="none" stroke-width="1px">20</text><text x="0" y="171.36363636363637" dx="0em" dy="0.3em" style="text-anchor: end; visibility: inherit; font-family: Roboto, sans-serif; font-size: 12px; font-weight: 200;" fill="rgb(255, 255, 255)" stroke="none" stroke-width="1px">25</text><text x="0" y="137.0909090909091" dx="0em" dy="0.3em" style="text-anchor: end; visibility: inherit; font-family: Roboto, sans-serif; font-size: 12px; font-weight: 200;" fill="rgb(255, 255, 255)" stroke="none" stroke-width="1px">30</text><text x="0" y="102.81818181818181" dx="0em" dy="0.3em" style="text-anchor: end; visibility: inherit; font-family: Roboto, sans-serif; font-size: 12px; font-weight: 200;" fill="rgb(255, 255, 255)" stroke="none" stroke-width="1px">35</text><text x="0" y="68.54545454545453" dx="0em" dy="0.3em" style="text-anchor: end; visibility: inherit; font-family: Roboto, sans-serif; font-size: 12px; font-weight: 200;" fill="rgb(255, 255, 255)" stroke="none" stroke-width="1px">40</text><text x="0" y="34.27272727272729" dx="0em" dy="0.3em" style="text-anchor: end; visibility: inherit; font-family: Roboto, sans-serif; font-size: 12px; font-weight: 200;" fill="rgb(255, 255, 255)" stroke="none" stroke-width="1px">45</text><text x="0" y="0" dx="0em" dy="0.3em" style="text-anchor: end; visibility: hidden; font-family: Roboto, sans-serif; font-size: 12px; font-weight: 200;" fill="rgb(255, 255, 255)" stroke="none" stroke-width="1px">50</text></g><line x1="30" y1="0" x2="30" y2="377" fill="rgb(0, 0, 0)" stroke="rgb(204, 204, 204)" stroke-width="1px"></line></g></g><g transform="translate(30, 0)" clip-path="url(#clip_0)"><clipPath id="clip_0"><rect width="1348" height="377"></rect></clipPath><g><g><g><line x1="0" y1="0" x2="0" y2="377" fill="rgb(0, 0, 0)" stroke="rgb(189, 189, 189)" stroke-width="1px" opacity="0.25"></line><line x1="96.28571428571428" y1="0" x2="96.28571428571428" y2="377" fill="rgb(0, 0, 0)" stroke="rgb(189, 189, 189)" stroke-width="1px" opacity="0.25"></line><line x1="192.57142857142856" y1="0" x2="192.57142857142856" y2="377" fill="rgb(0, 0, 0)" stroke="rgb(189, 189, 189)" stroke-width="1px" opacity="0.25"></line><line x1="288.85714285714283" y1="0" x2="288.85714285714283" y2="377" fill="rgb(0, 0, 0)" stroke="rgb(189, 189, 189)" stroke-width="1px" opacity="0.25"></line><line x1="385.1428571428571" y1="0" x2="385.1428571428571" y2="377" fill="rgb(0, 0, 0)" stroke="rgb(189, 189, 189)" stroke-width="1px" opacity="0.25"></line><line x1="481.42857142857144" y1="0" x2="481.42857142857144" y2="377" fill="rgb(0, 0, 0)" stroke="rgb(189, 189, 189)" stroke-width="1px" opacity="0.25"></line><line x1="577.7142857142857" y1="0" x2="577.7142857142857" y2="377" fill="rgb(0, 0, 0)" stroke="rgb(189, 189, 189)" stroke-width="1px" opacity="0.25"></line><line x1="674" y1="0" x2="674" y2="377" fill="rgb(0, 0, 0)" stroke="rgb(189, 189, 189)" stroke-width="1px" opacity="0.25"></line><line x1="770.2857142857142" y1="0" x2="770.2857142857142" y2="377" fill="rgb(0, 0, 0)" stroke="rgb(189, 189, 189)" stroke-width="1px" opacity="0.25"></line><line x1="866.5714285714287" y1="0" x2="866.5714285714287" y2="377" fill="rgb(0, 0, 0)" stroke="rgb(189, 189, 189)" stroke-width="1px" opacity="0.25"></line><line x1="962.8571428571429" y1="0" x2="962.8571428571429" y2="377" fill="rgb(0, 0, 0)" stroke="rgb(189, 189, 189)" stroke-width="1px" opacity="0.25"></line><line x1="1059.142857142857" y1="0" x2="1059.142857142857" y2="377" fill="rgb(0, 0, 0)" stroke="rgb(189, 189, 189)" stroke-width="1px" opacity="0.25"></line><line x1="1155.4285714285713" y1="0" x2="1155.4285714285713" y2="377" fill="rgb(0, 0, 0)" stroke="rgb(189, 189, 189)" stroke-width="1px" opacity="0.25"></line><line x1="1251.7142857142858" y1="0" x2="1251.7142857142858" y2="377" fill="rgb(0, 0, 0)" stroke="rgb(189, 189, 189)" stroke-width="1px" opacity="0.25"></line><line x1="1348" y1="0" x2="1348" y2="377" fill="rgb(0, 0, 0)" stroke="rgb(189, 189, 189)" stroke-width="1px" opacity="0.25"></line></g><g><line x1="0" y1="377" x2="1348" y2="377" fill="rgb(0, 0, 0)" stroke="rgb(189, 189, 189)" stroke-width="1px" opacity="0.25"></line><line x1="0" y1="342.7272727272727" x2="1348" y2="342.7272727272727" fill="rgb(0, 0, 0)" stroke="rgb(189, 189, 189)" stroke-width="1px" opacity="0.25"></line><line x1="0" y1="308.45454545454544" x2="1348" y2="308.45454545454544" fill="rgb(0, 0, 0)" stroke="rgb(189, 189, 189)" stroke-width="1px" opacity="0.25"></line><line x1="0" y1="274.1818181818182" x2="1348" y2="274.1818181818182" fill="rgb(0, 0, 0)" stroke="rgb(189, 189, 189)" stroke-width="1px" opacity="0.25"></line><line x1="0" y1="239.9090909090909" x2="1348" y2="239.9090909090909" fill="rgb(0, 0, 0)" stroke="rgb(189, 189, 189)" stroke-width="1px" opacity="0.25"></line><line x1="0" y1="205.63636363636363" x2="1348" y2="205.63636363636363" fill="rgb(0, 0, 0)" stroke="rgb(189, 189, 189)" stroke-width="1px" opacity="0.25"></line><line x1="0" y1="171.36363636363637" x2="1348" y2="171.36363636363637" fill="rgb(0, 0, 0)" stroke="rgb(189, 189, 189)" stroke-width="1px" opacity="0.25"></line><line x1="0" y1="137.0909090909091" x2="1348" y2="137.0909090909091" fill="rgb(0, 0, 0)" stroke="rgb(189, 189, 189)" stroke-width="1px" opacity="0.25"></line><line x1="0" y1="102.81818181818181" x2="1348" y2="102.81818181818181" fill="rgb(0, 0, 0)" stroke="rgb(189, 189, 189)" stroke-width="1px" opacity="0.25"></line><line x1="0" y1="68.54545454545453" x2="1348" y2="68.54545454545453" fill="rgb(0, 0, 0)" stroke="rgb(189, 189, 189)" stroke-width="1px" opacity="0.25"></line><line x1="0" y1="34.27272727272729" x2="1348" y2="34.27272727272729" fill="rgb(0, 0, 0)" stroke="rgb(189, 189, 189)" stroke-width="1px" opacity="0.25"></line><line x1="0" y1="0" x2="1348" y2="0" fill="rgb(0, 0, 0)" stroke="rgb(189, 189, 189)" stroke-width="1px" opacity="0.25"></line></g></g></g><g><g><line x1="0" y1="342.7272727272727" x2="1348" y2="342.7272727272727" fill="rgb(0, 0, 0)" stroke="rgb(153, 153, 153)" stroke-width="1.5px"></line></g></g><g><g><line x1="96.28571428571428" y1="0" x2="96.28571428571428" y2="377" fill="rgb(0, 0, 0)" stroke="rgb(153, 153, 153)" stroke-width="1.5px"></line></g></g><g><g><g><g><g><path stroke="rgb(51, 187, 238)" stroke-width="2px" d="M115.54285714285714,335.8727272727273L134.8,334.84454541368916L154.05714285714285,327.640278139716L173.3142857142857,314.0982051309895L192.57142857142856,297.5583874860778L211.82857142857142,279.869904721899L231.0857142857143,264.0175979856992L250.34285714285716,248.1022959125156L269.6,238.83673031277502L288.85714285714283,227.15848049571153L308.1142857142857,216.6195427864862L327.37142857142857,203.50616230589398L346.6285714285714,191.84031698966845L365.88571428571424,181.4754835503251L385.1428571428571,171.66831426417127L404.4,163.07179933242654L423.65714285714284,162.0288662837259L442.9142857142857,156.90618258398757L462.1714285714286,145.11339136354158L481.42857142857144,141.38331515815824L500.6857142857143,134.8406085766749L519.9428571428572,133.54725930547178L539.2,127.9182028747506L558.4571428571429,119.85226867050615L577.7142857142857,118.49485285427313L596.9714285714285,114.47246765073677L616.2285714285714,110.88005705835324L635.4857142857143,105.18766291929943L654.7428571428571,102.32059460334834L674,99.4762090051711L693.2571428571428,96.72768407283915L712.5142857142857,94.4479523698668L731.7714285714285,91.59953952431718L751.0285714285715,89.3969637804346L770.2857142857142,83.99010461130382L789.5428571428572,81.70562135916371L808.8,80.0059161676835L828.0571428571429,78.73932900387928L847.3142857142857,76.69072927254152L866.5714285714287,74.9680413265364L885.8285714285714,72.31675541346864L905.0857142857142,69.76634122736696L924.3428571428572,66.89260766416815L943.5999999999999,64.72967703598127L962.8571428571429,62.033585529280806L982.1142857142856,59.15469677193444L1001.3714285714286,57.070924225414025L1020.6285714285714,54.669102081581194L1039.8857142857144,53.886039301805695L1059.142857142857,52.401731835243986L1078.4,51.04504328482232L1097.6571428571428,49.62782680762575L1116.9142857142858,47.9275295196311L1136.1714285714286,47.72989450954125L1155.4285714285713,47.6387375424612L1174.6857142857143,46.87116477778469L1193.942857142857,45.039712028069566L1213.2,44.54404372518684L1232.4571428571428,43.56118819800267L1251.7142857142858,43.62951584737935" style="fill: none;" fill="none"></path></g><g><path stroke="rgb(0, 119, 187)" stroke-width="2px" d="M115.54285714285714,335.971590877663L134.8,335.57253206629645L154.05714285714285,331.36958437127396L173.3142857142857,322.66243191608055L192.57142857142856,310.7023900818527L211.82857142857142,296.11668175585834L231.0857142857143,281.52137815000526L250.34285714285716,267.5751755511281L269.6,255.22815675525945L288.85714285714283,243.03180199235885L308.1142857142857,232.06527874768378L327.37142857142857,222.82198247881118L346.6285714285714,213.75265072649668L365.88571428571424,205.37514031308567L385.1428571428571,196.87174715565766L404.4,189.56919146750556L423.65714285714284,182.947686283907L442.9142857142857,176.86619261211558L462.1714285714286,171.69619762553526L481.42857142857144,165.65310315444913L500.6857142857143,159.99240005652337L519.9428571428572,155.09386054107952L539.2,150.58942522752415L558.4571428571429,146.54113555189704L577.7142857142857,142.25572760818235L596.9714285714285,138.2976550412104L616.2285714285714,134.40141288395031L635.4857142857143,130.2951061700702L654.7428571428571,126.57355666564067L674,123.47282730026653L693.2571428571428,119.73397917057758L712.5142857142857,115.94729954339587L731.7714285714285,112.6454679972127L751.0285714285715,109.70593977172385L770.2857142857142,105.88530488067339L789.5428571428572,102.65097831629737L808.8,99.49654966113035L828.0571428571429,96.13192653267545L847.3142857142857,92.67139290585862L866.5714285714287,89.24119122987439L885.8285714285714,86.13127152032025L905.0857142857142,82.48852018472007L924.3428571428572,78.83364375373094L943.5999999999999,75.42689562442885L962.8571428571429,72.1799961833575L982.1142857142856,68.55392788556959L1001.3714285714286,64.7140807524161L1020.6285714285714,61.547863207459905L1039.8857142857144,58.17066519560413L1059.142857142857,55.424847126484465L1078.4,53.28303327588031L1097.6571428571428,50.53696118977445L1116.9142857142858,47.80731304420437L1136.1714285714286,45.36213618411953L1155.4285714285713,42.716905068069465L1174.6857142857143,40.88809597718688L1193.942857142857,38.93674311210183L1213.2,37.48307261730525L1232.4571428571428,36.42138087950951L1251.7142857142858,36.02053471556078" style="fill: none;" fill="none"></path></g></g></g></g><g opacity="0.2"><g><g><g><path stroke="rgb(51, 187, 238)" stroke-width="2px" d="M115.54285714285714,335.8727272727273L134.8,334.2276362982663L154.05714285714285,320.72418155670164L173.3142857142857,298.1727272727273L192.57142857142856,275.9640015688809L211.82857142857142,255.40036520524458L231.0857142857143,241.3485457160256L250.34285714285716,224.89763270291414L269.6,225.17182079661976L288.85714285714283,209.81764054731892L308.1142857142857,200.90672361200507L327.37142857142857,183.90745402249425L346.6285714285714,174.3796400243586L365.88571428571424,165.94853917902168L385.1428571428571,156.96908829428932L404.4,150.18308986317027L423.65714285714284,160.46490804498848L442.9142857142857,149.22345768321645L462.1714285714286,127.42600104592063L481.42857142857144,135.78854179382324L500.6857142857143,125.02690752202814L519.9428571428572,131.6072779568759L539.2,119.47472936456853L558.4571428571429,107.75346291281961L577.7142857142857,116.45873877785422L596.9714285714285,108.43890699906781L616.2285714285714,105.49145036177201L635.4857142857143,96.6490804498846L654.7428571428571,98.01999477039685L674,95.20963217995384L693.2571428571428,92.60489758578214L712.5142857142857,91.0283552689986L731.7714285714285,87.32692059603605L751.0285714285715,86.0931003223766L770.2857142857142,75.87981608997693L789.5428571428572,78.27889653986152L808.8,77.45635840676047L828.0571428571429,76.83944826993073L847.3142857142857,73.61782968694513L866.5714285714287,72.38400941328568L885.8285714285714,68.33982654918323L905.0857142857142,65.94071995128286L924.3428571428572,62.58200732144442L943.5999999999999,61.48528109463777L962.8571428571429,57.989448269930755L982.1142857142856,54.83636363636366L1001.3714285714286,53.9452654058283L1020.6285714285714,51.06636886596681L1039.8857142857144,52.711445132168855L1059.142857142857,50.17527063543145L1078.4,49.010010459206306L1097.6571428571428,47.502002091841256L1116.9142857142858,45.377083587646496L1136.1714285714286,47.43344199440695L1155.4285714285713,47.502002091841256L1174.6857142857143,45.719805630770594L1193.942857142857,42.292532903497886L1213.2,43.800541270862944L1232.4571428571428,42.08690490722655L1251.7142857142858,43.73200732144441" style="fill: none;" fill="none"></path></g><g><path stroke="rgb(0, 119, 187)" stroke-width="2px" d="M115.54285714285714,335.971590877663L134.8,335.3330967794765L154.05714285714285,327.33475458405235L173.3142857142857,312.4228206287731L192.57142857142856,295.08735946308485L211.82857142857142,275.9393962860107L231.0857142857143,260.6498604687778L250.34285714285716,247.2414782784202L269.6,237.0187023162842L288.85714285714283,224.9216365814209L308.1142857142857,215.71495943936438L327.37142857142857,209.00733968561343L346.6285714285714,200.17826603976167L365.88571428571424,192.82528710798786L385.1428571428571,184.1266528389671L404.4,178.62050826332788L423.65714285714284,173.01823050759057L442.9142857142857,167.7454961950129L462.1714285714286,163.94199274236507L481.42857142857144,156.58901381059127L500.6857142857143,151.5016558560458L519.9428571428572,147.7462124564431L539.2,143.83286118940873L558.4571428571429,140.46874899430708L577.7142857142857,135.82764615145598L596.9714285714285,132.36056307012382L616.2285714285714,128.55705961747603L635.4857142857143,124.135652403398L654.7428571428571,120.99123583706941L674,118.8217349659313L693.2571428571428,114.1257082158869L712.5142857142857,110.2672808560458L731.7714285714285,107.69272107211029L751.0285714285715,105.29664764404299L770.2857142857142,100.15435270829633L789.5428571428572,97.79948855313388L808.8,94.76490672718397L828.0571428571429,91.0849918712269L847.3142857142857,87.48059248490769L866.5714285714287,84.09588872736151L885.8285714285714,81.46639196222479L905.0857142857142,77.02439318570222L924.3428571428572,73.35132910988548L943.5999999999999,70.31677343195133L962.8571428571429,67.30964702259409L982.1142857142856,63.114825439453114L1001.3714285714286,58.9543100530451L1020.6285714285714,56.7985368902033L1039.8857142857144,53.104868177934115L1059.142857142857,51.306120022860426L1078.4,50.0703125L1097.6571428571428,46.41785306063567L1116.9142857142858,43.712840825861136L1136.1714285714286,41.69437089399859L1155.4285714285713,38.74905839399859L1174.6857142857143,38.1448823408647L1193.942857142857,36.00971381447531L1213.2,35.30256687511099L1232.4571428571428,34.82884327281603L1251.7142857142858,35.419265469637786" style="fill: none;" fill="none"></path></g></g></g></g></g></g><g transform="translate(30, 377)" clip-path="url(#clip_1)"><clipPath id="clip_1"><rect width="1348" height="23"></rect></clipPath><g><g><line x1="0" y1="0" x2="0" y2="5" style="visibility: inherit;" fill="rgb(0, 0, 0)" stroke="rgb(204, 204, 204)" stroke-width="1px"></line><line x1="96.28571428571428" y1="0" x2="96.28571428571428" y2="5" style="visibility: inherit;" fill="rgb(0, 0, 0)" stroke="rgb(204, 204, 204)" stroke-width="1px"></line><line x1="192.57142857142856" y1="0" x2="192.57142857142856" y2="5" style="visibility: inherit;" fill="rgb(0, 0, 0)" stroke="rgb(204, 204, 204)" stroke-width="1px"></line><line x1="288.85714285714283" y1="0" x2="288.85714285714283" y2="5" style="visibility: inherit;" fill="rgb(0, 0, 0)" stroke="rgb(204, 204, 204)" stroke-width="1px"></line><line x1="385.1428571428571" y1="0" x2="385.1428571428571" y2="5" style="visibility: inherit;" fill="rgb(0, 0, 0)" stroke="rgb(204, 204, 204)" stroke-width="1px"></line><line x1="481.42857142857144" y1="0" x2="481.42857142857144" y2="5" style="visibility: inherit;" fill="rgb(0, 0, 0)" stroke="rgb(204, 204, 204)" stroke-width="1px"></line><line x1="577.7142857142857" y1="0" x2="577.7142857142857" y2="5" style="visibility: inherit;" fill="rgb(0, 0, 0)" stroke="rgb(204, 204, 204)" stroke-width="1px"></line><line x1="674" y1="0" x2="674" y2="5" style="visibility: inherit;" fill="rgb(0, 0, 0)" stroke="rgb(204, 204, 204)" stroke-width="1px"></line><line x1="770.2857142857142" y1="0" x2="770.2857142857142" y2="5" style="visibility: inherit;" fill="rgb(0, 0, 0)" stroke="rgb(204, 204, 204)" stroke-width="1px"></line><line x1="866.5714285714287" y1="0" x2="866.5714285714287" y2="5" style="visibility: inherit;" fill="rgb(0, 0, 0)" stroke="rgb(204, 204, 204)" stroke-width="1px"></line><line x1="962.8571428571429" y1="0" x2="962.8571428571429" y2="5" style="visibility: inherit;" fill="rgb(0, 0, 0)" stroke="rgb(204, 204, 204)" stroke-width="1px"></line><line x1="1059.142857142857" y1="0" x2="1059.142857142857" y2="5" style="visibility: inherit;" fill="rgb(0, 0, 0)" stroke="rgb(204, 204, 204)" stroke-width="1px"></line><line x1="1155.4285714285713" y1="0" x2="1155.4285714285713" y2="5" style="visibility: inherit;" fill="rgb(0, 0, 0)" stroke="rgb(204, 204, 204)" stroke-width="1px"></line><line x1="1251.7142857142858" y1="0" x2="1251.7142857142858" y2="5" style="visibility: inherit;" fill="rgb(0, 0, 0)" stroke="rgb(204, 204, 204)" stroke-width="1px"></line><line x1="1348" y1="0" x2="1348" y2="5" style="visibility: inherit;" fill="rgb(0, 0, 0)" stroke="rgb(204, 204, 204)" stroke-width="1px"></line></g><g transform="translate(0, 8)"><text x="0" y="0" dx="0em" dy="0.95em" style="text-anchor: middle; visibility: hidden; font-family: Roboto, sans-serif; font-size: 12px; font-weight: 200;" fill="rgb(255, 255, 255)" stroke="none" stroke-width="1px">-5</text><text x="96.28571428571428" y="0" dx="0em" dy="0.95em" style="text-anchor: middle; visibility: inherit; font-family: Roboto, sans-serif; font-size: 12px; font-weight: 200;" fill="rgb(255, 255, 255)" stroke="none" stroke-width="1px">0</text><text x="192.57142857142856" y="0" dx="0em" dy="0.95em" style="text-anchor: middle; visibility: inherit; font-family: Roboto, sans-serif; font-size: 12px; font-weight: 200;" fill="rgb(255, 255, 255)" stroke="none" stroke-width="1px">5</text><text x="288.85714285714283" y="0" dx="0em" dy="0.95em" style="text-anchor: middle; visibility: inherit; font-family: Roboto, sans-serif; font-size: 12px; font-weight: 200;" fill="rgb(255, 255, 255)" stroke="none" stroke-width="1px">10</text><text x="385.1428571428571" y="0" dx="0em" dy="0.95em" style="text-anchor: middle; visibility: inherit; font-family: Roboto, sans-serif; font-size: 12px; font-weight: 200;" fill="rgb(255, 255, 255)" stroke="none" stroke-width="1px">15</text><text x="481.42857142857144" y="0" dx="0em" dy="0.95em" style="text-anchor: middle; visibility: inherit; font-family: Roboto, sans-serif; font-size: 12px; font-weight: 200;" fill="rgb(255, 255, 255)" stroke="none" stroke-width="1px">20</text><text x="577.7142857142857" y="0" dx="0em" dy="0.95em" style="text-anchor: middle; visibility: inherit; font-family: Roboto, sans-serif; font-size: 12px; font-weight: 200;" fill="rgb(255, 255, 255)" stroke="none" stroke-width="1px">25</text><text x="674" y="0" dx="0em" dy="0.95em" style="text-anchor: middle; visibility: inherit; font-family: Roboto, sans-serif; font-size: 12px; font-weight: 200;" fill="rgb(255, 255, 255)" stroke="none" stroke-width="1px">30</text><text x="770.2857142857142" y="0" dx="0em" dy="0.95em" style="text-anchor: middle; visibility: inherit; font-family: Roboto, sans-serif; font-size: 12px; font-weight: 200;" fill="rgb(255, 255, 255)" stroke="none" stroke-width="1px">35</text><text x="866.5714285714287" y="0" dx="0em" dy="0.95em" style="text-anchor: middle; visibility: inherit; font-family: Roboto, sans-serif; font-size: 12px; font-weight: 200;" fill="rgb(255, 255, 255)" stroke="none" stroke-width="1px">40</text><text x="962.8571428571429" y="0" dx="0em" dy="0.95em" style="text-anchor: middle; visibility: inherit; font-family: Roboto, sans-serif; font-size: 12px; font-weight: 200;" fill="rgb(255, 255, 255)" stroke="none" stroke-width="1px">45</text><text x="1059.142857142857" y="0" dx="0em" dy="0.95em" style="text-anchor: middle; visibility: inherit; font-family: Roboto, sans-serif; font-size: 12px; font-weight: 200;" fill="rgb(255, 255, 255)" stroke="none" stroke-width="1px">50</text><text x="1155.4285714285713" y="0" dx="0em" dy="0.95em" style="text-anchor: middle; visibility: inherit; font-family: Roboto, sans-serif; font-size: 12px; font-weight: 200;" fill="rgb(255, 255, 255)" stroke="none" stroke-width="1px">55</text><text x="1251.7142857142858" y="0" dx="0em" dy="0.95em" style="text-anchor: middle; visibility: inherit; font-family: Roboto, sans-serif; font-size: 12px; font-weight: 200;" fill="rgb(255, 255, 255)" stroke="none" stroke-width="1px">60</text><text x="1348" y="0" dx="0em" dy="0.95em" style="text-anchor: middle; visibility: hidden; font-family: Roboto, sans-serif; font-size: 12px; font-weight: 200;" fill="rgb(255, 255, 255)" stroke="none" stroke-width="1px">65</text></g><line x1="0" y1="0" x2="1348" y2="0" fill="rgb(0, 0, 0)" stroke="rgb(204, 204, 204)" stroke-width="1px"></line></g></g></g></g></svg>