<svg viewBox="0 0 1378 400" xmlns="http://www.w3.org/2000/svg"><g><g><g><g><g><line x1="30" y1="377" x2="25" y2="377" style="visibility: inherit;" fill="rgb(0, 0, 0)" stroke="rgb(204, 204, 204)" stroke-width="1px"></line><line x1="30" y1="329.875" x2="25" y2="329.875" style="visibility: inherit;" fill="rgb(0, 0, 0)" stroke="rgb(204, 204, 204)" stroke-width="1px"></line><line x1="30" y1="282.75" x2="25" y2="282.75" style="visibility: inherit;" fill="rgb(0, 0, 0)" stroke="rgb(204, 204, 204)" stroke-width="1px"></line><line x1="30" y1="235.625" x2="25" y2="235.625" style="visibility: inherit;" fill="rgb(0, 0, 0)" stroke="rgb(204, 204, 204)" stroke-width="1px"></line><line x1="30" y1="188.5" x2="25" y2="188.5" style="visibility: inherit;" fill="rgb(0, 0, 0)" stroke="rgb(204, 204, 204)" stroke-width="1px"></line><line x1="30" y1="141.375" x2="25" y2="141.375" style="visibility: inherit;" fill="rgb(0, 0, 0)" stroke="rgb(204, 204, 204)" stroke-width="1px"></line><line x1="30" y1="94.25" x2="25" y2="94.25" style="visibility: inherit;" fill="rgb(0, 0, 0)" stroke="rgb(204, 204, 204)" stroke-width="1px"></line><line x1="30" y1="47.125" x2="25" y2="47.125" style="visibility: inherit;" fill="rgb(0, 0, 0)" stroke="rgb(204, 204, 204)" stroke-width="1px"></line><line x1="30" y1="0" x2="25" y2="0" style="visibility: inherit;" fill="rgb(0, 0, 0)" stroke="rgb(204, 204, 204)" stroke-width="1px"></line></g><g transform="translate(20, 0)"><text x="0" y="377" dx="0em" dy="0.3em" style="text-anchor: end; visibility: hidden; font-family: Roboto, sans-serif; font-size: 12px; font-weight: 200;" fill="rgb(255, 255, 255)" stroke="none" stroke-width="1px">0</text><text x="0" y="329.875" dx="0em" dy="0.3em" style="text-anchor: end; visibility: inherit; font-family: Roboto, sans-serif; font-size: 12px; font-weight: 200;" fill="rgb(255, 255, 255)" stroke="none" stroke-width="1px">10</text><text x="0" y="282.75" dx="0em" dy="0.3em" style="text-anchor: end; visibility: inherit; font-family: Roboto, sans-serif; font-size: 12px; font-weight: 200;" fill="rgb(255, 255, 255)" stroke="none" stroke-width="1px">20</text><text x="0" y="235.625" dx="0em" dy="0.3em" style="text-anchor: end; visibility: inherit; font-family: Roboto, sans-serif; font-size: 12px; font-weight: 200;" fill="rgb(255, 255, 255)" stroke="none" stroke-width="1px">30</text><text x="0" y="188.5" dx="0em" dy="0.3em" style="text-anchor: end; visibility: inherit; font-family: Roboto, sans-serif; font-size: 12px; font-weight: 200;" fill="rgb(255, 255, 255)" stroke="none" stroke-width="1px">40</text><text x="0" y="141.375" dx="0em" dy="0.3em" style="text-anchor: end; visibility: inherit; font-family: Roboto, sans-serif; font-size: 12px; font-weight: 200;" fill="rgb(255, 255, 255)" stroke="none" stroke-width="1px">50</text><text x="0" y="94.25" dx="0em" dy="0.3em" style="text-anchor: end; visibility: inherit; font-family: Roboto, sans-serif; font-size: 12px; font-weight: 200;" fill="rgb(255, 255, 255)" stroke="none" stroke-width="1px">60</text><text x="0" y="47.125" dx="0em" dy="0.3em" style="text-anchor: end; visibility: inherit; font-family: Roboto, sans-serif; font-size: 12px; font-weight: 200;" fill="rgb(255, 255, 255)" stroke="none" stroke-width="1px">70</text><text x="0" y="0" dx="0em" dy="0.3em" style="text-anchor: end; visibility: hidden; font-family: Roboto, sans-serif; font-size: 12px; font-weight: 200;" fill="rgb(255, 255, 255)" stroke="none" stroke-width="1px">80</text></g><line x1="30" y1="0" x2="30" y2="377" fill="rgb(0, 0, 0)" stroke="rgb(204, 204, 204)" stroke-width="1px"></line></g></g><g transform="translate(30, 0)" clip-path="url(#clip_0)"><clipPath id="clip_0"><rect width="1348" height="377"></rect></clipPath><g><g><g><line x1="0" y1="0" x2="0" y2="377" fill="rgb(0, 0, 0)" stroke="rgb(189, 189, 189)" stroke-width="1px" opacity="0.25"></line><line x1="96.28571428571428" y1="0" x2="96.28571428571428" y2="377" fill="rgb(0, 0, 0)" stroke="rgb(189, 189, 189)" stroke-width="1px" opacity="0.25"></line><line x1="192.57142857142856" y1="0" x2="192.57142857142856" y2="377" fill="rgb(0, 0, 0)" stroke="rgb(189, 189, 189)" stroke-width="1px" opacity="0.25"></line><line x1="288.85714285714283" y1="0" x2="288.85714285714283" y2="377" fill="rgb(0, 0, 0)" stroke="rgb(189, 189, 189)" stroke-width="1px" opacity="0.25"></line><line x1="385.1428571428571" y1="0" x2="385.1428571428571" y2="377" fill="rgb(0, 0, 0)" stroke="rgb(189, 189, 189)" stroke-width="1px" opacity="0.25"></line><line x1="481.42857142857144" y1="0" x2="481.42857142857144" y2="377" fill="rgb(0, 0, 0)" stroke="rgb(189, 189, 189)" stroke-width="1px" opacity="0.25"></line><line x1="577.7142857142857" y1="0" x2="577.7142857142857" y2="377" fill="rgb(0, 0, 0)" stroke="rgb(189, 189, 189)" stroke-width="1px" opacity="0.25"></line><line x1="674" y1="0" x2="674" y2="377" fill="rgb(0, 0, 0)" stroke="rgb(189, 189, 189)" stroke-width="1px" opacity="0.25"></line><line x1="770.2857142857142" y1="0" x2="770.2857142857142" y2="377" fill="rgb(0, 0, 0)" stroke="rgb(189, 189, 189)" stroke-width="1px" opacity="0.25"></line><line x1="866.5714285714287" y1="0" x2="866.5714285714287" y2="377" fill="rgb(0, 0, 0)" stroke="rgb(189, 189, 189)" stroke-width="1px" opacity="0.25"></line><line x1="962.8571428571429" y1="0" x2="962.8571428571429" y2="377" fill="rgb(0, 0, 0)" stroke="rgb(189, 189, 189)" stroke-width="1px" opacity="0.25"></line><line x1="1059.142857142857" y1="0" x2="1059.142857142857" y2="377" fill="rgb(0, 0, 0)" stroke="rgb(189, 189, 189)" stroke-width="1px" opacity="0.25"></line><line x1="1155.4285714285713" y1="0" x2="1155.4285714285713" y2="377" fill="rgb(0, 0, 0)" stroke="rgb(189, 189, 189)" stroke-width="1px" opacity="0.25"></line><line x1="1251.7142857142858" y1="0" x2="1251.7142857142858" y2="377" fill="rgb(0, 0, 0)" stroke="rgb(189, 189, 189)" stroke-width="1px" opacity="0.25"></line><line x1="1348" y1="0" x2="1348" y2="377" fill="rgb(0, 0, 0)" stroke="rgb(189, 189, 189)" stroke-width="1px" opacity="0.25"></line></g><g><line x1="0" y1="377" x2="1348" y2="377" fill="rgb(0, 0, 0)" stroke="rgb(189, 189, 189)" stroke-width="1px" opacity="0.25"></line><line x1="0" y1="329.875" x2="1348" y2="329.875" fill="rgb(0, 0, 0)" stroke="rgb(189, 189, 189)" stroke-width="1px" opacity="0.25"></line><line x1="0" y1="282.75" x2="1348" y2="282.75" fill="rgb(0, 0, 0)" stroke="rgb(189, 189, 189)" stroke-width="1px" opacity="0.25"></line><line x1="0" y1="235.625" x2="1348" y2="235.625" fill="rgb(0, 0, 0)" stroke="rgb(189, 189, 189)" stroke-width="1px" opacity="0.25"></line><line x1="0" y1="188.5" x2="1348" y2="188.5" fill="rgb(0, 0, 0)" stroke="rgb(189, 189, 189)" stroke-width="1px" opacity="0.25"></line><line x1="0" y1="141.375" x2="1348" y2="141.375" fill="rgb(0, 0, 0)" stroke="rgb(189, 189, 189)" stroke-width="1px" opacity="0.25"></line><line x1="0" y1="94.25" x2="1348" y2="94.25" fill="rgb(0, 0, 0)" stroke="rgb(189, 189, 189)" stroke-width="1px" opacity="0.25"></line><line x1="0" y1="47.125" x2="1348" y2="47.125" fill="rgb(0, 0, 0)" stroke="rgb(189, 189, 189)" stroke-width="1px" opacity="0.25"></line><line x1="0" y1="0" x2="1348" y2="0" fill="rgb(0, 0, 0)" stroke="rgb(189, 189, 189)" stroke-width="1px" opacity="0.25"></line></g></g></g><g><g><line x1="0" y1="377" x2="1348" y2="377" fill="rgb(0, 0, 0)" stroke="rgb(153, 153, 153)" stroke-width="1.5px"></line></g></g><g><g><line x1="96.28571428571428" y1="0" x2="96.28571428571428" y2="377" fill="rgb(0, 0, 0)" stroke="rgb(153, 153, 153)" stroke-width="1.5px"></line></g></g><g><g><g><g><g><path stroke="rgb(238, 51, 119)" stroke-width="2px" d="M115.54285714285714,352.966250449419L134.8,350.4332813061774L154.05714285714285,331.5051397833289L173.3142857142857,300.02512264175016L192.57142857142856,270.06958110672906L211.82857142857142,241.24285821805915L231.0857142857143,219.22783547788435L250.34285714285716,199.53722463654165L269.6,188.1270940785596L288.85714285714283,175.83633634646193L308.1142857142857,163.5340219621245L327.37142857142857,150.38168656982546L346.6285714285714,140.2059225507566L365.88571428571424,130.75104746053313L385.1428571428571,121.85799479546434L404.4,115.75177223138411L423.65714285714284,113.84248872277222L442.9142857142857,109.19066820631971L462.1714285714286,102.38458877736623L481.42857142857144,98.73477154908815L500.6857142857143,94.65992526552016L519.9428571428572,94.02469679832679L539.2,89.19492878634568L558.4571428571429,83.28108097551036L577.7142857142857,82.4283484619885L596.9714285714285,79.48505463172795L616.2285714285714,76.34302381063502L635.4857142857143,72.15811804427435L654.7428571428571,69.40211693481632L674,67.37152258826008L693.2571428571428,66.07776453185912L712.5142857142857,63.906613723628034L731.7714285714285,63.09401301806639L751.0285714285715,61.87130374901333L770.2857142857142,58.1405350615552L789.5428571428572,55.86436583614862L808.8,54.9510746733442L828.0571428571429,54.120347101947225L847.3142857142857,52.867907683121715L866.5714285714287,52.43689058250242L885.8285714285714,49.61467916993077L905.0857142857142,47.525504049414934L924.3428571428572,46.14004955296726L943.5999999999999,45.30877685535456L962.8571428571429,44.90426898945243L982.1142857142856,43.37976369460176L1001.3714285714286,41.503706490921815L1020.6285714285714,40.283830797601894L1039.8857142857144,39.28799215072787L1059.142857142857,38.27580104299197L1078.4,37.93238522784439L1097.6571428571428,36.23718401298345L1116.9142857142858,35.87981040778948L1136.1714285714286,35.64653221787905L1155.4285714285713,34.52637163175208L1174.6857142857143,33.571522403794525L1193.942857142857,32.79126171650752L1213.2,33.00170645464815L1232.4571428571428,32.39282444804518L1251.7142857142858,32.40448949152001" style="fill: none;" fill="none"></path></g><g><path stroke="rgb(204, 51, 17)" stroke-width="2px" d="M115.54285714285714,353.9236657679081L134.8,352.7702023558319L154.05714285714285,340.6892161514078L173.3142857142857,321.10810830569005L192.57142857142856,296.7368115283109L211.82857142857142,271.38888104802L231.0857142857143,248.51327214275486L250.34285714285716,228.2322320485953L269.6,211.74078798913087L288.85714285714283,196.77867562567886L308.1142857142857,183.81770959827446L327.37142857142857,173.25957210324515L346.6285714285714,164.78992631567345L365.88571428571424,156.15918678253806L385.1428571428571,148.3103769176087L404.4,141.2144302424503L423.65714285714284,135.1434491842882L442.9142857142857,129.8002405805824L462.1714285714286,124.86324415768816L481.42857142857144,120.08111874420574L500.6857142857143,115.64486520367291L519.9428571428572,111.6407754353475L539.2,108.29433780112205L558.4571428571429,104.88557090363574L577.7142857142857,101.56590175737313L596.9714285714285,98.90952589920018L616.2285714285714,95.70710512228585L635.4857142857143,92.50746312722764L654.7428571428571,89.24529643373887L674,86.8178832142611L693.2571428571428,84.19086071031543L712.5142857142857,81.37988115456032L731.7714285714285,78.71906813019126L751.0285714285715,76.50520088548564L770.2857142857142,73.5531907472679L789.5428571428572,71.3496220214574L808.8,69.20241937878534L828.0571428571429,66.74352303690306L847.3142857142857,64.2373258603205L866.5714285714287,62.091678998736654L885.8285714285714,59.679031941069105L905.0857142857142,57.19680202172326L924.3428571428572,54.65395397688717L943.5999999999999,52.65058104209625L962.8571428571429,50.79151386249121L982.1142857142856,48.20341730476011L1001.3714285714286,46.106812688990935L1020.6285714285714,44.33908650709268L1039.8857142857144,42.06822649376366L1059.142857142857,40.12986450036848L1078.4,38.224852904313465L1097.6571428571428,36.77221421755943L1116.9142857142858,35.25115220759595L1136.1714285714286,33.653168970429974L1155.4285714285713,31.916517394830088L1174.6857142857143,30.761244093208678L1193.942857142857,29.61683465172571L1213.2,28.310925528584036L1232.4571428571428,27.923861110912586L1251.7142857142858,27.72182341856168" style="fill: none;" fill="none"></path></g></g></g></g><g opacity="0.2"><g><g><g><path stroke="rgb(238, 51, 119)" stroke-width="2px" d="M115.54285714285714,352.966250449419L134.8,348.9134998202324L154.05714285714285,313.33412392139434L173.3142857142857,263.00462248325346L192.57142857142856,230.95962607860565L211.82857142857142,201.3651228427887L231.0857142857143,187.74600071907042L250.34285714285716,170.828125L269.6,171.29936780929563L288.85714285714283,157.5859935283661L308.1142857142857,145.1921314716339L327.37142857142857,130.72475790977478L346.6285714285714,124.97550215721128L365.88571428571424,116.58725790977479L385.1428571428571,108.52886924743655L404.4,106.59674496650695L423.65714285714284,110.97937140464785L442.9142857142857,102.2141185283661L462.1714285714286,92.1765064716339L481.42857142857144,93.26037931442261L500.6857142857143,88.54787931442263L519.9428571428572,93.07187499999998L539.2,81.95037212371824L558.4571428571429,74.41037931442258L577.7142857142857,81.14925575256348L596.9714285714285,75.07012643814085L616.2285714285714,71.62998561859132L635.4857142857143,65.88076581954954L654.7428571428571,65.26811780929563L674,64.32563219070437L693.2571428571428,64.13712787628174L712.5142857142857,60.64988794326781L731.7714285714285,61.87511205673218L751.0285714285715,60.0372399330139L770.2857142857142,52.54438219070436L789.5428571428572,52.450112056732166L808.8,53.581137943267834L828.0571428571429,52.87425575256349L847.3142857142857,50.98924856185914L866.5714285714287,51.790364933013905L885.8285714285714,45.38136205673219L905.0857142857142,44.3917413711548L924.3428571428572,44.06186780929567L943.5999999999999,44.06186780929567L962.8571428571429,44.29750719070433L982.1142857142856,41.09300575256349L1001.3714285714286,38.68962068557738L1020.6285714285714,38.454017257690445L1039.8857142857144,37.794234180450424L1059.142857142857,36.757514381408676L1078.4,37.41726150512694L1097.6571428571428,33.694382190704346L1116.9142857142858,35.34375L1136.1714285714286,35.29661493301393L1155.4285714285713,32.84613075256346L1174.6857142857143,32.13924856185912L1193.942857142857,31.620870685577408L1213.2,33.31737356185914L1232.4571428571428,31.47950143814086L1251.7142857142858,32.42198705673218" style="fill: none;" fill="none"></path></g><g><path stroke="rgb(204, 51, 17)" stroke-width="2px" d="M115.54285714285714,353.9236657679081L134.8,352.0781243085861L154.05714285714285,329.0914693951607L173.3142857142857,298.080725479126L192.57142857142856,264.9176464557648L211.82857142857142,236.32356793880462L231.0857142857143,215.8007853984833L250.34285714285716,198.66228089332583L269.6,187.41911129951478L288.85714285714283,174.561682510376L308.1142857142857,164.49381556510923L327.37142857142857,157.47982277870176L346.6285714285714,152.11311249732972L365.88571428571424,143.22998600006105L385.1428571428571,136.54638810157775L404.4,130.57551484107972L423.65714285714284,126.0395466327667L442.9142857142857,121.78678431510923L462.1714285714286,117.45850162506105L481.42857142857144,112.90836772918703L500.6857142857143,108.99072818756105L519.9428571428572,105.6347725391388L539.2,103.27474741935731L558.4571428571429,99.7724609375L577.7142857142857,96.5864216327667L596.9714285714285,94.92497344017028L616.2285714285714,90.90348215103148L635.4857142857143,87.7080050468445L654.7428571428571,84.35204939842225L674,83.1767647266388L693.2571428571428,80.25032782554626L712.5142857142857,77.16341238021852L731.7714285714285,74.72784891128538L751.0285714285715,73.18440017700198L770.2857142857142,69.12517566680907L789.5428571428572,68.04426898956297L808.8,65.98161544799802L828.0571428571429,63.0551785469055L847.3142857142857,60.4780301094055L866.5714285714287,58.87320871353148L885.8285714285714,56.0600613594055L905.0857142857142,53.47345714569093L924.3428571428572,50.83968191146852L943.5999999999999,49.64552164077759L962.8571428571429,48.00291309356691L982.1142857142856,44.32127246856691L1001.3714285714286,42.96190576553346L1020.6285714285714,41.6874972343445L1039.8857142857144,38.661936473846424L1059.142857142857,37.22232151031494L1078.4,35.367335510253895L1097.6571428571428,34.59325618743895L1116.9142857142858,32.96955919265747L1136.1714285714286,31.25619411468506L1155.4285714285713,29.31154003143309L1174.6857142857143,29.028334140777588L1193.942857142857,27.90022048950197L1213.2,26.352061843872086L1232.4571428571428,27.343264484405502L1251.7142857142858,27.418766880035385" style="fill: none;" fill="none"></path></g></g></g></g></g></g><g transform="translate(30, 377)" clip-path="url(#clip_1)"><clipPath id="clip_1"><rect width="1348" height="23"></rect></clipPath><g><g><line x1="0" y1="0" x2="0" y2="5" style="visibility: inherit;" fill="rgb(0, 0, 0)" stroke="rgb(204, 204, 204)" stroke-width="1px"></line><line x1="96.28571428571428" y1="0" x2="96.28571428571428" y2="5" style="visibility: inherit;" fill="rgb(0, 0, 0)" stroke="rgb(204, 204, 204)" stroke-width="1px"></line><line x1="192.57142857142856" y1="0" x2="192.57142857142856" y2="5" style="visibility: inherit;" fill="rgb(0, 0, 0)" stroke="rgb(204, 204, 204)" stroke-width="1px"></line><line x1="288.85714285714283" y1="0" x2="288.85714285714283" y2="5" style="visibility: inherit;" fill="rgb(0, 0, 0)" stroke="rgb(204, 204, 204)" stroke-width="1px"></line><line x1="385.1428571428571" y1="0" x2="385.1428571428571" y2="5" style="visibility: inherit;" fill="rgb(0, 0, 0)" stroke="rgb(204, 204, 204)" stroke-width="1px"></line><line x1="481.42857142857144" y1="0" x2="481.42857142857144" y2="5" style="visibility: inherit;" fill="rgb(0, 0, 0)" stroke="rgb(204, 204, 204)" stroke-width="1px"></line><line x1="577.7142857142857" y1="0" x2="577.7142857142857" y2="5" style="visibility: inherit;" fill="rgb(0, 0, 0)" stroke="rgb(204, 204, 204)" stroke-width="1px"></line><line x1="674" y1="0" x2="674" y2="5" style="visibility: inherit;" fill="rgb(0, 0, 0)" stroke="rgb(204, 204, 204)" stroke-width="1px"></line><line x1="770.2857142857142" y1="0" x2="770.2857142857142" y2="5" style="visibility: inherit;" fill="rgb(0, 0, 0)" stroke="rgb(204, 204, 204)" stroke-width="1px"></line><line x1="866.5714285714287" y1="0" x2="866.5714285714287" y2="5" style="visibility: inherit;" fill="rgb(0, 0, 0)" stroke="rgb(204, 204, 204)" stroke-width="1px"></line><line x1="962.8571428571429" y1="0" x2="962.8571428571429" y2="5" style="visibility: inherit;" fill="rgb(0, 0, 0)" stroke="rgb(204, 204, 204)" stroke-width="1px"></line><line x1="1059.142857142857" y1="0" x2="1059.142857142857" y2="5" style="visibility: inherit;" fill="rgb(0, 0, 0)" stroke="rgb(204, 204, 204)" stroke-width="1px"></line><line x1="1155.4285714285713" y1="0" x2="1155.4285714285713" y2="5" style="visibility: inherit;" fill="rgb(0, 0, 0)" stroke="rgb(204, 204, 204)" stroke-width="1px"></line><line x1="1251.7142857142858" y1="0" x2="1251.7142857142858" y2="5" style="visibility: inherit;" fill="rgb(0, 0, 0)" stroke="rgb(204, 204, 204)" stroke-width="1px"></line><line x1="1348" y1="0" x2="1348" y2="5" style="visibility: inherit;" fill="rgb(0, 0, 0)" stroke="rgb(204, 204, 204)" stroke-width="1px"></line></g><g transform="translate(0, 8)"><text x="0" y="0" dx="0em" dy="0.95em" style="text-anchor: middle; visibility: hidden; font-family: Roboto, sans-serif; font-size: 12px; font-weight: 200;" fill="rgb(255, 255, 255)" stroke="none" stroke-width="1px">-5</text><text x="96.28571428571428" y="0" dx="0em" dy="0.95em" style="text-anchor: middle; visibility: inherit; font-family: Roboto, sans-serif; font-size: 12px; font-weight: 200;" fill="rgb(255, 255, 255)" stroke="none" stroke-width="1px">0</text><text x="192.57142857142856" y="0" dx="0em" dy="0.95em" style="text-anchor: middle; visibility: inherit; font-family: Roboto, sans-serif; font-size: 12px; font-weight: 200;" fill="rgb(255, 255, 255)" stroke="none" stroke-width="1px">5</text><text x="288.85714285714283" y="0" dx="0em" dy="0.95em" style="text-anchor: middle; visibility: inherit; font-family: Roboto, sans-serif; font-size: 12px; font-weight: 200;" fill="rgb(255, 255, 255)" stroke="none" stroke-width="1px">10</text><text x="385.1428571428571" y="0" dx="0em" dy="0.95em" style="text-anchor: middle; visibility: inherit; font-family: Roboto, sans-serif; font-size: 12px; font-weight: 200;" fill="rgb(255, 255, 255)" stroke="none" stroke-width="1px">15</text><text x="481.42857142857144" y="0" dx="0em" dy="0.95em" style="text-anchor: middle; visibility: inherit; font-family: Roboto, sans-serif; font-size: 12px; font-weight: 200;" fill="rgb(255, 255, 255)" stroke="none" stroke-width="1px">20</text><text x="577.7142857142857" y="0" dx="0em" dy="0.95em" style="text-anchor: middle; visibility: inherit; font-family: Roboto, sans-serif; font-size: 12px; font-weight: 200;" fill="rgb(255, 255, 255)" stroke="none" stroke-width="1px">25</text><text x="674" y="0" dx="0em" dy="0.95em" style="text-anchor: middle; visibility: inherit; font-family: Roboto, sans-serif; font-size: 12px; font-weight: 200;" fill="rgb(255, 255, 255)" stroke="none" stroke-width="1px">30</text><text x="770.2857142857142" y="0" dx="0em" dy="0.95em" style="text-anchor: middle; visibility: inherit; font-family: Roboto, sans-serif; font-size: 12px; font-weight: 200;" fill="rgb(255, 255, 255)" stroke="none" stroke-width="1px">35</text><text x="866.5714285714287" y="0" dx="0em" dy="0.95em" style="text-anchor: middle; visibility: inherit; font-family: Roboto, sans-serif; font-size: 12px; font-weight: 200;" fill="rgb(255, 255, 255)" stroke="none" stroke-width="1px">40</text><text x="962.8571428571429" y="0" dx="0em" dy="0.95em" style="text-anchor: middle; visibility: inherit; font-family: Roboto, sans-serif; font-size: 12px; font-weight: 200;" fill="rgb(255, 255, 255)" stroke="none" stroke-width="1px">45</text><text x="1059.142857142857" y="0" dx="0em" dy="0.95em" style="text-anchor: middle; visibility: inherit; font-family: Roboto, sans-serif; font-size: 12px; font-weight: 200;" fill="rgb(255, 255, 255)" stroke="none" stroke-width="1px">50</text><text x="1155.4285714285713" y="0" dx="0em" dy="0.95em" style="text-anchor: middle; visibility: inherit; font-family: Roboto, sans-serif; font-size: 12px; font-weight: 200;" fill="rgb(255, 255, 255)" stroke="none" stroke-width="1px">55</text><text x="1251.7142857142858" y="0" dx="0em" dy="0.95em" style="text-anchor: middle; visibility: inherit; font-family: Roboto, sans-serif; font-size: 12px; font-weight: 200;" fill="rgb(255, 255, 255)" stroke="none" stroke-width="1px">60</text><text x="1348" y="0" dx="0em" dy="0.95em" style="text-anchor: middle; visibility: hidden; font-family: Roboto, sans-serif; font-size: 12px; font-weight: 200;" fill="rgb(255, 255, 255)" stroke="none" stroke-width="1px">65</text></g><line x1="0" y1="0" x2="1348" y2="0" fill="rgb(0, 0, 0)" stroke="rgb(204, 204, 204)" stroke-width="1px"></line></g></g></g></g></svg>